<svg xmlns="http://www.w3.org/2000/svg" width="500" height="514.086" viewBox="0 0 500 514.086">
  <g id="Group_356" data-name="Group 356" transform="translate(-397 -1750)" opacity="0.2">
    <path id="Path_3819" data-name="Path 3819" d="M136.218,291.831c-10.609-5.7-23.105-15.134-33.543-23.5-7.716-6.181-24.244-20.742-27.38-24.037-4.915-5.152-10.6-12.265-12.63-14.987s-4.6-6.65-6.632-9.732.225,2.345,1.614,6.51c1.3,3.886,4.915,9.835,7.789,12.491,3.623,3.337,19.993,23.7,29.676,30.778,11.248,8.2,27.947,18.221,32.155,20.206S135.469,292.72,136.218,291.831Z" transform="translate(380.771 1919.725)" fill="#616264" fill-rule="evenodd"/>
    <path id="Path_3824" data-name="Path 3824" d="M154.627,575.079c.609.451.3,1.5-.445,1.127a39.062,39.062,0,0,1-5.274-3.892c-8.739-7.356-15.2-16.114-22.082-25.188-8.556-11.315-14.573-24.061-21.041-36.539-4.567-8.794-8.855-17.722-13.313-26.552a4.2,4.2,0,0,0-1.644-1.821c-3.039-1.541-4.531-4.178-5.487-7.241-7.832-25.212-12.405-56.947-12.022-79.924.292-17.892,3.118-35.748,10.737-57.7,4.348-11.339,7.6-19.512,13.812-29.426.67-1.066,3.222-2.247,4.586-.883-5.469,9.908-5.956,11.662-10.481,23.97C78.3,368.229,76.518,394.988,78.863,423.982c.536,3.77,1.626,9.3,2.29,11.79a14.581,14.581,0,0,0,2.381,4.038c-.219-2.052-1.054-22.3-1.121-24.36a187.319,187.319,0,0,1,1.09-31.509c1.882-14.543,3.916-27.66,12.32-50.729s31.485-59.347,55.144-83.749c22.7-23.4,49.365-40.669,80.582-50.54,18.83-5.95,38.263-8.66,57.848-10.554,21.8-2.113,43.506-1.4,64.931,3.106,48.8,10.255,90.07,33.72,123.163,71.24,5.377,6.1,14.506,16.181,16.333,18.142s1.4.877,2.1,1.3c.165-.262.8-2.01-1.395-4.093-1.839-1.748-2.533-2.856-4.628-6-1.979-2.966-5.706-7.472-5.852-8.958s3.392,1.9,5.883,4.428c2.156,2.21,14,17.557,16.169,20.815,1.784,2.667,4.592,4.853,5.913,3.855s-2.046-4.129-3.216-6.315c-1.108-2.058-2.637-4.427-2.929-5.542-.128-.505.8-1.662,2.2-.462,2.07,1.778,5.1,6.979,6.364,9.245,1.93,3.477,3.471,7.7,4.872,7.527,1.888-.225.445-4.726-1.662-7.375s-2.369-4.287-.4-4.093,3.465,3.38,4.933,5.427c1.8,2.509,3.867,5.682,5.329,7.5,1.443,1.815,2.893,3.617,3.666,4.573.706.859,4.233,5.365,2.929,1.023a57.988,57.988,0,0,0-4.7-11.7c-2.375-4.878-5.177-9.549-7.911-14.256-11.772-20.243-24.652-39.774-41.15-56.49-20.584-20.858-45.065-36.125-71.989-47.471-26.272-11.078-53.762-16.833-82.208-18.422-30.651-1.693-60.808.981-90.35,9.537-39.043,11.3-73.073,31.479-102.859,58.9-49.024,45.127-76.971,100.8-83.079,167.278-.366,4.038-.7,8.075-1.048,12.113v15.341c.347,4.226.725,8.453,1.048,12.679,1.65,21.175,11.09,61.392,11.686,62.257a30.09,30.09,0,0,0,2.771,3.629c.761.7,1.8.773,2.247,1.45a54.635,54.635,0,0,1,3.843,6.6c9.208,19.141,19.841,37.41,32.94,54.158,5.59,7.15,11.686,13.9,17.5,20.87.256.311,8.6,9.592,14.25,14.671,5.992,5.377,14.628,12.734,19.037,15.864a127.372,127.372,0,0,0,13.7,8.587c4.6,2.405,9.6,5.3,14.183,7.722C214,643.944,248.229,652.8,284.142,655.259a245.244,245.244,0,0,0,61.3-3.715c45.108-8.289,85.417-26.96,119.35-57.733,52.995-48.056,79.181-108.273,78.073-179.994-.085-5.8-.81-15.225-2.095-17.655s-2.089-1.3-.962,3.995c.743,3.471.518,7.254.566,16.3.018,6.65.146,11.193-1.523,19.561-.268,1.315-.871,2.472-.871-.037s.347-6.851.371-10.207a210.6,210.6,0,0,0-1.078-22.539c-.512-4.909-.8-13.1-2.369-14.987-1.48-1.772-1.5.53-.986,3.356.237,1.291.256,4.19.4,8.532.256,7.2.4,10.767.384,12.771s-.95,1.242-1.486-.883-1.565-2.765-1.529-6.674c.092-6.815-.371-8.148-.932-14.933-.475-5.725-2.521-13.215-3.825-11.144s-1.151,3.7-.505,6.742a109.327,109.327,0,0,1,2.065,18.209c1.169,22.545.548,45.528-5.152,67.354-11.906,45.674-35.3,86.732-69.7,118.893-3.995,4.141-8.112,5.791-7.753,3.855s16.236-17.947,24.36-27.813c5.4-6.577,16.5-21.607,18.373-24.414a29.583,29.583,0,0,0,3.581-6.809c1.218-3.057-1.224-5.268-1.656-3.386a22.27,22.27,0,0,1-2.941,6.492,77.8,77.8,0,0,1-8.319,11.206c-10.877,12.5-24.08,27.277-35.413,37.264a145.182,145.182,0,0,1-22.246,16.309c-3.191,2.095-4.726.286-3.35-1.462,1.395-1.748,6.334-4.677,9.226-7.746,2.32-2.461,3.6-4.628,3.2-5.128-.384-.5-5.907,4.141-6.6,3.7s.81-1.711,1.949-2.783a108.98,108.98,0,0,1,8.6-7.472,81.831,81.831,0,0,0,10.146-8.977c1.918-2.442,1.778-5.7-.518-2.107-.688,1.084-6.066,5.414-9.579,8.209-17.7,14.08-36.625,26.071-57.751,34.384a215.935,215.935,0,0,1-64.967,14.452,200.709,200.709,0,0,1-48.628-2.187c-23.318-4.1-44.864-13.014-65.57-24.207-12.539-6.778-24.573-15.261-35.717-23.738-2.527-1.919-5.633-4.555-8.093-6.827a24.029,24.029,0,0,1-4.032-5.152c-.962-2.223-1.468-3.441-2.363-3.556-1.462-.177-.378,4.781.706,6.029A45.573,45.573,0,0,0,154.627,575.079Z" transform="translate(348.185 1595.108)" fill="#616264" fill-rule="evenodd"/>
    <path id="Path_3825" data-name="Path 3825" d="M152.58,296.892c-3.106-.237-15.785-1.261-23.848-2.144-3.423-.353-8.361-1.261-13.148-2.3-6.522-1.4-12.74-3.045-14.445-3.922-1.547-.785-.786-1.133,1.291-.6,2.741.7,4.921.188,2.68-.463-1.638-.487-2.271-.75-3.392-1.109-3.392-1.127-6.735-2.223-10.042-3.319-5.176-1.7-9.92-3.124-12.424-3.982s-3.5-.962-3.94-1.924,2.509-1.035,5.036-.3c4.671,1.352,11.845,4.568,16.364,5.658a313.123,313.123,0,0,0,38.9,7.411q48.89,5.536,94.351-6.815a249.6,249.6,0,0,0,48.427-18.922,288.492,288.492,0,0,0,38.671-24.061c5.2-3.831,14.555-11.316,15.5-12.125.926-.8.438,1.717-3.009,5.164-1.449,1.37-3.66,3.593-5.128,4.927-27.259,24.689-59.456,39.377-94.643,49.505a235.314,235.314,0,0,1-58.037,9.263,21.131,21.131,0,0,0-5.28.7C165.186,298.08,155.685,297.142,152.58,296.892Z" transform="translate(482.823 1966.38)" fill="#616264" fill-rule="evenodd"/>
    <path id="Path_3826" data-name="Path 3826" d="M133.75,197.084c-1.011-1.736-2.18-1.468-3.106-2.966s-1.419-6.51-1.833-11.613c-.036-.445-.067-1.261.6-1.383.646-.122,1.8,1.912,2.3,3.075s3.447,7.856,5.073,12.862A69.021,69.021,0,0,1,140,210.938a9.91,9.91,0,0,1-.785,5.322c-.64,1.437-1.985-2.783-1.852-4.847C137.616,207.76,134.754,198.826,133.75,197.084Z" transform="translate(755.274 1728.593)" fill="#616264" fill-rule="evenodd"/>
    <path id="Path_3827" data-name="Path 3827" d="M112.564,259.126c6.979-4.8,12.838-11.132,18.69-17.258a242.881,242.881,0,0,0,17.959-21.942c1.529-2.454,2.448,1.827,1.279,3.5a59.723,59.723,0,0,1-5.53,6.967c-3,3.289-7,8.246-10.274,11.876-4.22,4.4-9.622,10.213-16.893,15.091-1.675,1.121-4.7,3.179-5.481,3.209S111.943,259.637,112.564,259.126Z" transform="translate(669.227 1922.346)" fill="#616264" fill-rule="evenodd"/>
    <path id="Path_3828" data-name="Path 3828" d="M132.911,243.172c-.67-2.7-.493-7.655-.408-11.8a152.172,152.172,0,0,0-.9-17.533c-.445-5.024-1.09-9.543-1.431-13.684-.158-2.016.457-4.592.317-5.615-.372-2.595.4-6.413,1.772-3.033s1.93,7.32,2.436,17.155c.292,5.518-.043,14.738,0,20.121C134.745,232.539,133.575,245.864,132.911,243.172Z" transform="translate(762.177 1774.693)" fill="#616264" fill-rule="evenodd"/>
    <path id="Path_3829" data-name="Path 3829" d="M133.457,195.125c-2.978-.164-5.578-6.65-6.132-14.671C129.865,181.416,132.623,187.78,133.457,195.125Z" transform="translate(747.795 1725.217)" fill="#616264" fill-rule="evenodd"/>
  </g>
</svg>
