<svg id="Group_330" data-name="Group 330" xmlns="http://www.w3.org/2000/svg" width="98.155" height="85" viewBox="0 0 98.155 85">
  <path id="Path_3849" data-name="Path 3849" d="M287.338,314.918h2.02a35.474,35.474,0,0,0-8.932-1.394q-.507.014-1.01.043A35.394,35.394,0,0,1,287.338,314.918Z" transform="translate(-232.405 -305.027)" fill="#6affe1"/>
  <rect id="Rectangle_500" data-name="Rectangle 500" width="2.827" height="2.827" transform="translate(4.308 63.314)" fill="#c2f5fa"/>
  <rect id="Rectangle_501" data-name="Rectangle 501" width="2.827" height="2.827" transform="translate(69.101 59.073)" fill="#c2f5fa"/>
  <path id="Path_3859" data-name="Path 3859" d="M71.207,578.046a40.794,40.794,0,0,0,1.97,4.241H75.2a40.834,40.834,0,0,1-1.969-4.241Z" transform="translate(-64.006 -518.973)" fill="#c2f5fa"/>
  <path id="Path_3860" data-name="Path 3860" d="M304.561,599.9a35.172,35.172,0,0,1-23.034,10.319q.5.028,1.01.043A35.185,35.185,0,0,0,306.581,599.9a35.648,35.648,0,0,0,5.487-7.067h-2.02A35.641,35.641,0,0,1,304.561,599.9Z" transform="translate(-234.113 -530.933)" fill="#c2f5fa"/>
  <path id="Path_3861" data-name="Path 3861" d="M92.237,615.014h-2.02a41.305,41.305,0,0,0,12.276,12.293H96.337v2.828h11.306a40.925,40.925,0,0,0,17.133,3.737c.337,0,.674-.005,1.01-.013A41.054,41.054,0,0,1,92.237,615.014Z" transform="translate(-79.381 -548.872)" fill="#c2f5fa"/>
  <rect id="Rectangle_502" data-name="Rectangle 502" width="2.827" height="2.827" transform="translate(34.175 0)" fill="#c2f5fa"/>
  <rect id="Rectangle_503" data-name="Rectangle 503" width="2.827" height="2.827" transform="translate(4.039 18.793)" fill="#c2f5fa"/>
  <path id="Path_3862" data-name="Path 3862" d="M358.9,335.6h-2.019a35.562,35.562,0,0,1,8.222,6.141q.5.5.979,1.022H368.1c-.319-.346-.643-.687-.978-1.022A35.572,35.572,0,0,0,358.9,335.6Z" transform="translate(-295.062 -322.883)" fill="#c2f5fa"/>
  <path id="Path_3863" data-name="Path 3863" d="M418.974,374.538h2.02q-.624-.753-1.295-1.475H417.68Q418.349,373.786,418.974,374.538Z" transform="translate(-344.234 -353.182)" fill="#c2f5fa"/>
  <path id="Path_3864" data-name="Path 3864" d="M114.949,283.87a40.915,40.915,0,0,0-26.014,9.285H78.567v2.827H85.82a41.283,41.283,0,0,0-4.2,4.941h2.019a41.033,41.033,0,0,1,32.315-17.041C115.623,283.875,115.287,283.87,114.949,283.87Z" transform="translate(-69.958 -281.043)" fill="#c2f5fa"/>
  <path id="Path_3865" data-name="Path 3865" d="M64.9,466.216H62.884A41.243,41.243,0,0,0,65.307,487.6h2.019A41.212,41.212,0,0,1,64.9,466.216Z" transform="translate(-56.894 -428.524)" fill="#c2f5fa"/>
  <path id="Path_3866" data-name="Path 3866" d="M442.978,409.076a35.024,35.024,0,0,0-5.447-13.508h-2.02a35.033,35.033,0,0,1,5.447,13.508Z" transform="translate(-358.656 -371.384)" fill="#c2f5fa"/>
  <path id="Path_3867" data-name="Path 3867" d="M425.253,466.216h-2.02a35.761,35.761,0,0,1,.543,6.222,36.135,36.135,0,0,1-.208,3.864H414.6v2.827h8.552a35.036,35.036,0,0,1-2.758,8.47h2.02a35.3,35.3,0,0,0,3.387-15.16A35.82,35.82,0,0,0,425.253,466.216Z" transform="translate(-341.738 -428.524)" fill="#c2f5fa"/>
  <path id="Path_3868" data-name="Path 3868" d="M47.633,373.063a41.079,41.079,0,0,0-4.309,7.528H33.543v2.827h8.663a40.9,40.9,0,0,0-1.866,7.456h2.021a40.873,40.873,0,0,1,7.291-17.811Z" transform="translate(-33.543 -353.182)" fill="#c2f5fa"/>
  <path id="Path_3858" data-name="Path 3858" d="M155.485,318.734a40.873,40.873,0,0,0-7.291-17.811H145.77a41.031,41.031,0,0,0-32.315-17.041c-.336-.008-.672-.012-1.01-.012s-.674,0-1.01.012a41.033,41.033,0,0,0-32.315,17.041h2.424a40.873,40.873,0,0,0-7.291,17.811h-.807a41.212,41.212,0,0,0,2.422,21.382H74.657a40.823,40.823,0,0,0,1.969,4.241H82.15v2.827H78.291A41.054,41.054,0,0,0,111.84,366.03c.336.007.672.013,1.01.013s.674-.005,1.01-.013a40.909,40.909,0,0,0,16.13-3.725h-3.763v-2.828h8.908a41.232,41.232,0,0,0,15.911-19.362h1.211a40.969,40.969,0,0,0,2.891-15.16,41.408,41.408,0,0,0-.47-6.222Zm-5.992,6.222a35.3,35.3,0,0,1-3.387,15.16h1.686v2.827h-4.4a35.651,35.651,0,0,1-5.487,7.067,35.185,35.185,0,0,1-24.044,10.362q-.5.014-1.01.015A35.523,35.523,0,0,1,80.8,340.116h1.212a35.306,35.306,0,0,1-3.387-15.16q0-1.712.161-3.4h-3.8v-2.827H79.98a35.125,35.125,0,0,1,8.854-17.811H86.41q.48-.519.981-1.022a35.2,35.2,0,0,1,25.054-10.378c.337,0,.673.006,1.01.015a35.474,35.474,0,0,1,8.932,1.394h10.056v2.827h-3.167A35.571,35.571,0,0,1,137.5,299.9c.335.335.659.676.978,1.022H140.9q.669.723,1.295,1.475h2.966v2.827h-.851a35.024,35.024,0,0,1,5.447,13.508h-.808A35.819,35.819,0,0,1,149.494,324.957Z" transform="translate(-65.436 -281.043)" fill="#e97b7b" opacity="0.2"/>
  <g id="Group_329" data-name="Group 329" transform="translate(13.194 2.827)">
    <rect id="Rectangle_496" data-name="Rectangle 496" width="2.827" height="2.828" transform="translate(61.865 75.608)" fill="#e97b7b"/>
    <path id="Path_3850" data-name="Path 3850" d="M287.819,697.836a40.93,40.93,0,0,0,17.14-3.737h-2.019a40.908,40.908,0,0,1-16.13,3.725C287.145,697.831,287.481,697.836,287.819,697.836Z" transform="translate(-251.579 -615.664)" fill="#e97b7b"/>
    <path id="Path_3851" data-name="Path 3851" d="M416.009,578.046H413.99a41.231,41.231,0,0,1-15.911,19.362h2.02a41.236,41.236,0,0,0,3.993-2.94h11.829v-2.827h-8.767A41.122,41.122,0,0,0,416.009,578.046Z" transform="translate(-341.574 -521.8)" fill="#e97b7b"/>
    <rect id="Rectangle_497" data-name="Rectangle 497" width="2.827" height="2.827" transform="translate(18.558 13.139)" fill="#e97b7b"/>
    <path id="Path_3852" data-name="Path 3852" d="M145.264,324.843q.479-.519.981-1.022A35.176,35.176,0,0,1,169.28,313.5q.5-.028,1.01-.043c-.337-.009-.673-.015-1.01-.015a35.2,35.2,0,0,0-25.055,10.378q-.5.5-.981,1.022h2.02Z" transform="translate(-135.464 -307.79)" fill="#e97b7b"/>
    <path id="Path_3853" data-name="Path 3853" d="M304.245,288.282h9.087v-2.827H297.042a41.107,41.107,0,0,0-11.336-1.584c-.338,0-.674,0-1.01.012a41.031,41.031,0,0,1,32.314,17.041h2.015A41.26,41.26,0,0,0,304.245,288.282Z" transform="translate(-249.871 -283.87)" fill="#e97b7b"/>
    <rect id="Rectangle_498" data-name="Rectangle 498" width="2.827" height="2.828" transform="translate(80.759 26.122)" fill="#e97b7b"/>
    <path id="Path_3854" data-name="Path 3854" d="M498.967,467.629h-6.7c-.055-.474-.12-.945-.191-1.413h-2.017a41.4,41.4,0,0,1,.47,6.222,40.97,40.97,0,0,1-2.891,15.16h2.019a40.957,40.957,0,0,0,2.891-15.16c0-.665-.017-1.325-.048-1.982h6.472Z" transform="translate(-414.006 -431.352)" fill="#e97b7b"/>
    <path id="Path_3855" data-name="Path 3855" d="M475.689,390.874a40.861,40.861,0,0,0-7.294-17.811h-2.015a40.873,40.873,0,0,1,7.291,17.811Z" transform="translate(-396.817 -356.009)" fill="#e97b7b"/>
    <g id="Group_328" data-name="Group 328" transform="translate(0 34.864)">
      <path id="Path_3856" data-name="Path 3856" d="M136.771,519.769a35.173,35.173,0,0,1-23.035-10.319,35.666,35.666,0,0,1-5.487-7.067h8v-2.827h-8.287a35.306,35.306,0,0,1-3.387-15.16q0-1.712.161-3.4h-2.019q-.159,1.683-.161,3.4a35.306,35.306,0,0,0,3.387,15.16h-1.212a35.523,35.523,0,0,0,32.045,20.271c.337,0,.673-.006,1.01-.015Q137.274,519.8,136.771,519.769Z" transform="translate(-102.551 -478.174)" fill="#e97b7b"/>
      <rect id="Rectangle_499" data-name="Rectangle 499" width="2.827" height="2.827" transform="translate(4.369)" fill="#e97b7b"/>
    </g>
    <path id="Path_3857" data-name="Path 3857" d="M120.485,373.063h-2.019a35.125,35.125,0,0,0-8.854,17.811h2.02a35.054,35.054,0,0,1,6.5-14.984h6.634v-2.827Z" transform="translate(-108.261 -356.009)" fill="#e97b7b"/>
  </g>
</svg>
