<svg id="Behance" xmlns="http://www.w3.org/2000/svg" width="17" height="10.653" viewBox="0 0 17 10.653">
  <rect id="Rectangle_476" data-name="Rectangle 476" width="4.239" height="1.032" transform="translate(11.098 0.701)" fill="#616264"/>
  <path id="Path_3839" data-name="Path 3839" d="M76.847,133.573a2.6,2.6,0,0,0,1.067-.862,2.293,2.293,0,0,0,.358-1.318,2.81,2.81,0,0,0-.239-1.227,2.022,2.022,0,0,0-.682-.8,2.974,2.974,0,0,0-1.056-.431,6.428,6.428,0,0,0-1.364-.133H70v10.457h5.068a5.307,5.307,0,0,0,1.366-.176,3.639,3.639,0,0,0,1.19-.542,2.666,2.666,0,0,0,.827-.947,3.224,3.224,0,0,0-.169-3.049A2.5,2.5,0,0,0,76.847,133.573ZM72.3,130.585h2.154a3.092,3.092,0,0,1,.592.052,1.434,1.434,0,0,1,.507.184.952.952,0,0,1,.355.364,1.242,1.242,0,0,1,.128.6,1.1,1.1,0,0,1-.393.951,1.667,1.667,0,0,1-1.013.293H72.3Zm4.019,6.19a1.109,1.109,0,0,1-.374.417,1.529,1.529,0,0,1-.542.222,2.955,2.955,0,0,1-.646.065H72.3V134.6h2.5a1.941,1.941,0,0,1,1.2.343,1.365,1.365,0,0,1,.453,1.154A1.447,1.447,0,0,1,76.322,136.775Z" transform="translate(-70 -128.804)" fill="#616264" fill-rule="evenodd"/>
  <path id="Path_3840" data-name="Path 3840" d="M252.233,181.116a4.108,4.108,0,0,0-.665-1.437,3.353,3.353,0,0,0-1.181-1,3.585,3.585,0,0,0-1.683-.374,3.937,3.937,0,0,0-1.579.308,3.672,3.672,0,0,0-2.02,2.113,4.444,4.444,0,0,0-.28,1.584,4.627,4.627,0,0,0,.272,1.614,3.725,3.725,0,0,0,.769,1.262,3.434,3.434,0,0,0,1.223.814,4.36,4.36,0,0,0,1.615.287,3.93,3.93,0,0,0,2.192-.589,3.475,3.475,0,0,0,1.35-1.954h-1.831a1.338,1.338,0,0,1-.556.671,2.119,2.119,0,0,1-2.431-.14,2.12,2.12,0,0,1-.515-1.469h5.464A5.363,5.363,0,0,0,252.233,181.116Zm-5.319.375a2.372,2.372,0,0,1,.1-.5,1.49,1.49,0,0,1,.279-.533,1.671,1.671,0,0,1,.527-.417,1.787,1.787,0,0,1,.827-.17,1.555,1.555,0,0,1,1.177.422,2.026,2.026,0,0,1,.479,1.2Z" transform="translate(-235.391 -175.63)" fill="#616264" fill-rule="evenodd"/>
</svg>
