<svg xmlns="http://www.w3.org/2000/svg" width="88.619" height="85" viewBox="0 0 88.619 85">
  <g id="Group_486" data-name="Group 486" transform="translate(-596 -1871)">
    <path id="Path_3869" data-name="Path 3869" d="M9305.262,2481.778l18.172-25.723h51.659l18.788,25.694-44.321,59.306Z" transform="translate(-8709.262 -585.054)" fill="#e97b7b"/>
    <path id="Path_3870" data-name="Path 3870" d="M9409.07,2496.979l-16.621-22.73h-48.64l-16.058,22.731,40.659,54.407Zm-40.659,54.408,40.659-54.408m0,0-16.621-22.73m12.527,21.439h-17.8l5.291-17.316Zm-51.859,2.563H9383.7l-15.293,46.99Zm-1.272-3.984-5.292-17.455h18.991Zm16.566-16.957,14.423,18.378h-28.846Zm2.867-.5h18.989l-5.321,17.417Zm-26.906,1.64,5.226,17.236h-17.741Zm-12.477,19.8h18.526l14.358,44.116Zm40.146,44.116,14.358-44.116h18.526Z" transform="translate(-8728.113 -600.305)" fill="#fff"/>
  </g>
</svg>
