<svg id="web" xmlns="http://www.w3.org/2000/svg" width="17" height="17" viewBox="0 0 17 17">
  <path id="Path_4" data-name="Path 4" d="M2.55,2.55A7.717,7.717,0,0,1,8.5,0a7.717,7.717,0,0,1,5.95,2.55A7.717,7.717,0,0,1,17,8.5a7.717,7.717,0,0,1-2.55,5.95A7.717,7.717,0,0,1,8.5,17a7.717,7.717,0,0,1-5.95-2.55A8.483,8.483,0,0,1,0,8.5,7.717,7.717,0,0,1,2.55,2.55ZM9.633,15.3a3.481,3.481,0,0,0,2.125-1.275,6.188,6.188,0,0,0,.992-2.975,2.346,2.346,0,0,0-.708-1.7A2.494,2.494,0,0,0,10.2,8.5H8.783a4.136,4.136,0,0,1-1.275-.283,1.286,1.286,0,0,1-.425-.992.736.736,0,0,1,.283-.567,1.074,1.074,0,0,1,.567-.283.967.967,0,0,1,.708.425c.283.142.425.283.567.283a.852.852,0,0,0,.567-.142.852.852,0,0,0,.142-.567,2.254,2.254,0,0,0-.708-1.417,5.86,5.86,0,0,0,.708-2.692.3.3,0,0,0-.283-.283A4.379,4.379,0,0,0,8.5,1.7,7.087,7.087,0,0,0,4.817,2.833,3.567,3.567,0,0,0,3.542,5.667,3.627,3.627,0,0,0,4.675,8.358,3.87,3.87,0,0,0,7.367,9.492h0v.567a1.819,1.819,0,0,0,.567,1.417,2.063,2.063,0,0,0,1.275.85v2.55c0,.142,0,.142.142.283S9.492,15.3,9.633,15.3Z" fill="#616264"/>
</svg>
