<svg id="youtube" xmlns="http://www.w3.org/2000/svg" width="17" height="13.303" viewBox="0 0 17 13.303">
  <path id="Path_3841" data-name="Path 3841" d="M37.629,113.005a2.13,2.13,0,0,0-1.5-1.5,49.761,49.761,0,0,0-6.652-.364,51.7,51.7,0,0,0-6.651.35,2.173,2.173,0,0,0-1.5,1.512,24.053,24.053,0,0,0,0,8.178,2.13,2.13,0,0,0,1.5,1.5,49.849,49.849,0,0,0,6.652.364,51.7,51.7,0,0,0,6.651-.35,2.13,2.13,0,0,0,1.5-1.5,22.448,22.448,0,0,0,.35-4.089A21.3,21.3,0,0,0,37.629,113.005Zm-9.844,6.637v-5.1l4.425,2.549Z" transform="translate(-20.979 -111.143)" fill="#616264"/>
</svg>
