<svg xmlns="http://www.w3.org/2000/svg" width="238.527" height="240" viewBox="0 0 238.527 240">
  <g id="Group_282" data-name="Group 282" transform="translate(-54.659 -54.308)">
    <path id="Path_3845" data-name="Path 3845" d="M138.916,203.04c-2.916,1.458-5.363,2.882-7.961,3.946a115.005,115.005,0,0,1-13.55,5.072c-5.887,1.591-11.944,2.56-17.954,3.7a11.7,11.7,0,0,1-4.069.072c-1.845-.3-2.32-1.824-.914-3.012a25.827,25.827,0,0,1,4.473-2.847,34.958,34.958,0,0,1,3.484-1.458c4.148-1.7,6.379-5.175,7.307-9.48,1.393-7.037,3.31-16.462,4.264-21.811,3.3-19.573,7.088-39.858,10.319-58.9.294-1.728.342-3.494.53-5.243a3.13,3.13,0,0,0-1.5-3.169,42.645,42.645,0,0,1-3.96-3.087c-1.564-1.342-1.67-1.769-.27-3.306a13.45,13.45,0,0,1,3.922-3.272c7.6-3.607,15.237-7.115,22.239-11.8,1.7-1.129,2.468-.986,3.125.318a2.641,2.641,0,0,1,.14,1.6c-.486,2.433-1.081,4.843-1.547,7.283a4.623,4.623,0,0,0,.353,1.66,5.358,5.358,0,0,0,1.547-.455c5.623-3.861,11.229-7.745,17.742-10.093,5.134-1.852,10.319-2.847,15.778-1.451,9.08,2.317,14.155,8.649,15.726,17.153,1.964,10.692-1.16,20.477-6.845,29.433a66.078,66.078,0,0,1-40.32,29.351,118.914,118.914,0,0,1-12.892,2.228c-2.409.311-3.128.8-3.576,3.241-.394,2.132-.8,4.48-1.215,7.225-1.15,6.571-1.879,10.408-2.769,15.784a43.734,43.734,0,0,0-.691,5.6c.086,2.909,3.819,4.107,6.612,4.993C137.126,202.526,137.811,202.711,138.916,203.04Zm.373-57.419c.079.014.151.034.226.044a19.7,19.7,0,0,0,.418,2.283c2.423,8.334,13.074,11.664,20.032,6.273,5.76-4.463,9.48-10.373,12.28-16.89,3.32-7.766,5.784-15.689,3.984-24.258-1.766-8.457-5.965-11.886-13.053-13.19-3.761-.695-7.143.582-10.6,1.745a10.022,10.022,0,0,0-7.081,8c-1.6,7.892-3.169,15.791-4.583,23.721C140.179,137.411,139.82,141.531,139.289,145.621Z" transform="translate(94.456 78.337)" fill="#e97b7b" fill-rule="evenodd"/>
    <path id="Path_3846" data-name="Path 3846" d="M154.46,93.031c4.709.424,9.419.818,14.124,1.283,2.03.2,3.063,1.369,2.663,3.162-.862,3.888-1.684,7.8-2.889,11.606-.78,2.495-3.053,3.991-5.787,4.466a4.092,4.092,0,0,1-2.851-1,12.082,12.082,0,0,1-2.553-3.221c-5.021-8.785-12.276-10.291-20.9-9.494a26.8,26.8,0,0,0-14.713,6.277,15.117,15.117,0,0,0-2.82,3.06c-2.036,2.94-1.629,6.1,1.52,8.005a53.453,53.453,0,0,0,9.877,4.6c6.222,2.184,12.66,3.85,18.844,6.1a39.179,39.179,0,0,1,8.724,4.713c3.638,2.512,4.466,6.143,3.607,10.178-1.29,6.051-5.158,10.548-10.172,14.292-9.028,6.746-19.381,10.949-30.6,13.529a126.811,126.811,0,0,1-34.372,3.525c-3.792-.175-7.55-.917-11.318-1.437a2.39,2.39,0,0,1-2.091-1.985,22.546,22.546,0,0,1,.257-13.262,9.286,9.286,0,0,1,1.841-3.1c2.06-2.331,4.966-2.259,7,.113,1.167,1.366,2.071,2.916,3.234,4.285,6.67,7.861,17.1,10.87,27.944,8.122,5.089-1.287,10.035-2.885,13.567-6.749a20.2,20.2,0,0,0,3.1-4.661,4.415,4.415,0,0,0-1.557-5.907,25.07,25.07,0,0,0-5.8-3.135c-6.3-2.314-12.673-4.418-19.022-6.592a31.567,31.567,0,0,1-9.545-4.894c-5.462-4.343-6.814-10.113-3.717-16.151,2.495-4.86,6.551-8.488,11.171-11.6,8.946-6.017,19.094-9.467,29.793-11.654A140.3,140.3,0,0,1,154.46,93.031Z" transform="translate(41.731 93.804)" fill="#e97b7b" fill-rule="evenodd"/>
    <path id="Path_3847" data-name="Path 3847" d="M250.9,62.72c-.3-.606-1.66-.726-2.581-.958a4.689,4.689,0,0,0-1.431.034c-5.89.37-11.773.763-17.663,1.109a33.133,33.133,0,0,1-6.184.13c-8.614-1.157-17.2-1.766-25.877-.465a68.89,68.89,0,0,0-24.714,8.392,12.269,12.269,0,0,0,1.982-5.212c.4-3.813-1.5-8.772-8.012-10.538-5.89-1.6-11.619-.88-17.328.674-11.739,3.193-21.507,9.586-30.155,17.431a101.649,101.649,0,0,0-31.73,55.2,8.4,8.4,0,0,1-3.337,5.24c-2.036,1.537-4.056,3.1-6.075,4.665-2.272,1.759-4.528,3.529-6.794,5.291-1.184.921-1.075,2.026-.551,3.2.517,1.136,1.39,1.14,2.55.924,2.656-.5,5.353-.8,8.022-1.27,1.461-.246,2.091.363,2.074,1.615a19.155,19.155,0,0,1-.359,3.361c-3.453,18.2-6.451,33.14-9.744,51.361-1.212,6.688-5.158,22.715-12.016,24.994a5.939,5.939,0,0,0-1.479.637,31.992,31.992,0,0,0-3.95,2.919c-1.266,1.212-1.239,2.581.5,3.049,1.126.3,2.847-.294,3.987-.448,4.679-.637,11.325-2.355,14.3-2.995s17.29-2.974,21.2-3.751c4.22-.835,9.189-2.006,12.081-2.567s11.3-1.776,11.089-3.494-1.968-2.334-3.611-2.663c-1.537-.3-4.059-.719-7.6-1.215S94.017,211.1,95.006,204.9c0,0,6.342-34.139,7.471-40.2,1.2-6.465,2.286-12.533,3.464-18.683.387-2.036,3.19-3.4,6.3-4.008,6.694-1.078,13.6-2.382,20.062-3.659,1.954-.171,4.5-2.053,4.706-3.515a72.78,72.78,0,0,0,.171-8.1c-.219-2.348-.332-3.4-2.553-2.516s-15.1,2.827-21.079,3.522c-1.968.226-4.377.808-4.032-1.081.558-3.077.842-4.757,1.458-7.831,2.43-10.575,3.59-19.884,6.715-28.6,3.874-10.8,7.362-13.71,11.4-17.776s11.818-5.856,17.5-1.54a29.549,29.549,0,0,1,3.224,2.827c1.656,1.7,3.207,3.487,4.819,5.23a5.373,5.373,0,0,0,5.462,1.6A30.165,30.165,0,0,0,153.434,91.4c-2.057,5.976-1.951,11.715,2.488,16.743a19.859,19.859,0,0,0,8.07,5.24c1.342.507,1.506,1.294.373,2.153a45.1,45.1,0,0,1-4.723,3.244c-4.877,2.813-9.84,5.469-14.686,8.323-1.126.661-2.5,1.749-2.752,2.865a16.7,16.7,0,0,0-.219,6.588c.777,4.162,3.922,6.246,7.731,7.42,1.858.572,3.765.982,6.188,1.6-.948.661-1.461,1.092-2.036,1.413-4.856,2.721-9.826,5.284-14.576,8.183a29.719,29.719,0,0,0-7.04,5.613c-5.688,6.554-4.237,15.271,3.159,19.819a26.558,26.558,0,0,0,6.263,2.67c8.145,2.457,16.438,1.9,24.642.558a97.446,97.446,0,0,0,47.678-22.058c5.661-4.767,10.428-10.305,13.118-17.369a16.134,16.134,0,0,0,.65-10.9c-1.882-5.938-6.417-8.717-12.2-9.5a51.621,51.621,0,0,0-9.84-.065c-6.578.383-13.146.958-19.71,1.461-4.453.349-8.9.722-13.351,1.054a7.3,7.3,0,0,1-6.006-2.392c-1-1.04-1.557-2.468-.739-3.638,1.971-2.8,4.285-5.264,8.108-5.452a84.863,84.863,0,0,0,17.513-2.214c10.086-2.646,19.515-6.636,27.205-13.905,7.1-6.708,11.588-14.723,11.476-24.82-.017-1.482.927-2.019,2.252-2.129,3.761-.308,7.523-.6,11.277-.962a3.3,3.3,0,0,0,1.862-.708,51.969,51.969,0,0,0,4.576-4.856C250.738,64.687,251.214,63.349,250.9,62.72Zm-82.29,82.358c7.526-.969,15.1-1.591,21.959-2.3,3.44.346,6.178.38,8.809.931,6.047,1.27,8.4,5.336,6.626,11.253-1.965,6.551-6.544,10.962-12.307,14.22-5.616,3.176-11.811,4.679-18.166,5.469-5.4.671-10.832.835-16.133-.671-4.408-1.253-8.012-3.553-9.145-8.375a11.675,11.675,0,0,1,1.427-8.6C155.433,150.379,160.95,146.06,168.606,145.078Zm29.8-41.586a14.792,14.792,0,0,1-11.137,5.431,9.044,9.044,0,0,1-9.093-5.763,43.556,43.556,0,0,1-1.927-7.088c.7-10.107,3.7-17.893,10.295-24.067a15.906,15.906,0,0,1,9.46-4.538c6.068-.554,10.942,3.84,11.5,10C208.409,87.532,204.713,96.041,198.408,103.491Z" transform="translate(0 0)" fill="#e97b7b" fill-rule="evenodd"/>
  </g>
</svg>
