<svg xmlns="http://www.w3.org/2000/svg" width="17.023" height="33.47" viewBox="0 0 17.023 33.47">
  <g id="Group_428" data-name="Group 428" transform="translate(542.769 -2717.24) rotate(90)">
    <path id="Rectangle_529" data-name="Rectangle 529" d="M8.511,0H24.959A8.511,8.511,0,0,1,33.47,8.511v0a8.511,8.511,0,0,1-8.511,8.511H8.511A8.511,8.511,0,0,1,0,8.511v0A8.511,8.511,0,0,1,8.511,0Z" transform="translate(2717.24 525.746)" fill="#e97b7b"/>
    <g id="Group_428-2" data-name="Group 428" transform="translate(2719.961 528.081)">
      <circle id="Ellipse_18" data-name="Ellipse 18" cx="6.176" cy="6.176" r="6.176" transform="translate(0 0)" fill="#fff"/>
    </g>
    <g id="Group_429" data-name="Group 429" transform="translate(2737.466 537.219) rotate(-90)">
      <path id="Path_3908" data-name="Path 3908" d="M5.545,7.9a4.088,4.088,0,0,1-.731.169l.08-.011a4.141,4.141,0,0,1-1.084,0l.08.011a4.066,4.066,0,0,1-1.031-.28l.072.03a4.084,4.084,0,0,1-.9-.526l.061.047a4.11,4.11,0,0,1-.734-.734L1.4,6.67a4.1,4.1,0,0,1-.526-.9l.031.072A4.07,4.07,0,0,1,.627,4.81l.011.08a4.125,4.125,0,0,1,0-1.08l-.011.08A4.068,4.068,0,0,1,.907,2.859l-.031.072a4.1,4.1,0,0,1,.526-.9l-.047.061a4.11,4.11,0,0,1,.734-.733L2.029,1.4a4.084,4.084,0,0,1,.9-.526l-.072.03A4.068,4.068,0,0,1,3.89.627L3.81.638a4.139,4.139,0,0,1,1.084,0L4.813.628A4.088,4.088,0,0,1,5.545.8V.216A4.348,4.348,0,0,0,2.659,5.321,4.354,4.354,0,0,0,5.31,8.4q.116.047.235.086a.3.3,0,0,0,.37-.21A.308.308,0,0,0,5.7,7.9q-.151-.05-.3-.112l.072.03a4.087,4.087,0,0,1-.9-.524l.061.047A4.123,4.123,0,0,1,3.9,6.606l.047.061a4.1,4.1,0,0,1-.524-.9l.031.072a4.061,4.061,0,0,1-.28-1.027c0,.027.007.053.011.08a4.132,4.132,0,0,1,0-1.087l-.011.08a4.06,4.06,0,0,1,.28-1.027l-.031.072a4.1,4.1,0,0,1,.524-.9L3.9,2.094a4.123,4.123,0,0,1,.739-.739L4.581,1.4a4.087,4.087,0,0,1,.9-.524l-.072.03Q5.554.847,5.7.8a.308.308,0,0,0,.221-.29A.313.313,0,0,0,5.7.216,4.288,4.288,0,0,0,3.843.032a4.464,4.464,0,0,0-.778.162,4.489,4.489,0,0,0-.724.3A4.349,4.349,0,0,0,.362,2.617a4.412,4.412,0,0,0-.249.748,4.511,4.511,0,0,0-.108.8A4.315,4.315,0,0,0,.212,5.692,4.279,4.279,0,0,0,.947,7.056,4.329,4.329,0,0,0,3.424,8.6a4.455,4.455,0,0,0,1.82.006,4.058,4.058,0,0,0,.46-.123.319.319,0,0,0,.18-.138.3.3,0,0,0-.34-.442Z" fill="#fff"/>
    </g>
  </g>
</svg>
