<?xml version="1.0" encoding="utf-8"?>
<!-- Generator: Adobe Illustrator 24.3.0, SVG Export Plug-In . SVG Version: 6.00 Build 0)  -->
<svg version="1.1" id="Layer_1" xmlns="http://www.w3.org/2000/svg" xmlns:xlink="http://www.w3.org/1999/xlink" x="0px" y="0px"
	 viewBox="0 0 375 812" style="enable-background:new 0 0 375 812;" xml:space="preserve">
<style type="text/css">
	.st0{opacity:0.3;}
	.st1{fill:#FFFFFF;}
</style>
<g id="Group_266_1_" transform="translate(0 100)" class="st0">
	<g id="Group_129_1_" transform="translate(256.93 243.862)">
		<path id="Path_3438_1_" class="st1" d="M-1202.81,284.7c14.37,0,28.73-0.67,43.09-2c33.53-3.12,66.61-9.89,98.66-20.2
			c15.66-5.1,31.03-11.05,46.04-17.82c13.58-6.07,28.08-13.2,44.31-21.81c7.1-3.76,14.29-7.65,21.24-11.41
			c21.06-11.38,42.83-23.14,65.04-33.1c33.57-15.05,64.53-23.77,94.64-26.67c17.8-1.63,35.71-1.78,53.54-0.46
			c16.11,1.09,33.51,3.24,53.2,6.56c20.09,3.39,40.4,7.63,60.04,11.73c21.9,4.57,44.55,9.31,66.98,12.87
			c25.15,3.99,47.36,6.06,67.88,6.31c1.49,0.02,2.99,0.03,4.47,0.03c28.88,0,55.45-3.49,79.06-10.38
			c13.44-3.87,26.43-9.16,38.76-15.78c12.44-6.72,23.96-15.02,34.27-24.69c7.33-6.91,14.17-14.69,20.79-22.2
			c12.01-13.66,24.44-27.79,40.36-37.35c32.76-19.68,69.81-8.41,88.98,0.07c21.33,9.43,40.18,23.7,58.41,37.51
			c7.74,5.86,15.74,11.92,23.81,17.51c11.37,7.95,23.46,14.81,36.12,20.48c12.68,5.63,25.97,9.76,39.61,12.29
			c12.66,2.3,25.51,3.34,38.37,3.12c25.82-0.45,51.32-5.74,75.18-15.6c11.89-4.91,23.27-10.96,33.99-18.07
			c10.8-7.2,20.79-15.55,29.79-24.9c8.97-9.37,17.03-19.58,24.05-30.49c3.06-4.72,6.08-9.66,9.01-14.44
			c11.15-18.21,22.67-37.04,39.71-50.32c23.05-17.97,55.07-20.19,79.67-5.51c24.31,14.51,37.57,45.33,31.52,73.3l0.1,0.02
			c1.49-6.96,1.85-14.12,1.07-21.19c-0.76-7.06-2.57-13.96-5.37-20.48c-2.78-6.52-6.53-12.59-11.11-18
			c-4.6-5.43-10.06-10.07-16.16-13.73c-12.27-7.31-26.5-10.64-40.74-9.55c-14.22,1.05-27.81,6.29-39.05,15.06
			c-17.05,13.3-28.58,32.13-39.73,50.35c-2.93,4.78-5.95,9.72-9.01,14.44c-7.02,10.9-15.07,21.11-24.04,30.47
			c-8.99,9.35-18.97,17.69-29.77,24.89c-10.71,7.1-22.09,13.15-33.97,18.06c-23.85,9.86-49.34,15.15-75.14,15.59
			c-12.85,0.22-25.7-0.83-38.35-3.12c-25.99-4.75-50.75-15.46-75.69-32.75c-8.07-5.6-16.07-11.65-23.81-17.51
			C-141.2,102-160.06,87.73-181.4,78.29c-7.1-3.16-14.46-5.71-21.99-7.63c-7.47-1.91-15.11-3.02-22.81-3.33
			c-16.4-0.56-31.3,3.1-44.27,10.9c-15.94,9.58-28.37,23.71-40.39,37.38c-6.61,7.52-13.45,15.29-20.78,22.2
			c-19.53,18.4-44.08,32.01-72.99,40.44c-24.82,7.24-52.91,10.73-83.5,10.35c-20.52-0.25-42.72-2.32-67.87-6.31
			c-22.42-3.56-45.07-8.29-66.98-12.87c-19.64-4.1-39.95-8.34-60.04-11.73c-19.69-3.32-37.09-5.46-53.21-6.56
			c-17.83-1.32-35.75-1.16-53.56,0.46c-30.13,2.9-61.1,11.62-94.68,26.68c-22.22,9.96-43.99,21.73-65.05,33.1
			c-6.95,3.76-14.14,7.64-21.24,11.4c-16.23,8.6-30.72,15.73-44.3,21.8c-15.01,6.77-30.37,12.72-46.03,17.82
			c-45.87,14.71-93.75,22.19-141.92,22.18c-19.19,0.01-38.35-1.19-57.39-3.59c-16.02-2.02-31.92-4.91-47.62-8.64l-0.03,0.1
			c15.71,3.73,31.61,6.62,47.63,8.64C-1241.31,283.49-1222.07,284.7-1202.81,284.7z"/>
	</g>
	<g id="Group_130_1_" transform="translate(246.231 234.847)">
		<path id="Path_3439_1_" class="st1" d="M-1202.12,275.2c24.66,0.01,49.29-1.73,73.71-5.21c23.19-3.29,46.12-8.21,68.62-14.73
			c19.75-5.83,39.11-12.89,57.98-21.13c10.31-4.44,21.1-9.39,32.97-15.14c8.37-4.06,16.81-8.34,24.98-12.48
			c20-10.14,40.67-20.61,62.1-28.77c11.1-4.23,22.87-7.81,34.25-11.28c2.57-0.78,5.23-1.59,7.84-2.4c13-4,24.72-7.57,36.5-10.69
			c6.17-1.66,11.85-3.07,17.34-4.31c3.04-0.69,5.87-1.29,8.66-1.83c2.75-0.54,4.99-0.95,7.07-1.29c10.81-1.9,21.77-2.86,32.74-2.85
			c10.53,0.08,21.55,1.29,35.73,3.93c6.82,1.27,13.56,2.76,19.25,4.04c3.5,0.79,7.04,1.67,10.46,2.52c3.56,0.89,7.24,1.8,10.89,2.62
			c11.99,2.69,24.19,5.53,35.98,8.27c32.7,7.6,66.52,15.47,100.03,21.17c18.95,3.34,38.08,5.48,57.3,6.42
			c5.34,0.23,10.61,0.35,15.8,0.35c23.1,0,44.66-2.32,64.28-6.94c13.8-3.18,27.22-7.83,40.03-13.85
			c12.79-6.05,24.73-13.76,35.5-22.94c7.37-6.3,14.27-13.43,20.94-20.33c4.91-5.08,9.99-10.33,15.23-15.22
			c8.95-8.36,16.98-14.34,25.27-18.84c7.61-4.11,15.87-6.9,24.41-8.23c9.36-1.43,18.89-1.47,28.26-0.1c9.59,1.38,19,3.79,28.08,7.18
			c2.71,0.99,5.45,2.09,8.16,3.25c15.76,6.76,30.18,15.85,42.2,23.84c5.14,3.42,10.27,6.93,15.23,10.33
			c8.3,5.69,16.88,11.56,25.4,16.9c24.58,15.31,48.47,24.39,73.03,27.77c10.05,1.36,20.19,1.9,30.32,1.6
			c19.31-0.57,38.43-4.03,56.71-10.26c18.5-6.26,35.91-15.37,51.59-27.01c19.12-14.23,35.65-33.06,50.55-57.57
			c2.13-3.51,4.24-7.1,6.57-11.08l0.39-0.66c11.61-19.75,23.61-40.17,42.03-54.43c1.55-1.2,3.17-2.36,4.81-3.43
			c11.52-7.56,24.91-11.75,38.68-12.1c13.2-0.35,26.24,2.98,37.66,9.61c24.77,14.47,38.46,45.21,32.54,73.09l0.14,0.03
			c1.46-6.98,1.78-14.15,0.92-21.23c-1.71-14.21-7.66-27.58-17.07-38.37c-4.71-5.41-10.27-10.02-16.46-13.65
			c-11.44-6.65-24.5-9.98-37.73-9.63c-13.8,0.35-27.22,4.55-38.76,12.13c-1.65,1.08-3.27,2.24-4.82,3.44
			c-18.44,14.28-30.44,34.71-42.06,54.47l-0.39,0.66c-2.33,3.98-4.44,7.56-6.57,11.08c-14.89,24.49-31.41,43.31-50.51,57.53
			c-30.73,22.87-69.16,36.1-108.22,37.24c-10.13,0.3-20.26-0.24-30.3-1.6c-24.54-3.38-48.42-12.46-72.98-27.75
			c-8.52-5.34-17.1-11.21-25.4-16.9c-4.96-3.4-10.09-6.91-15.23-10.33c-12.03-8-26.46-17.09-42.23-23.85
			c-2.71-1.16-5.46-2.26-8.17-3.25c-9.09-3.39-18.51-5.8-28.11-7.18c-9.39-1.37-18.92-1.34-28.3,0.1
			c-8.56,1.34-16.84,4.13-24.46,8.25c-8.31,4.5-16.35,10.49-25.3,18.86c-5.24,4.89-10.32,10.14-15.24,15.22
			c-6.67,6.89-13.56,14.02-20.93,20.32c-20.24,17.37-45.63,29.74-75.48,36.76c-24.02,5.65-50.95,7.86-80.05,6.58
			c-19.21-0.94-38.34-3.08-57.29-6.42c-33.51-5.7-67.32-13.57-100.02-21.17c-11.8-2.74-23.99-5.58-35.99-8.27
			c-3.64-0.82-7.32-1.73-10.88-2.61c-3.42-0.85-6.97-1.73-10.46-2.52c-5.7-1.29-12.44-2.77-19.26-4.04
			c-14.19-2.64-25.22-3.85-35.76-3.93c-10.98,0-21.95,0.95-32.77,2.86c-2.08,0.34-4.32,0.75-7.07,1.29
			c-2.79,0.55-5.62,1.15-8.66,1.84c-5.5,1.24-11.17,2.65-17.35,4.31c-11.78,3.12-23.5,6.69-36.51,10.69
			c-2.61,0.81-5.27,1.62-7.84,2.4c-11.38,3.47-23.15,7.06-34.26,11.28c-21.43,8.15-42.11,18.64-62.11,28.77
			c-8.17,4.14-16.61,8.42-24.98,12.47c-11.87,5.75-22.66,10.7-32.96,15.14c-18.86,8.24-38.22,15.29-57.97,21.12
			c-22.49,6.51-45.42,11.43-68.6,14.72c-40.87,5.8-82.28,6.77-123.38,2.87c-2.8-0.26-5.63-0.55-8.41-0.86
			c-16.12-1.77-32.21-4.3-47.8-7.51l-0.03,0.14c15.6,3.21,31.68,5.74,47.81,7.51c2.78,0.31,5.61,0.6,8.42,0.86
			C-1235.27,274.43-1218.7,275.2-1202.12,275.2z"/>
	</g>
	<g id="Group_131_1_" transform="translate(235.533 225.829)">
		<path id="Path_3440_1_" class="st1" d="M-1201.41,265.7c24.7,0.02,49.39-1.51,73.9-4.56c23.25-2.88,46.29-7.25,68.98-13.1
			c19.81-5.21,39.28-11.59,58.33-19.1c10.43-4.06,21.3-8.57,33.22-13.82c8.95-3.94,17.97-8.19,26.7-12.3
			c19.64-9.25,39.95-18.82,61.17-25.68c8.41-2.72,17.31-5.01,25.92-7.23c6.86-1.77,13.96-3.6,20.92-5.66
			c11.38-3.36,22.57-7.04,33.4-10.6c2.19-0.72,4.37-1.44,6.54-2.15l1.53-0.5c5.86-1.92,11.4-3.73,17.03-5.47
			c3.39-1.06,6.4-1.96,9.2-2.75c2.36-0.67,4.91-1.38,7.52-2.02c13.85-3.42,24.83-4.97,35.59-5.02h0.45c14.4,0,28.16,3.07,38.57,5.76
			c7.17,1.85,14.3,4.01,20.59,5.91c3.15,0.95,6.33,2.01,9.4,3.02c4.38,1.45,8.9,2.95,13.43,4.19
			c36.82,10.11,85.44,22.97,134.92,32.77c18.76,3.83,37.73,6.52,56.82,8.06c28.77,2.19,55.5,0.98,79.43-3.61
			c29.6-5.68,54.92-16.56,75.27-32.32c7.4-5.7,14.36-12.18,21.09-18.45c4.95-4.61,10.07-9.38,15.33-13.81
			c8.99-7.57,17.03-12.96,25.31-16.95c7.67-3.68,15.88-6.07,24.33-7.08c16.86-2.12,35.81,0.58,56.31,8c2.72,0.98,5.48,2.06,8.21,3.2
			c15.72,6.55,30.26,15.11,42.66,22.62c4.14,2.51,8.27,5.05,12.27,7.52c9.8,6.04,19.06,11.75,28.53,16.99
			c10.93,6.15,22.41,11.26,34.3,15.26c11.67,3.91,23.77,6.43,36.03,7.51c9.51,0.8,19.06,0.82,28.57,0.07
			c18.23-1.44,36.15-5.61,53.14-12.36c17.42-6.89,33.62-16.51,48-28.51c9.56-8.08,18.21-17.18,25.8-27.14
			c7.91-10.35,15.09-21.25,21.46-32.61c1.59-2.79,3.2-5.68,4.76-8.48c0.54-0.97,1.08-1.93,1.62-2.91
			c12.59-22.37,24.51-42.05,42.86-56.18c1.58-1.22,3.23-2.39,4.91-3.48c11.73-7.68,25.35-11.96,39.35-12.38
			c13.42-0.41,26.7,2.89,38.38,9.52c6.26,3.59,11.9,8.16,16.71,13.53c4.78,5.31,8.73,11.31,11.72,17.8
			c2.99,6.44,4.98,13.31,5.9,20.35c0.93,7.06,0.67,14.23-0.77,21.21l0.17,0.04c1.44-7,1.7-14.18,0.77-21.27
			c-0.92-7.06-2.91-13.95-5.91-20.41c-3-6.5-6.96-12.52-11.75-17.84c-4.83-5.38-10.48-9.96-16.76-13.57
			c-11.71-6.65-25.02-9.95-38.47-9.54c-14.04,0.42-27.69,4.72-39.45,12.41c-1.68,1.09-3.33,2.27-4.92,3.49
			c-8.61,6.63-16.56,15.13-24.31,25.98c-6.86,9.61-12.72,19.8-18.6,30.26c-0.54,0.97-1.08,1.94-1.62,2.91
			c-1.56,2.79-3.17,5.68-4.76,8.48c-15.03,26.35-30.03,45.32-47.22,59.7c-14.36,11.99-30.55,21.6-47.95,28.48
			c-16.98,6.75-34.88,10.91-53.09,12.35c-9.5,0.75-19.04,0.73-28.54-0.07c-23.35-2.04-46.33-9.48-70.26-22.75
			c-9.46-5.24-18.72-10.95-28.52-16.99c-3.99-2.46-8.12-5.01-12.27-7.52c-12.4-7.51-26.95-16.08-42.68-22.63
			c-2.73-1.14-5.5-2.22-8.22-3.2c-20.53-7.44-39.51-10.13-56.4-8.01c-8.46,1.01-16.7,3.41-24.38,7.1c-8.29,4-16.35,9.4-25.35,16.98
			c-5.27,4.43-10.39,9.2-15.34,13.81c-6.72,6.27-13.68,12.74-21.08,18.44c-20.32,15.75-45.62,26.61-75.19,32.29
			c-23.91,4.59-50.62,5.8-79.38,3.61c-19.08-1.54-38.04-4.23-56.79-8.05c-49.48-9.8-98.09-22.66-134.91-32.76
			c-4.52-1.24-9.04-2.74-13.42-4.19c-3.08-1.02-6.26-2.07-9.4-3.03c-6.3-1.91-13.43-4.06-20.6-5.91
			c-10.53-2.72-24.48-5.83-39.06-5.76c-10.77,0.05-21.76,1.6-35.63,5.02c-2.62,0.65-5.17,1.35-7.53,2.02
			c-2.8,0.79-5.81,1.69-9.2,2.75c-5.63,1.74-11.17,3.55-17.03,5.47l-1.53,0.5c-2.17,0.71-4.35,1.43-6.54,2.15
			c-10.83,3.56-22.02,7.24-33.39,10.6c-6.95,2.06-14.05,3.89-20.91,5.66c-8.61,2.22-17.52,4.51-25.93,7.23
			c-21.23,6.86-41.54,16.43-61.19,25.68c-8.72,4.11-17.74,8.36-26.7,12.3c-11.92,5.24-22.79,9.76-33.22,13.81
			c-19.04,7.51-38.52,13.89-58.32,19.09c-22.68,5.85-45.71,10.22-68.95,13.1c-41.16,5.09-82.74,5.93-124.07,2.53
			c-2.8-0.23-5.65-0.47-8.46-0.74c-16.22-1.52-32.36-3.67-47.97-6.38l-0.03,0.18c15.62,2.72,31.76,4.86,47.99,6.38
			c2.81,0.27,5.65,0.51,8.46,0.74C-1234.82,265.03-1218.08,265.7-1201.41,265.7z"/>
	</g>
	<g id="Group_132_1_" transform="translate(224.837 216.81)">
		<path id="Path_3441_1_" class="st1" d="M-1200.63,256.2c24.73,0.03,49.45-1.28,74.04-3.92c23.32-2.47,46.47-6.3,69.33-11.48
			c19.87-4.59,39.46-10.29,58.69-17.07c10.56-3.67,21.51-7.76,33.48-12.49c9.35-3.71,18.77-7.79,27.89-11.75
			c19.48-8.45,39.63-17.19,60.77-22.97c7.77-2.12,15.98-3.86,23.92-5.54c9.09-1.93,18.49-3.92,27.67-6.55
			c15.56-4.44,30.66-9.98,43.37-14.81c3.79-1.44,7.58-2.91,11.24-4.34c2.8-1.09,5.7-2.22,8.53-3.3c3.91-1.51,6.91-2.64,9.74-3.67
			c2.4-0.86,5.19-1.86,7.98-2.76c10.12-3.23,23.63-6.97,38.43-7.18c15.78-0.22,30.24,3.7,42.3,7.58c6.9,2.21,13.74,4.75,20.36,7.2
			l1.57,0.58c3.13,1.16,6.29,2.44,9.34,3.67c4.86,1.96,9.89,4,14.97,5.62c41.04,13.14,86.06,25.28,133.82,36.09
			c18.57,4.31,37.38,7.55,56.33,9.69c28.43,3.1,54.93,2.89,78.76-0.63c29.19-4.32,54.42-13.69,75-27.85
			c7.4-5.09,14.39-10.89,21.15-16.51c5.02-4.17,10.2-8.47,15.52-12.46c7.8-6.04,16.32-11.1,25.35-15.06
			c7.72-3.23,15.9-5.23,24.24-5.93c16.6-1.49,35.53,1.51,56.29,8.93c2.73,0.97,5.51,2.03,8.27,3.15c15.6,6.3,30.22,14.32,43.12,21.4
			c2.28,1.25,4.53,2.49,6.77,3.72c11.84,6.52,23.03,12.68,34.18,18.06c10.71,5.26,21.89,9.49,33.39,12.65
			c11.17,3.04,22.67,4.76,34.24,5.12c8.96,0.23,17.93-0.26,26.81-1.46c17.15-2.33,33.86-7.2,49.57-14.47
			c16.32-7.54,31.32-17.67,44.4-30c8.91-8.56,16.9-18.04,23.82-28.28c7.36-10.83,14.09-22.07,20.16-33.66
			c0.88-1.65,1.76-3.32,2.65-4.99c1.16-2.19,2.36-4.45,3.56-6.69c11.19-20.76,23.74-42.29,43.32-57.28c1.61-1.24,3.29-2.42,5-3.53
			c11.94-7.79,25.78-12.17,40.02-12.66c13.65-0.46,27.17,2.8,39.11,9.43c12.63,7.18,22.76,18.05,29.04,31.15
			c3.09,6.41,5.17,13.26,6.16,20.31c1,7.06,0.79,14.24-0.62,21.23l0.21,0.04c1.42-7.01,1.63-14.22,0.62-21.3
			c-1-7.07-3.08-13.94-6.18-20.37c-3.11-6.49-7.18-12.48-12.07-17.76c-4.94-5.36-10.7-9.91-17.05-13.48
			c-11.97-6.65-25.53-9.92-39.22-9.45c-7.09,0.24-14.12,1.45-20.88,3.6c-6.8,2.15-13.27,5.21-19.25,9.1
			c-1.71,1.11-3.4,2.3-5.01,3.54c-19.61,15.02-32.18,36.56-43.38,57.35c-1.2,2.24-2.4,4.51-3.56,6.7c-0.89,1.67-1.77,3.34-2.65,4.99
			c-6.07,11.59-12.8,22.82-20.15,33.64c-6.91,10.22-14.89,19.68-23.79,28.22c-13.07,12.32-28.04,22.44-44.35,29.96
			c-15.69,7.26-32.38,12.13-49.51,14.45c-8.87,1.2-17.83,1.69-26.78,1.46c-11.56-0.36-23.03-2.08-34.19-5.12
			c-11.49-3.15-22.66-7.38-33.36-12.63c-11.15-5.38-22.33-11.54-34.17-18.06c-2.24-1.23-4.49-2.47-6.77-3.72
			c-12.9-7.08-27.53-15.1-43.14-21.41c-2.76-1.11-5.54-2.17-8.27-3.15c-20.78-7.43-39.75-10.43-56.38-8.94
			c-8.36,0.7-16.56,2.71-24.3,5.95c-9.05,3.97-17.58,9.04-25.4,15.09c-5.32,3.99-10.51,8.3-15.53,12.46
			c-6.76,5.61-13.75,11.41-21.14,16.5c-20.54,14.14-45.75,23.5-74.91,27.81c-23.81,3.52-50.29,3.73-78.71,0.63
			c-18.94-2.14-37.74-5.37-56.3-9.69c-47.75-10.81-92.77-22.95-133.8-36.08c-5.07-1.62-10.1-3.66-14.95-5.62
			c-3.05-1.23-6.21-2.51-9.35-3.67l-1.57-0.58c-6.62-2.45-13.47-4.99-20.37-7.2c-12.08-3.88-26.55-7.81-42.37-7.59
			c-14.83,0.21-28.36,3.95-38.49,7.19c-2.79,0.89-5.59,1.89-7.99,2.76c-2.83,1.02-5.84,2.16-9.74,3.67
			c-2.83,1.08-5.73,2.21-8.53,3.3c-3.66,1.42-7.45,2.9-11.24,4.34c-12.71,4.83-27.8,10.36-43.36,14.8
			c-9.17,2.63-18.57,4.62-27.65,6.54c-7.95,1.68-16.16,3.42-23.94,5.55c-21.15,5.78-41.3,14.52-60.79,22.98
			c-9.11,3.95-18.53,8.04-27.88,11.74c-11.97,4.73-22.92,8.81-33.47,12.48c-19.22,6.78-38.81,12.47-58.66,17.06
			c-22.86,5.18-46,9.01-69.31,11.48c-24.58,2.64-49.29,3.94-74.02,3.92c-16.74,0-33.66-0.58-50.74-1.73
			c-2.82-0.19-5.68-0.4-8.5-0.62c-16.31-1.26-32.51-3.03-48.15-5.25l-0.03,0.21c15.65,2.22,31.85,3.99,48.16,5.26
			c2.82,0.22,5.68,0.43,8.5,0.62C-1234.32,255.63-1217.4,256.2-1200.63,256.2z"/>
	</g>
	<g id="Group_133_1_" transform="translate(214.141 207.788)">
		<path id="Path_3442_1_" class="st1" d="M-1199.77,246.7c25.53,0,50.31-1.09,74.08-3.27c23.39-2.06,46.65-5.35,69.69-9.86
			c19.93-3.98,39.63-9,59.04-15.04c10.69-3.28,21.73-6.94,33.73-11.16c9.69-3.42,19.45-7.28,28.9-11.02
			c19.41-7.67,39.47-15.61,60.54-20.44c7.55-1.73,15.17-3.04,23.23-4.43c10.89-1.87,22.15-3.81,33.12-6.87
			c14.06-3.9,28.93-9.26,46.81-16.87c6.17-2.62,12.21-5.35,18.07-7.99l2.93-1.32c3.09-1.4,6.68-3.03,10.28-4.58
			c2.68-1.15,5.54-2.38,8.44-3.49c6.4-2.52,12.95-4.64,19.61-6.34c7.09-1.8,14.35-2.81,21.66-3.01c8.02-0.13,16.03,0.75,23.83,2.61
			c7.4,1.77,14.67,4.03,21.75,6.79c6.92,2.61,13.76,5.56,20.37,8.41l2.9,1.25c3.21,1.38,6.43,2.89,9.54,4.35
			c5.26,2.46,10.69,5.01,16.25,7.02c45.71,16.55,92.74,29.21,132.72,39.41c18.39,4.8,37.03,8.58,55.84,11.32
			c28.09,4,54.36,4.79,78.1,2.34c28.87-2.98,54.01-10.85,74.72-23.38c7.41-4.48,14.46-9.63,21.27-14.61
			c5.07-3.7,10.3-7.53,15.66-11.06c7.92-5.38,16.44-9.81,25.4-13.18c7.77-2.79,15.91-4.4,24.15-4.78
			c9.37-0.41,18.77,0.29,27.97,2.09c9.61,1.86,19.07,4.45,28.29,7.76c2.73,0.96,5.53,2.01,8.32,3.1
			c13.49,5.28,26.16,11.55,38.4,17.61c1.73,0.86,3.46,1.71,5.18,2.56c14.74,7.26,28.01,13.71,41.11,19.06
			c21.35,8.72,40.58,12.85,60.08,12.85c1.61,0,3.23-0.03,4.85-0.08c8.42-0.32,16.8-1.32,25.06-2.99
			c16.07-3.23,31.58-8.82,46.01-16.6c15.22-8.21,29-18.84,40.8-31.48c8.25-9.04,15.57-18.89,21.83-29.4
			c7.12-11.62,13.53-24.06,18.85-34.7l0.58-1.17c1.76-3.53,3.58-7.19,5.44-10.82c11.04-21.41,23.99-43.3,43.77-58.37
			c1.64-1.25,3.35-2.46,5.09-3.58c12.15-7.91,26.21-12.38,40.69-12.94c13.87-0.52,27.63,2.71,39.83,9.34
			c12.78,7.09,23.12,17.89,29.64,30.97c3.19,6.37,5.36,13.21,6.43,20.26c1.08,7.06,0.92,14.25-0.47,21.25l0.24,0.05
			c1.39-7.03,1.55-14.25,0.47-21.34c-1.07-7.07-3.25-13.93-6.45-20.33c-3.23-6.48-7.4-12.44-12.39-17.68
			c-5.06-5.33-10.91-9.85-17.35-13.4c-12.24-6.65-26.04-9.89-39.96-9.37c-7.22,0.27-14.37,1.53-21.26,3.73
			c-6.9,2.2-13.48,5.31-19.56,9.25c-1.74,1.13-3.46,2.34-5.11,3.59c-9.14,6.96-17.42,15.78-25.3,26.95
			c-6.9,10.06-13.09,20.59-18.54,31.51c-1.86,3.64-3.68,7.29-5.44,10.82l-0.58,1.17c-5.33,10.63-11.73,23.07-18.84,34.69
			c-6.26,10.5-13.56,20.34-21.8,29.36c-23.15,24.69-53.47,41.49-86.68,48.01c-8.25,1.67-16.61,2.67-25.02,2.99
			c-21.15,0.73-41.75-3.32-64.83-12.75c-13.1-5.35-26.36-11.8-41.1-19.06c-1.72-0.85-3.44-1.7-5.18-2.56
			c-12.25-6.06-24.92-12.33-38.42-17.62c-2.79-1.09-5.59-2.13-8.33-3.1c-9.23-3.31-18.7-5.91-28.33-7.77
			c-9.23-1.81-18.64-2.51-28.03-2.1c-8.27,0.39-16.43,2.01-24.22,4.8c-8.97,3.38-17.52,7.82-25.45,13.21
			c-5.36,3.53-10.6,7.36-15.67,11.07c-6.81,4.98-13.84,10.12-21.25,14.6c-20.68,12.51-45.79,20.36-74.62,23.34
			c-23.71,2.44-49.97,1.65-78.04-2.34c-18.8-2.74-37.43-6.52-55.81-11.32c-39.97-10.2-87-22.86-132.7-39.41
			c-5.55-2.01-10.98-4.55-16.23-7.02c-3.12-1.46-6.34-2.97-9.55-4.35l-2.9-1.25c-6.61-2.85-13.45-5.8-20.38-8.41
			c-7.1-2.76-14.38-5.03-21.79-6.8c-7.82-1.87-15.85-2.75-23.89-2.62c-7.33,0.2-14.61,1.21-21.72,3.01
			c-6.67,1.7-13.23,3.82-19.64,6.35c-2.9,1.11-5.76,2.34-8.45,3.49c-3.6,1.55-7.2,3.18-10.29,4.58l-2.93,1.33
			c-5.85,2.64-11.9,5.36-18.06,7.98c-17.86,7.6-32.73,12.96-46.78,16.86c-10.96,3.05-22.21,4.99-33.09,6.86
			c-8.07,1.39-15.68,2.7-23.24,4.43c-21.09,4.84-41.16,12.77-60.58,20.45c-9.44,3.73-19.2,7.59-28.89,11.01
			c-12,4.22-23.03,7.87-33.72,11.16c-19.4,6.04-39.09,11.06-59.02,15.03c-23.03,4.5-46.28,7.79-69.66,9.85
			c-41.72,3.65-83.64,4.26-125.45,1.84c-2.84-0.15-5.72-0.32-8.54-0.5c-16.37-1.01-32.63-2.4-48.32-4.13l-0.03,0.25
			c15.7,1.73,31.96,3.12,48.34,4.13c2.83,0.18,5.7,0.34,8.54,0.5C-1233.76,246.22-1216.62,246.7-1199.77,246.7z"/>
	</g>
	<g id="Group_134_1_" transform="translate(203.447 198.767)">
		<path id="Path_3443_1_" class="st1" d="M-1198.74,237.19c25.95,0,50.69-0.87,73.96-2.61c24.58-1.8,48.15-4.57,70.04-8.23
			c19.22-3.2,38.65-7.45,59.39-13.01c10.84-2.9,21.96-6.11,33.98-9.83c10.01-3.11,20.1-6.7,29.86-10.18
			c19.36-6.89,39.38-14.02,60.37-18.01c7.47-1.42,14.97-2.45,22.92-3.55c12.56-1.73,25.55-3.52,38.19-6.95
			c15.67-4.23,31.63-10.25,50.25-18.93c7.5-3.5,14.78-7.19,22.21-10.97l0.13-0.06c3.5-1.8,7.12-3.66,10.7-5.43
			c2.84-1.4,5.86-2.88,8.89-4.22c12.23-5.41,27.03-11.02,44.11-11.51c8.68-0.2,17.34,0.84,25.72,3.09
			c7.91,2.12,15.65,4.83,23.14,8.13c7.08,3.02,14.04,6.4,20.77,9.66c1.28,0.62,2.56,1.24,3.84,1.86c3.31,1.6,6.64,3.35,9.85,5.04
			c5.66,3.1,11.47,5.91,17.42,8.41c41.89,16.8,86.17,29.8,131.63,42.74c18.21,5.29,36.68,9.61,55.34,12.96
			c20.38,3.71,41.04,5.64,61.76,5.76c5.33,0,10.56-0.15,15.67-0.44c28.54-1.66,53.59-8.02,74.45-18.9
			c7.43-3.88,14.53-8.37,21.38-12.72c5.11-3.24,10.4-6.59,15.79-9.67c8.03-4.71,16.56-8.5,25.44-11.3
			c7.81-2.33,15.91-3.55,24.06-3.64c16.16-0.29,34.56,3.24,56.24,10.78c2.74,0.95,5.55,1.98,8.37,3.05
			c11.31,4.29,22.1,9.14,32.54,13.82c3.97,1.78,7.71,3.46,11.5,5.12c17.03,7.46,29.75,12.5,41.27,16.34
			c17.2,5.73,32.86,8.52,48.29,8.52c4.66,0,9.31-0.25,13.94-0.76c7.88-0.88,15.67-2.39,23.31-4.52
			c31.27-8.54,59.11-26.61,79.65-51.68c14.85-18.18,25.8-41.55,37.4-66.28c2.11-4.55,3.89-8.34,5.83-12.29
			c5.31-11.17,11.48-21.9,18.47-32.1c7.93-11.29,16.35-20.24,25.75-27.36c1.67-1.27,3.42-2.49,5.18-3.63
			c12.36-8.02,26.64-12.58,41.36-13.21c14.1-0.57,28.1,2.62,40.56,9.24c12.93,7.01,23.47,17.73,30.24,30.79
			c3.29,6.34,5.55,13.16,6.7,20.21c1.15,7.06,1.04,14.26-0.32,21.28l0.28,0.06c1.37-7.05,1.48-14.29,0.32-21.38
			c-1.15-7.08-3.42-13.93-6.73-20.29c-6.79-13.12-17.37-23.89-30.36-30.91c-12.5-6.65-26.55-9.85-40.7-9.28
			c-7.35,0.31-14.63,1.6-21.64,3.86c-7.01,2.25-13.69,5.41-19.87,9.4c-1.77,1.15-3.52,2.37-5.2,3.64
			c-9.42,7.14-17.87,16.11-25.81,27.42c-7,10.21-13.19,20.96-18.5,32.14c-1.94,3.96-3.72,7.75-5.83,12.3
			c-11.59,24.72-22.53,48.07-37.36,66.22c-20.5,25.03-48.29,43.06-79.5,51.59c-7.62,2.13-15.4,3.64-23.26,4.51
			c-20.03,2.16-39.76-0.3-62.11-7.75c-11.51-3.84-24.23-8.87-41.25-16.33c-3.78-1.66-7.53-3.34-11.5-5.12
			c-10.44-4.69-21.23-9.54-32.55-13.83c-2.82-1.07-5.64-2.09-8.38-3.05c-21.71-7.55-40.14-11.08-56.34-10.79
			c-8.18,0.08-16.3,1.31-24.14,3.65c-8.9,2.8-17.45,6.6-25.49,11.32c-5.4,3.08-10.69,6.43-15.8,9.67
			c-6.85,4.34-13.94,8.83-21.36,12.71c-20.83,10.87-45.84,17.22-74.34,18.87c-23.61,1.36-49.64-0.43-77.36-5.32
			c-18.65-3.35-37.12-7.67-55.32-12.95c-45.45-12.94-89.72-25.94-131.6-42.73c-5.94-2.5-11.74-5.31-17.39-8.4
			c-3.21-1.69-6.54-3.44-9.86-5.04c-1.28-0.62-2.56-1.24-3.84-1.86c-6.73-3.27-13.7-6.65-20.78-9.67
			c-7.51-3.3-15.26-6.03-23.18-8.15c-8.41-2.25-17.1-3.3-25.8-3.1c-17.13,0.5-31.96,6.11-44.22,11.53c-3.04,1.35-6.07,2.82-8.9,4.23
			c-3.58,1.77-7.2,3.63-10.7,5.43l-0.13,0.06c-7.42,3.79-14.71,7.47-22.2,10.97c-18.6,8.67-34.55,14.68-50.2,18.91
			c-12.62,3.43-25.6,5.21-38.15,6.94c-7.6,1.05-15.46,2.13-22.93,3.55c-21.01,4-41.04,11.13-60.41,18.02
			c-9.76,3.47-19.85,7.07-29.85,10.17c-12.03,3.72-23.14,6.93-33.97,9.83c-20.73,5.55-40.15,9.81-59.36,13
			c-21.88,3.67-45.44,6.44-70.01,8.23c-38.44,2.88-80.88,3.38-126.14,1.5c-2.85-0.12-5.74-0.24-8.59-0.38
			c-16.39-0.75-32.71-1.76-48.5-3l-0.02,0.28c15.79,1.24,32.11,2.25,48.51,3c2.85,0.13,5.73,0.26,8.59,0.38
			C-1233.09,236.82-1215.69,237.19-1198.74,237.19z"/>
	</g>
	<g id="Group_135_1_" transform="translate(192.754 189.743)">
		<path id="Path_3444_1_" class="st1" d="M-1197.04,227.7c26.34,0,50.55-0.66,73.16-1.97c25.39-1.43,48.42-3.59,70.39-6.61
			c19.47-2.65,39.01-6.24,59.74-10.98c10.99-2.5,22.19-5.28,34.24-8.5c10.33-2.78,20.76-6.08,30.85-9.27
			c19.31-6.11,39.28-12.42,60.16-15.66c7.4-1.15,15.16-1.98,22.66-2.79c14.22-1.54,28.92-3.12,43.2-6.91
			c16.91-4.47,34.47-11.33,53.68-20.99c8.27-4.15,16.15-8.53,23.43-12.64l1.57-0.89c3.2-1.82,6.52-3.71,9.8-5.52
			c3.1-1.71,6.15-3.37,9.35-4.95c12.93-6.4,28.62-13.04,46.95-13.67c9.33-0.26,18.65,0.94,27.61,3.57
			c8.43,2.46,16.63,5.63,24.53,9.48c7.3,3.44,14.45,7.26,21.36,10.95c1.53,0.82,3.06,1.63,4.59,2.45c3.44,1.83,6.88,3.81,10.21,5.73
			c5.99,3.6,12.18,6.88,18.54,9.8c40.84,17.87,84.36,31.55,126.44,44.78l4.09,1.28c19.99,6.29,37.93,11.06,54.86,14.59
			c27.4,5.78,53.22,8.57,76.76,8.3c28.2-0.34,53.16-5.19,74.18-14.43c7.46-3.28,14.59-7.12,21.5-10.83
			c5.16-2.78,10.5-5.65,15.93-8.27c8.14-4.03,16.68-7.19,25.48-9.42c7.85-1.87,15.91-2.71,23.98-2.49
			c9.36,0.27,18.66,1.46,27.79,3.55c9.63,2.17,19.12,4.9,28.43,8.16c2.74,0.94,5.57,1.95,8.42,3c9.07,3.33,17.87,6.94,26.38,10.44
			c6.28,2.58,12.2,5.01,18.12,7.29c13.54,5.34,27.37,9.89,41.43,13.62c10.04,2.66,20.32,4.28,30.69,4.84
			c9.66,0.46,19.35-0.23,28.84-2.08c7.33-1.44,14.54-3.46,21.55-6.06c29.25-10.57,54.55-29.87,72.48-55.29
			c11.5-16.22,20.19-36.32,29.39-57.6c1.53-3.54,3.11-7.2,4.71-10.85c1.74-3.99,3.62-8.28,5.64-12.6
			c5.19-11.42,11.36-22.37,18.44-32.72c7.21-10.62,16.07-20.01,26.24-27.83c1.7-1.29,3.48-2.53,5.28-3.68
			c6.26-4.03,13.02-7.23,20.1-9.51c7.1-2.3,14.48-3.64,21.93-3.97c14.33-0.64,28.57,2.51,41.28,9.15
			c13.1,6.9,23.84,17.55,30.86,30.59c3.39,6.31,5.73,13.12,6.96,20.17c1.22,7.05,1.17,14.27-0.17,21.31l0.31,0.06
			c1.35-7.07,1.41-14.33,0.17-21.42c-1.23-7.09-3.59-13.93-6.99-20.27c-3.45-6.46-7.84-12.36-13.03-17.53
			c-5.29-5.28-11.34-9.73-17.96-13.2c-12.76-6.66-27.06-9.83-41.44-9.19c-7.48,0.34-14.89,1.68-22.01,3.99
			c-7.11,2.29-13.9,5.5-20.18,9.55c-1.8,1.16-3.59,2.4-5.3,3.69c-10.2,7.84-19.08,17.26-26.31,27.91
			c-7.09,10.37-13.27,21.33-18.46,32.77c-2.03,4.32-3.91,8.61-5.65,12.6c-1.6,3.66-3.18,7.32-4.71,10.86
			c-9.19,21.27-17.88,41.35-29.36,57.55c-17.92,25.34-43.15,44.59-72.33,55.18c-6.99,2.59-14.18,4.61-21.5,6.04
			c-18.96,3.65-37.83,2.77-59.39-2.75c-14.05-3.73-27.88-8.27-41.4-13.61c-5.91-2.28-11.84-4.71-18.11-7.29
			c-8.51-3.49-17.31-7.11-26.39-10.44c-2.85-1.05-5.69-2.06-8.43-3c-9.33-3.26-18.83-5.99-28.47-8.17
			c-9.14-2.09-18.47-3.28-27.85-3.56c-8.09-0.22-16.18,0.62-24.06,2.5c-8.82,2.24-17.38,5.4-25.54,9.44
			c-5.44,2.62-10.78,5.49-15.95,8.27c-6.9,3.71-14.03,7.55-21.47,10.82c-20.98,9.22-45.89,14.06-74.05,14.4
			c-23.52,0.27-49.32-2.52-76.69-8.29c-16.92-3.53-34.85-8.3-54.83-14.59l-4.09-1.29c-42.08-13.22-85.59-26.9-126.41-44.77
			c-6.34-2.92-12.52-6.19-18.51-9.78c-3.33-1.92-6.78-3.91-10.22-5.74c-1.53-0.81-3.06-1.63-4.59-2.45
			c-6.92-3.69-14.07-7.52-21.37-10.96c-7.91-3.85-16.13-7.03-24.58-9.5c-8.99-2.63-18.34-3.84-27.71-3.58
			c-18.4,0.64-34.12,7.29-47.08,13.7c-3.2,1.59-6.26,3.25-9.36,4.96c-3.28,1.81-6.6,3.7-9.8,5.52l-1.57,0.89
			c-7.28,4.11-15.16,8.48-23.42,12.63c-19.2,9.64-36.74,16.5-53.62,20.96c-14.26,3.78-28.95,5.37-43.15,6.9
			c-7.51,0.81-15.27,1.65-22.67,2.8c-20.91,3.24-40.89,9.56-60.21,15.67c-10.09,3.19-20.51,6.49-30.84,9.26
			c-12.04,3.22-23.24,6-34.23,8.5c-20.72,4.73-40.26,8.32-59.71,10.97c-21.97,3.02-44.98,5.18-70.37,6.61
			c-37.17,2.16-78.65,2.54-126.84,1.16c-2.86-0.08-5.77-0.17-8.63-0.26c-16.22-0.49-32.6-1.12-48.68-1.87l-0.01,0.32
			c16.08,0.75,32.46,1.38,48.68,1.87c2.86,0.09,5.77,0.18,8.63,0.26C-1231.86,227.43-1214,227.7-1197.04,227.7z"/>
	</g>
	<g id="Group_136_1_" transform="translate(182.062 180.718)">
		<path id="Path_3445_1_" class="st1" d="M67.95,234.31c1.67,0,3.33-0.03,4.98-0.1c9.16-0.39,18.24-1.89,27.04-4.47
			c6.79-2,13.41-4.54,19.8-7.59c12.79-5.99,24.68-13.75,35.31-23.05c11.77-10.35,21.88-22.44,29.99-35.85
			c8.91-14.65,15.72-32.16,22.93-50.69c2.52-6.47,5.12-13.16,7.89-19.94c1.43-3.53,3.34-8.18,5.46-12.9
			c12.83-28.59,27.17-48.18,45.13-61.65c1.73-1.3,3.54-2.56,5.37-3.73c6.36-4.08,13.22-7.33,20.41-9.66
			c7.22-2.35,14.72-3.73,22.3-4.1c14.55-0.7,29.04,2.42,42.01,9.06c13.25,6.82,24.2,17.4,31.46,30.42
			c3.48,6.27,5.92,13.07,7.22,20.12c1.3,7.05,1.29,14.28-0.02,21.33l0.35,0.06c1.32-7.09,1.33-14.36,0.02-21.46
			c-1.31-7.09-3.76-13.92-7.26-20.23c-3.56-6.45-8.06-12.33-13.35-17.44c-5.4-5.25-11.55-9.67-18.26-13.11
			c-13.03-6.66-27.57-9.8-42.19-9.1c-7.61,0.37-15.14,1.76-22.39,4.12c-7.22,2.34-14.1,5.6-20.49,9.7
			c-1.83,1.18-3.65,2.44-5.39,3.75c-10.41,7.95-19.47,17.54-26.81,28.39c-7.17,10.54-13.34,21.72-18.44,33.4
			c-2.12,4.73-4.03,9.38-5.46,12.91c-2.77,6.78-5.37,13.47-7.89,19.94c-7.2,18.52-14.01,36.01-22.9,50.64
			c-8.09,13.38-18.18,25.44-29.92,35.77c-10.61,9.27-22.47,17.01-35.23,22.99c-6.37,3.04-12.97,5.57-19.74,7.57
			c-8.77,2.58-17.82,4.07-26.95,4.46c-9.96,0.35-19.93-0.39-29.72-2.22c-14.09-2.62-27.98-6.26-41.55-10.89
			c-8.1-2.7-16.33-5.82-25.04-9.12c-6.46-2.44-13.14-4.97-19.92-7.39c-2.9-1.03-5.76-2.02-8.48-2.95
			c-22.96-7.77-40.85-11.79-56.29-12.65c-8.02-0.53-16.07-0.08-23.98,1.34c-8.75,1.68-17.32,4.21-25.59,7.55
			c-5.48,2.16-10.87,4.55-16.09,6.87c-6.94,3.08-14.12,6.27-21.58,8.93c-21.13,7.56-45.96,10.9-73.77,9.93
			c-23.42-0.83-49-4.62-76.02-11.27c-16.76-4.08-34.53-9.39-54.34-16.22c-3.73-1.28-7.46-2.57-11.2-3.85
			c-39.41-13.55-80.16-27.55-118.2-45.52c-6.74-3.34-13.27-7.07-19.59-11.16c-3.46-2.15-7.04-4.38-10.62-6.44
			c-1.74-1-3.51-2.02-5.22-3.01c-7.14-4.13-14.53-8.4-22.09-12.26c-8.31-4.39-17-8.02-25.97-10.84c-9.58-3.02-19.59-4.39-29.62-4.06
			c-9.15,0.41-18.18,2.2-26.79,5.31c-7.99,2.89-15.74,6.42-23.16,10.57c-3.38,1.83-6.7,3.82-9.82,5.69
			c-3.09,1.86-6.21,3.8-9.23,5.67l-2.67,1.66c-7.04,4.32-15.48,9.4-24.63,14.3c-20.11,10.75-38.77,18.28-57.04,23.02
			c-15.93,4.15-32.37,5.49-48.26,6.78c-7.38,0.6-15.01,1.22-22.31,2.12c-20.77,2.55-40.69,8.05-59.95,13.38
			c-10.43,2.88-21.23,5.87-31.89,8.29c-12.04,2.72-23.32,5.07-34.48,7.17c-20.68,3.92-40.33,6.85-60.06,8.94
			c-21.61,2.33-44.74,3.96-70.72,4.99c-43.62,1.82-88.94,1.43-127.53,0.81c-2.9-0.05-5.79-0.09-8.67-0.14
			c-7.82-0.12-15.57-0.23-23.25-0.35c-8.67-0.13-17.23-0.26-25.61-0.39v0.35c8.38,0.12,16.93,0.26,25.61,0.39
			c7.67,0.12,15.42,0.24,23.25,0.35c2.88,0.05,5.77,0.09,8.67,0.14c38.59,0.62,83.92,1.01,127.55-0.81
			c25.99-1.03,49.13-2.66,70.74-4.99c19.74-2.1,39.4-5.03,60.09-8.95c11.16-2.11,22.44-4.45,34.49-7.17
			c10.67-2.43,21.47-5.41,31.91-8.3c19.25-5.32,39.15-10.82,59.9-13.36c7.3-0.89,14.92-1.52,22.3-2.12
			c15.91-1.3,32.36-2.64,48.32-6.8c18.3-4.74,36.99-12.28,57.12-23.05c9.16-4.9,17.6-9.98,24.65-14.31l2.68-1.66
			c3.02-1.87,6.14-3.81,9.23-5.67c3.11-1.87,6.43-3.85,9.81-5.69c13.61-7.39,30.18-15.05,49.79-15.83
			c9.99-0.33,19.97,1.04,29.51,4.05c8.95,2.82,17.62,6.44,25.91,10.82c7.55,3.86,14.93,8.13,22.07,12.26
			c1.71,0.99,3.48,2.01,5.22,3.01c3.58,2.06,7.15,4.28,10.61,6.43c6.32,4.1,12.87,7.83,19.62,11.18
			c38.05,17.98,78.81,31.99,118.23,45.53c3.74,1.29,7.47,2.57,11.2,3.85c19.82,6.83,37.6,12.14,54.37,16.23
			c27.05,6.66,52.65,10.45,76.1,11.28c3.12,0.11,6.21,0.16,9.26,0.16c24.14,0,45.84-3.39,64.65-10.11
			c7.48-2.67,14.66-5.86,21.61-8.94c5.21-2.31,10.6-4.7,16.08-6.86c8.24-3.34,16.79-5.86,25.52-7.53c7.88-1.42,15.9-1.87,23.89-1.34
			c15.42,0.85,33.27,4.87,56.2,12.63c2.73,0.92,5.58,1.92,8.48,2.94c6.78,2.41,13.46,4.94,19.91,7.38
			c8.71,3.3,16.94,6.42,25.05,9.12c13.58,4.64,27.49,8.28,41.6,10.9C51.32,233.49,59.62,234.26,67.95,234.31z"/>
	</g>
	<g id="Group_137_1_" transform="translate(171.365 171.693)">
		<path id="Path_3446_1_" class="st1" d="M76.82,246.74c5.21,0.01,10.41-0.34,15.57-1.06c8.66-1.23,17.13-3.54,25.23-6.87
			c6.24-2.57,12.27-5.62,18.04-9.12c11.66-6.95,22.33-15.44,31.73-25.24c10.55-11.08,19.45-23.63,26.4-37.26
			c6.84-13.31,12.1-28.71,17.67-45.02c3.07-8.99,6.24-18.28,9.86-27.78c1.94-5.15,3.62-9.35,5.27-13.2
			c12.19-28.43,27.1-48.95,45.58-62.74c1.76-1.32,3.6-2.59,5.46-3.78c6.46-4.13,13.42-7.43,20.71-9.81
			c7.34-2.41,14.96-3.83,22.67-4.23c14.78-0.76,29.5,2.33,42.73,8.97c13.41,6.73,24.55,17.24,32.06,30.24
			c3.58,6.23,6.11,13.01,7.49,20.07c1.38,7.05,1.42,14.29,0.13,21.35l0.38,0.07c1.3-7.11,1.26-14.4-0.13-21.5
			c-1.39-7.1-3.93-13.92-7.53-20.19c-7.55-13.06-18.75-23.62-32.23-30.39c-13.29-6.66-28.08-9.77-42.93-9.01
			c-7.74,0.41-15.4,1.84-22.77,4.25c-7.32,2.39-14.31,5.7-20.8,9.85c-1.87,1.19-3.71,2.47-5.48,3.8
			c-10.61,8.08-19.83,17.83-27.3,28.87c-7.26,10.7-13.42,22.1-18.4,34.02c-1.66,3.86-3.33,8.06-5.28,13.22
			c-3.62,9.51-6.79,18.8-9.86,27.8c-5.56,16.29-10.81,31.68-17.65,44.96c-13.65,26.54-33.16,47.52-57.99,62.34
			c-5.75,3.49-11.77,6.53-17.99,9.09c-17.13,6.95-33.77,9.18-53.95,7.23c-14.12-1.47-28.07-4.2-41.7-8.16
			c-10.36-2.94-21.02-6.7-32.31-10.69c-4.27-1.51-8.68-3.06-13.09-4.58c-3.04-1.05-5.83-1.99-8.54-2.9
			c-11.17-3.73-20.27-6.45-28.61-8.56c-9.08-2.38-18.32-4.06-27.66-5.01c-7.95-0.82-15.96-0.75-23.89,0.19
			c-8.69,1.13-17.27,3.02-25.63,5.67c-5.52,1.7-10.97,3.61-16.24,5.46c-6.98,2.45-14.2,4.99-21.69,7.05
			c-21.3,5.88-46.03,7.72-73.49,5.46c-23.32-1.93-48.68-6.72-75.35-14.24c-16.6-4.64-34.21-10.48-53.85-17.85
			c-5.17-1.94-10.44-3.91-15.55-5.82c-37.65-14.05-76.57-28.58-112.74-46.88c-7.12-3.78-14.01-7.97-20.64-12.55
			c-3.59-2.38-7.31-4.84-11.04-7.13c-1.93-1.18-3.89-2.39-5.78-3.56c-7.39-4.57-15.03-9.29-22.87-13.59
			c-8.71-4.93-17.87-9.02-27.37-12.19c-10.15-3.4-20.84-4.94-31.54-4.54c-9.76,0.49-19.37,2.54-28.48,6.07
			c-8.43,3.3-16.57,7.31-24.33,11.97c-3.57,2.1-7.04,4.32-10.28,6.43c-2.97,1.93-5.96,3.92-8.86,5.85c-1.2,0.8-2.39,1.6-3.59,2.39
			c-10.09,6.65-18.06,11.57-25.85,15.96c-21.05,11.87-40.83,20.07-60.47,25.07c-17.67,4.52-35.92,5.58-53.57,6.6
			c-7.18,0.42-14.61,0.85-21.74,1.51c-20.59,1.91-40.41,6.6-59.58,11.13c-10.82,2.56-22.01,5.21-33.05,7.27
			c-11.86,2.2-23.55,4.16-34.73,5.84c-20.6,3.11-40.36,5.38-60.41,6.92c-21.03,1.64-44.27,2.74-71.08,3.36
			c-35.11,0.89-71.74,0.72-107.17,0.56c-6.92-0.03-14.07-0.06-21.06-0.09c-2.98-0.01-5.91-0.02-8.72-0.02
			c-17.6,0-34.1,0.13-49.04,0.39l0.01,0.39c14.94-0.25,31.44-0.38,49.03-0.39c2.8,0,5.74,0.01,8.72,0.02
			c6.99,0.02,14.14,0.06,21.06,0.09c35.43,0.16,72.06,0.33,107.18-0.56c26.81-0.62,50.06-1.72,71.1-3.36
			c20.06-1.54,39.83-3.8,60.44-6.92c11.19-1.68,22.88-3.65,34.74-5.84c11.05-2.07,22.24-4.71,33.07-7.28
			c19.16-4.53,38.96-9.22,59.53-11.12c7.13-0.66,14.55-1.09,21.73-1.51c17.67-1.03,35.93-2.08,53.64-6.61
			c19.67-5.01,39.48-13.22,60.56-25.11c7.79-4.39,15.77-9.32,25.87-15.98c1.2-0.8,2.4-1.6,3.6-2.39c2.89-1.93,5.89-3.92,8.85-5.85
			c3.24-2.1,6.7-4.33,10.26-6.42c7.74-4.66,15.86-8.65,24.27-11.95c9.07-3.52,18.64-5.56,28.36-6.05
			c23.17-1.02,43.54,8.38,58.7,16.69c7.83,4.29,15.47,9.01,22.85,13.58c1.89,1.17,3.85,2.38,5.78,3.56
			c3.72,2.28,7.44,4.74,11.03,7.12c6.65,4.59,13.55,8.78,20.68,12.57c36.19,18.3,75.13,32.84,112.78,46.89
			c5.1,1.91,10.38,3.88,15.55,5.82c19.64,7.38,37.27,13.22,53.88,17.86c26.7,7.53,52.08,12.32,75.43,14.25
			c7.59,0.62,14.97,0.94,22.14,0.94c18.79,0,36.04-2.14,51.49-6.41c7.5-2.07,14.72-4.61,21.71-7.06c5.26-1.85,10.7-3.76,16.22-5.45
			c8.34-2.63,16.89-4.53,25.56-5.65c7.9-0.94,15.89-1.01,23.81-0.19c9.32,0.95,18.54,2.62,27.6,5c8.34,2.11,17.42,4.83,28.58,8.56
			c2.7,0.9,5.49,1.85,8.53,2.9c4.42,1.52,8.83,3.08,13.09,4.58c11.29,3.99,21.96,7.76,32.34,10.7c13.65,3.97,27.63,6.7,41.76,8.18
			C68.1,246.51,72.53,246.74,76.82,246.74z"/>
	</g>
	<g id="Group_138_1_" transform="translate(160.661 162.666)">
		<path id="Path_3447_1_" class="st1" d="M85.71,260.17c18.62,0,33.97-3.82,49.57-12.29c5.68-3.14,11.13-6.7,16.28-10.65
			c22.28-16.8,39.42-39.04,50.96-66.1c5.16-12.11,9.13-25.72,13.33-40.12c3.28-11.24,6.67-22.87,10.91-34.84
			c1.81-5.17,3.43-9.46,5.09-13.5c4.87-12.14,11.02-23.73,18.33-34.57c7.56-11.21,16.92-21.1,27.7-29.26
			c1.79-1.33,3.66-2.62,5.55-3.83c6.56-4.19,13.62-7.53,21.01-9.96c7.45-2.46,15.2-3.93,23.04-4.36
			c15.01-0.81,29.97,2.25,43.46,8.88c13.56,6.65,24.91,17.09,32.67,30.06c3.68,6.2,6.3,12.96,7.76,20.02
			c1.45,7.04,1.54,14.3,0.28,21.38l0.42,0.07c1.28-7.13,1.18-14.44-0.28-21.54c-1.47-7.1-4.11-13.91-7.81-20.15
			c-7.8-13.04-19.21-23.53-32.84-30.22c-13.55-6.66-28.59-9.73-43.67-8.92c-7.87,0.44-15.66,1.91-23.15,4.38
			c-7.43,2.44-14.52,5.8-21.11,10c-1.9,1.21-3.78,2.51-5.58,3.85c-10.82,8.19-20.21,18.11-27.8,29.36
			c-7.33,10.87-13.49,22.49-18.38,34.65c-1.66,4.05-3.28,8.34-5.09,13.52c-4.25,11.99-7.64,23.62-10.92,34.87
			c-4.2,14.4-8.16,27.99-13.31,40.08c-11.5,26.99-28.6,49.17-50.82,65.93c-5.14,3.94-10.56,7.49-16.23,10.62
			c-16.05,8.71-31.85,12.48-51.23,12.22c-14.1-0.3-28.13-2.13-41.84-5.44c-12.72-2.98-25.98-7.41-40.02-12.1
			c-1.94-0.65-3.88-1.3-5.84-1.95c-2.85-0.95-5.71-1.89-8.59-2.84c-21.63-7.13-39.48-12.32-56.24-14.5
			c-7.88-1.1-15.86-1.43-23.81-0.96c-8.64,0.6-17.23,1.86-25.67,3.78c-5.57,1.24-11.07,2.67-16.39,4.05
			c-7.02,1.82-14.29,3.71-21.79,5.18c-21.47,4.19-46.1,4.53-73.21,1c-23.23-3.04-48.36-8.84-74.68-17.21
			c-16.44-5.19-33.9-11.56-53.36-19.49c-6.13-2.5-12.4-5.03-18.46-7.47c-36.34-14.67-73.92-29.83-108.73-48.54
			c-7.49-4.22-14.73-8.88-21.68-13.94c-3.73-2.61-7.6-5.31-11.47-7.82c-2.1-1.36-4.23-2.75-6.28-4.1
			c-7.65-5.01-15.56-10.19-23.7-14.92c-15.95-9.27-37.42-19.75-62.21-18.56c-10.37,0.56-20.57,2.87-30.17,6.84
			c-8.88,3.7-17.41,8.18-25.51,13.38c-3.77,2.36-7.37,4.83-10.74,7.16c-2.89,2-5.81,4.07-8.63,6.07c-1.43,1.01-2.9,2.06-4.36,3.09
			c-10.24,7.17-18.84,12.77-27.06,17.63c-22.02,12.99-42.91,21.86-63.89,27.12c-19.51,4.91-39.67,5.64-59.17,6.35
			c-6.89,0.25-14.02,0.51-20.89,0.96c-20.36,1.32-40.04,5.2-59.07,8.95c-11.25,2.22-22.89,4.51-34.35,6.19
			c-11.83,1.72-23.6,3.23-34.98,4.52c-20.46,2.32-40.33,3.92-60.76,4.89c-20.29,0.99-42.99,1.55-71.43,1.74
			c-21.12,0.19-43.08,0.13-64.32,0.06c-21.27-0.06-43.27-0.13-64.6,0.06c-2.93,0.03-5.88,0.06-8.76,0.1
			c-17.43,0.27-33.98,0.78-49.22,1.51l0.02,0.43c15.23-0.74,31.78-1.25,49.2-1.51c2.88-0.04,5.83-0.07,8.76-0.1
			c21.33-0.19,43.33-0.12,64.6-0.06c21.24,0.06,43.2,0.13,64.32-0.06c28.45-0.19,51.15-0.75,71.45-1.74
			c20.44-0.97,40.32-2.57,60.79-4.89c11.39-1.28,23.16-2.8,35-4.52c11.47-1.69,23.11-3.98,34.37-6.2
			c19.02-3.75,38.68-7.62,59.01-8.94c6.86-0.45,13.98-0.7,20.88-0.96c19.52-0.71,39.71-1.45,59.26-6.37
			c21.01-5.27,41.95-14.15,64-27.17c8.23-4.86,16.84-10.47,27.09-17.65c1.46-1.03,2.93-2.07,4.36-3.09c2.82-2,5.74-4.07,8.63-6.07
			c3.36-2.33,6.95-4.79,10.72-7.15c8.07-5.19,16.58-9.65,25.44-13.34c9.55-3.95,19.71-6.25,30.03-6.81
			c24.68-1.19,46.08,9.27,61.98,18.51c8.13,4.73,16.04,9.9,23.68,14.91c2.06,1.35,4.18,2.74,6.28,4.1
			c3.87,2.51,7.73,5.21,11.46,7.82c6.97,5.07,14.22,9.73,21.73,13.95c34.83,18.73,72.42,33.9,108.77,48.56
			c6.06,2.45,12.33,4.97,18.46,7.47c19.47,7.93,36.93,14.31,53.39,19.5c26.35,8.39,51.5,14.18,74.76,17.23
			c27.16,3.54,51.84,3.2,73.35-1c7.51-1.47,14.78-3.36,21.81-5.18c5.32-1.38,10.81-2.81,16.37-4.04c8.43-1.91,16.99-3.17,25.61-3.77
			c7.92-0.46,15.87-0.14,23.72,0.96c16.73,2.17,34.55,7.36,56.17,14.48c2.87,0.95,5.73,1.9,8.59,2.85c1.96,0.65,3.9,1.3,5.84,1.95
			c14.05,4.69,27.31,9.12,40.05,12.11c13.74,3.32,27.8,5.15,41.93,5.45C84.46,260.17,85.09,260.17,85.71,260.17z"/>
	</g>
	<g id="Group_139_1_" transform="translate(149.956 153.638)">
		<path id="Path_3448_1_" class="st1" d="M93.97,274.61c3.47,0,6.88-0.12,10.23-0.36c9.27-0.56,18.42-2.46,27.15-5.64
			c7.68-2.92,14.94-6.83,21.6-11.65c5.13-3.7,9.99-7.77,14.53-12.18c9.31-8.89,17.54-18.84,24.52-29.66
			c8.01-12.52,14.47-25.97,19.25-40.05c3.77-10.97,6.66-22.99,9.72-35.71c3.21-13.34,6.52-27.13,11.22-41.42
			c1.67-5.14,3.27-9.66,4.9-13.81c11.18-28.53,26.83-50.38,46.49-64.92c1.82-1.35,3.72-2.66,5.65-3.88
			c6.66-4.24,13.82-7.63,21.31-10.1c7.57-2.51,15.44-4.02,23.41-4.49c15.23-0.86,30.44,2.16,44.19,8.78
			c13.72,6.58,25.26,16.94,33.27,29.88c3.77,6.16,6.48,12.91,8.02,19.97c1.53,7.04,1.67,14.31,0.43,21.4l0.45,0.08
			c1.25-7.15,1.11-14.48-0.43-21.58c-1.55-7.11-4.28-13.91-8.08-20.11c-8.05-13.01-19.66-23.44-33.46-30.06
			c-13.82-6.66-29.1-9.7-44.41-8.83c-8,0.47-15.91,1.99-23.52,4.52c-7.53,2.48-14.73,5.89-21.42,10.15
			c-1.93,1.23-3.84,2.54-5.67,3.9c-19.73,14.6-35.43,36.51-46.64,65.12c-1.63,4.16-3.24,8.68-4.91,13.83
			c-4.71,14.31-8.02,28.11-11.23,41.46c-3.06,12.71-5.94,24.72-9.71,35.67c-4.76,14.04-11.21,27.46-19.2,39.95
			c-6.96,10.78-15.17,20.71-24.45,29.57c-4.52,4.39-9.36,8.45-14.47,12.14c-6.62,4.79-13.85,8.69-21.49,11.59
			c-8.69,3.16-17.79,5.05-27.02,5.61c-14.05,0.88-28.16-0.03-41.98-2.72c-14.06-2.62-28.67-7.16-46.3-12.82
			c-2.64-0.85-5.47-1.76-8.64-2.79c-17.87-5.81-38.13-12.4-56.22-15.43c-7.83-1.39-15.77-2.09-23.72-2.11
			c-8.6,0.06-17.2,0.69-25.72,1.89c-5.62,0.77-11.17,1.72-16.55,2.63c-7.06,1.2-14.36,2.44-21.88,3.3
			c-21.65,2.49-46.19,1.32-72.94-3.47c-25.18-4.72-49.93-11.47-74.02-20.19c-16.29-5.74-33.58-12.65-52.87-21.12
			c-6.81-2.99-13.78-6.02-20.52-8.95c-35.31-15.34-71.82-31.2-105.57-50.39c-7.94-4.52-15.46-10.01-22.72-15.31
			c-3.88-2.84-7.89-5.77-11.92-8.52c-2.26-1.54-4.55-3.11-6.76-4.64c-7.92-5.45-16.12-11.09-24.57-16.26
			c-11.18-6.84-20.76-11.57-30.16-14.89c-11.3-4.17-23.32-6.04-35.36-5.51c-10.99,0.63-21.77,3.21-31.86,7.61
			c-9.33,4.1-18.26,9.05-26.68,14.78c-3.98,2.64-7.86,5.46-11.19,7.9c-2.84,2.08-5.71,4.23-8.48,6.31
			c-1.65,1.24-3.36,2.51-5.05,3.77c-10.55,7.79-19.53,13.92-28.27,19.29c-10.22,6.31-20.84,11.95-31.79,16.87
			c-11.46,5.13-23.34,9.25-35.52,12.3c-21.47,5.32-43.67,5.69-65.14,6.05c-6.48,0.11-13.18,0.22-19.66,0.47
			c-20.06,0.78-39.53,3.85-58.36,6.82c-11.75,1.85-23.91,3.77-35.85,5.06c-11.78,1.24-23.64,2.32-35.24,3.19
			c-19.96,1.52-40.52,2.48-61.11,2.86c-22.21,0.44-44.76,0.37-71.79,0.12c-9.89-0.07-20.08-0.17-29.94-0.27
			c-32.83-0.32-66.78-0.66-99.68,0.05c-2.94,0.06-5.91,0.14-8.81,0.22c-17.45,0.53-34.07,1.41-49.4,2.64l0.04,0.46
			c15.32-1.23,31.93-2.12,49.37-2.64c2.9-0.08,5.86-0.16,8.8-0.22c32.89-0.7,66.84-0.37,99.67-0.05c9.86,0.1,20.05,0.2,29.94,0.27
			c27.03,0.25,49.58,0.33,71.8-0.12c20.6-0.38,41.18-1.34,61.14-2.86c11.6-0.87,23.46-1.94,35.25-3.19
			c11.95-1.29,24.11-3.2,35.87-5.06c18.82-2.97,38.27-6.04,58.31-6.82c6.47-0.25,13.17-0.36,19.65-0.47
			c21.5-0.36,43.73-0.72,65.25-6.06c12.2-3.06,24.11-7.18,35.59-12.33c10.97-4.93,21.61-10.58,31.85-16.9
			c8.75-5.38,17.75-11.51,28.31-19.31c1.69-1.26,3.4-2.54,5.05-3.77c2.77-2.07,5.64-4.22,8.48-6.3c3.33-2.44,7.21-5.25,11.18-7.88
			c8.4-5.72,17.31-10.65,26.61-14.74c10.04-4.38,20.77-6.94,31.7-7.57c26.18-1.35,48.63,10.16,65.26,20.33
			c8.44,5.16,16.63,10.79,24.55,16.24c2.21,1.52,4.5,3.1,6.76,4.64c4.02,2.74,8.03,5.67,11.91,8.51
			c7.27,5.31,14.79,10.81,22.76,15.34c33.76,19.2,70.29,35.07,105.61,50.41c6.74,2.93,13.71,5.96,20.52,8.95
			c19.3,8.48,36.6,15.39,52.9,21.13c24.11,8.73,48.89,15.48,74.09,20.21c26.79,4.8,51.38,5.97,73.07,3.48
			c7.53-0.87,14.84-2.11,21.9-3.31c5.37-0.91,10.92-1.85,16.53-2.63c8.5-1.2,17.07-1.83,25.66-1.89c7.93,0.02,15.84,0.72,23.64,2.1
			c18.05,3.02,38.29,9.6,56.15,15.41c3.17,1.03,6,1.95,8.64,2.8c17.65,5.67,32.27,10.21,46.36,12.84
			C72.6,273.52,83.27,274.56,93.97,274.61z"/>
	</g>
	<g id="Group_140_1_" transform="translate(139.251 144.612)">
		<path id="Path_3449_1_" class="st1" d="M104.09,289.9c6.86,0.02,13.7-0.51,20.48-1.56c9.14-1.34,18.01-4.14,26.27-8.28
			c7.21-3.74,13.87-8.46,19.78-14.03c4.57-4.27,8.84-8.85,12.77-13.72c8.09-9.84,15.1-20.53,20.89-31.88
			c6.69-13.21,11.95-27.1,15.7-41.42c2.62-9.85,4.61-20.4,6.72-31.57c2.9-15.34,5.9-31.2,10.93-47.73c1.56-5.19,3.1-9.81,4.71-14.11
			c4.64-12.62,10.77-24.64,18.26-35.8c7.78-11.62,17.48-21.83,28.68-30.21c1.85-1.37,3.79-2.69,5.74-3.93
			c6.76-4.29,14.02-7.73,21.61-10.25c7.69-2.57,15.68-4.12,23.77-4.62c15.46-0.92,30.91,2.07,44.91,8.69
			c29.96,14.19,47.53,43.41,42.73,71.05l0.49,0.08c1.23-7.17,1.03-14.52-0.58-21.61c-1.63-7.12-4.45-13.9-8.35-20.08
			c-8.3-12.99-20.12-23.35-34.08-29.89c-14.08-6.64-29.61-9.65-45.15-8.74c-8.13,0.51-16.17,2.07-23.9,4.65
			c-7.64,2.53-14.93,5.99-21.72,10.3c-1.96,1.24-3.9,2.57-5.77,3.95c-11.24,8.41-20.98,18.66-28.79,30.33
			c-7.51,11.2-13.66,23.25-18.32,35.91c-1.61,4.31-3.16,8.94-4.72,14.14c-5.04,16.55-8.04,32.43-10.94,47.78
			c-2.11,11.16-4.1,21.69-6.72,31.53c-3.74,14.29-8.99,28.14-15.66,41.32c-5.78,11.32-12.77,21.97-20.84,31.79
			c-3.91,4.85-8.16,9.41-12.72,13.67c-5.88,5.54-12.5,10.24-19.67,13.96c-8.21,4.12-17.03,6.89-26.12,8.23
			c-13.96,2.08-28.16,2.08-42.13,0c-14.1-1.97-28.89-6.06-46.75-11.6c-2.78-0.86-5.7-1.78-8.69-2.74c-2.53-0.81-5.09-1.64-7.56-2.44
			c-17.15-5.54-33.34-10.77-48.63-13.91c-7.79-1.67-15.69-2.76-23.63-3.26c-8.58-0.48-17.18-0.48-25.76,0
			c-5.67,0.31-11.28,0.76-16.72,1.2c-7.09,0.58-14.43,1.17-21.96,1.44c-21.84,0.77-46.29-1.9-72.66-7.94
			c-24.99-5.91-49.5-13.65-73.35-23.16c-16.13-6.29-33.26-13.73-52.38-22.75c-7.31-3.45-14.81-6.94-22.05-10.32
			c-34.45-16.04-70.07-32.64-102.94-52.33c-8.31-4.97-16.15-10.94-23.74-16.7c-4.03-3.06-8.19-6.23-12.38-9.2
			c-2.41-1.71-4.85-3.47-7.21-5.16c-8.21-5.9-16.69-11.99-25.46-17.6c-11.65-7.45-21.68-12.61-31.56-16.23
			c-12.82-4.7-25.01-6.66-37.27-5.99c-11.6,0.71-22.98,3.55-33.55,8.38c-9.78,4.5-19.1,9.92-27.86,16.19
			c-4.19,2.92-8.21,5.98-11.65,8.63c-2.82,2.17-5.66,4.4-8.4,6.55c-1.85,1.45-3.77,2.96-5.67,4.44
			c-10.87,8.42-20.24,15.07-29.49,20.95c-10.66,6.83-21.79,12.9-33.3,18.17c-12.04,5.5-24.57,9.87-37.42,13.06
			c-23.57,5.77-47.97,5.72-71.56,5.66c-5.92-0.01-12.05-0.03-17.98,0.06c-19.68,0.28-38.86,2.56-57.4,4.77
			c-12.33,1.47-25.09,2.99-37.6,3.85c-11.72,0.78-23.66,1.41-35.49,1.86c-19.9,0.78-40,1.05-61.46,0.83
			c-20.19-0.18-40.39-0.69-61.78-1.24c-3.44-0.09-6.9-0.18-10.36-0.26l-1.01-0.02c-27.24-0.62-55.08-1.26-82.81-1.26
			c-15.58,0-31.11,0.2-46.5,0.71c-2.96,0.1-5.94,0.21-8.85,0.34c-17.52,0.79-34.2,2.05-49.58,3.77l0.05,0.49
			c15.37-1.72,32.04-2.98,49.54-3.77c2.91-0.12,5.89-0.24,8.84-0.34c42.77-1.43,86.74-0.43,129.28,0.54l1.01,0.02l10.36,0.26
			c21.39,0.55,41.59,1.07,61.79,1.24c21.47,0.22,41.58-0.05,61.49-0.83c11.84-0.45,23.78-1.08,35.5-1.86
			c12.52-0.86,25.28-2.38,37.62-3.85c18.53-2.2,37.69-4.48,57.35-4.77c5.93-0.08,12.05-0.07,17.97-0.06
			c23.62,0.05,48.05,0.11,71.68-5.68c12.88-3.19,25.44-7.57,37.51-13.09c11.53-5.28,22.68-11.36,33.36-18.2
			c9.26-5.89,18.64-12.56,29.53-20.98c1.9-1.48,3.82-2.98,5.67-4.44c2.75-2.16,5.59-4.38,8.4-6.55c3.44-2.64,7.45-5.7,11.63-8.62
			c8.73-6.25,18.03-11.65,27.78-16.14c10.52-4.81,21.83-7.63,33.38-8.34c27.69-1.51,51.17,11.04,68.54,22.15
			c8.76,5.6,17.24,11.69,25.44,17.59c2.36,1.69,4.8,3.45,7.21,5.16c4.18,2.97,8.34,6.14,12.36,9.2c7.6,5.77,15.46,11.74,23.78,16.73
			c32.9,19.7,68.53,36.3,102.98,52.36c7.24,3.38,14.74,6.87,22.05,10.32c19.12,9.02,36.27,16.47,52.41,22.77
			c23.87,9.52,48.41,17.27,73.42,23.19c23.45,5.37,45.39,8.08,65.33,8.08c2.52,0,5.01-0.04,7.46-0.13
			c7.54-0.27,14.89-0.86,21.99-1.44c5.43-0.44,11.04-0.9,16.7-1.2c8.56-0.48,17.14-0.48,25.7,0c7.92,0.5,15.8,1.59,23.56,3.25
			c15.25,3.13,31.44,8.36,48.57,13.9c2.47,0.8,5.03,1.63,7.56,2.44c2.99,0.96,5.92,1.89,8.69,2.74c17.89,5.54,32.7,9.64,46.83,11.61
			C89.51,289.37,96.79,289.89,104.09,289.9z"/>
	</g>
	<g id="Group_141_1_" transform="translate(128.543 135.583)">
		<path id="Path_3450_1_" class="st1" d="M116.06,305.8c9.73,0.05,19.42-1.09,28.88-3.38c9.04-2.13,17.63-5.82,25.38-10.92
			c6.74-4.58,12.79-10.11,17.97-16.42c4.01-4.83,7.69-9.92,11.01-15.25c6.84-10.78,12.62-22.2,17.25-34.11
			c5.34-13.87,9.41-28.19,12.16-42.79c1.68-8.71,2.94-17.85,4.26-27.52c2.38-17.31,4.84-35.21,10.1-53.94
			c1.46-5.25,2.94-9.97,4.53-14.41c7.16-20,21.19-47.88,47.39-67.1c1.89-1.39,3.85-2.72,5.83-3.98c6.86-4.34,14.22-7.83,21.92-10.4
			c22.89-7.73,47.88-6.35,69.78,3.85c30.44,14.14,48.43,43.27,43.75,70.84l0.52,0.09c1.21-7.19,0.96-14.56-0.73-21.65
			c-1.71-7.12-4.63-13.9-8.62-20.04c-8.56-12.96-20.58-23.26-34.7-29.72C370.71-1.3,345.58-2.68,322.56,5.09
			c-7.74,2.58-15.14,6.09-22.03,10.45c-1.99,1.26-3.96,2.61-5.86,4c-11.46,8.52-21.36,18.94-29.29,30.81
			c-7.6,11.36-13.75,23.64-18.29,36.54c-1.59,4.45-3.08,9.18-4.54,14.44c-5.27,18.76-7.73,36.68-10.11,54.01
			c-1.33,9.67-2.58,18.8-4.26,27.5c-2.75,14.57-6.81,28.86-12.14,42.69c-4.61,11.87-10.37,23.26-17.2,34.01
			c-3.31,5.31-6.97,10.38-10.96,15.19c-5.14,6.26-11.16,11.76-17.86,16.32c-7.71,5.06-16.24,8.74-25.22,10.85
			c-13.84,3.28-28.13,4.2-42.27,2.72c-16.17-1.53-33.71-6.34-47.2-10.37c-2.83-0.85-5.78-1.75-8.74-2.69
			c-5.45-1.72-10.92-3.52-16.21-5.25c-14.06-4.6-27.34-8.95-39.94-12.03c-7.75-1.96-15.61-3.43-23.55-4.41
			c-9.07-1.05-17.51-1.66-25.8-1.88c-5.72-0.17-11.4-0.2-16.9-0.23c-7.12-0.04-14.49-0.08-22.03-0.42
			c-22.04-0.97-46.4-5.14-72.39-12.41c-24.78-7.09-49.06-15.82-72.68-26.14c-15.97-6.84-32.94-14.82-51.89-24.39
			c-7.7-3.89-15.59-7.82-23.22-11.62c-33.69-16.8-68.53-34.16-100.67-54.36c-8.66-5.44-16.84-11.87-24.75-18.09
			c-4.18-3.29-8.5-6.68-12.84-9.89c-2.55-1.89-5.14-3.82-7.64-5.68c-8.5-6.34-17.28-12.9-26.37-18.95
			c-12.12-8.06-22.59-13.65-32.96-17.58c-6.1-2.34-12.4-4.09-18.83-5.25c-6.71-1.19-13.54-1.6-20.35-1.22
			c-12.22,0.78-24.18,3.88-35.24,9.15c-11.88,5.47-22.26,12.66-29.04,17.59c-3.96,2.88-7.7,5.83-12.11,9.36
			c-2.81,2.26-5.64,4.57-8.38,6.82c-2.04,1.67-4.15,3.4-6.24,5.09c-11.21,9.04-20.97,16.23-30.7,22.62
			c-11.11,7.34-22.75,13.84-34.82,19.47c-12.63,5.87-25.8,10.5-39.33,13.81c-25.86,6.25-52.63,5.71-78.53,5.19
			c-5.19-0.1-10.55-0.21-15.76-0.26c-19.19-0.18-37.95,1.34-56.09,2.81c-13.03,1.05-26.5,2.14-39.69,2.55
			c-11.63,0.33-23.66,0.51-35.74,0.53c-19.37,0.05-39.59-0.34-61.82-1.2c-13.51-0.5-26.9-1.11-41.07-1.75
			c-10.25-0.46-20.84-0.94-31.43-1.38c-42.46-1.64-87.72-2.88-131.02-0.91c-2.97,0.14-5.97,0.29-8.89,0.46
			c-17.6,1.04-34.34,2.69-49.76,4.9l0.08,0.53c15.4-2.21,32.13-3.85,49.71-4.9c2.92-0.17,5.92-0.32,8.89-0.46
			c15.8-0.72,31.88-1.01,47.98-1.01c27.98,0,56.05,0.88,82.99,1.92c10.58,0.43,21.18,0.91,31.42,1.38
			c14.17,0.64,27.56,1.25,41.07,1.75c22.23,0.86,42.46,1.25,61.84,1.2c12.09-0.02,24.12-0.2,35.76-0.53
			c13.2-0.4,26.68-1.49,39.72-2.55c18.13-1.47,36.88-2.98,56.05-2.8c5.2,0.05,10.57,0.16,15.75,0.26
			c25.93,0.53,52.74,1.07,78.66-5.2c13.56-3.32,26.77-7.96,39.43-13.84c12.09-5.63,23.75-12.15,34.89-19.51
			c9.75-6.4,19.52-13.6,30.74-22.65c2.09-1.69,4.2-3.42,6.24-5.09c2.74-2.24,5.57-4.56,8.37-6.81c4.4-3.53,8.14-6.47,12.09-9.35
			c14.1-10.27,23.27-14.93,28.95-17.54c11-5.24,22.89-8.32,35.05-9.1c6.77-0.38,13.56,0.03,20.23,1.22
			c6.39,1.15,12.67,2.9,18.73,5.22c10.33,3.92,20.77,9.48,32.85,17.52c9.08,6.04,17.86,12.6,26.35,18.94
			c2.5,1.87,5.08,3.8,7.64,5.68c4.33,3.2,8.65,6.6,12.83,9.88c7.92,6.23,16.12,12.67,24.8,18.12
			c32.17,20.21,67.02,37.58,100.72,54.38c7.63,3.8,15.52,7.73,23.21,11.62c18.95,9.57,35.93,17.55,51.91,24.4
			c23.64,10.33,47.95,19.07,72.75,26.16c26.03,7.28,50.43,11.46,72.51,12.43c7.55,0.33,14.92,0.37,22.05,0.42
			c5.49,0.03,11.17,0.06,16.89,0.23c8.28,0.22,16.7,0.83,25.75,1.88c7.91,0.98,15.75,2.45,23.48,4.4
			c12.58,3.07,25.85,7.41,39.9,12.01c5.29,1.73,10.76,3.53,16.22,5.25c2.97,0.94,5.91,1.85,8.75,2.69
			c13.51,4.03,31.09,8.86,47.3,10.39C107.09,305.59,111.62,305.8,116.06,305.8z"/>
	</g>
	<g id="Group_142_1_" transform="translate(117.835 126.552)">
		<path id="Path_3451_1_" class="st1" d="M129.29,322.13c5.56,0.01,11.11-0.36,16.62-1.11c6.6-0.89,13.1-2.4,19.41-4.52
			c8.96-2.92,17.27-7.53,24.5-13.57c6.28-5.43,11.73-11.77,16.15-18.79c3.45-5.38,6.54-10.99,9.25-16.78
			c11.12-23.07,18.39-49.4,22.23-80.48c0.93-7.52,1.59-15.26,2.3-23.45c1.66-19.29,3.37-39.24,8.78-60.17
			c1.36-5.32,2.78-10.13,4.34-14.71c6.9-20.21,20.81-48.44,47.84-68.19c1.92-1.4,3.91-2.76,5.92-4.03
			c6.96-4.39,14.42-7.93,22.22-10.55c23.22-7.88,48.58-6.58,70.88,3.63c30.93,14.08,49.34,43.13,44.77,70.64l0.56,0.09
			c1.19-7.22,0.88-14.6-0.88-21.69c-1.79-7.13-4.81-13.89-8.9-20c-8.21-12.43-20.75-22.93-35.31-29.56
			c-22.43-10.27-47.93-11.57-71.29-3.65c-7.84,2.63-15.35,6.18-22.34,10.6c-2.03,1.28-4.03,2.64-5.95,4.05
			c-27.15,19.84-41.11,48.18-48.05,68.46c-1.57,4.59-2.99,9.42-4.36,14.75c-5.42,20.98-7.14,40.95-8.79,60.26
			c-0.7,8.19-1.37,15.93-2.29,23.43c-3.83,31.03-11.09,57.29-22.17,80.31c-2.7,5.77-5.77,11.35-9.21,16.72
			c-4.4,6.98-9.81,13.27-16.05,18.67c-7.17,6-15.42,10.57-24.31,13.47c-6.28,2.11-12.74,3.61-19.3,4.49
			c-7.66,1.03-15.39,1.34-23.11,0.94c-13.09-0.65-28.23-3.56-47.64-9.15c-2.87-0.83-5.83-1.71-8.79-2.64
			c-8.31-2.59-16.53-5.37-24.48-8.06c-11.11-3.76-21.6-7.3-31.65-10.14c-8.99-2.54-16.66-4.36-23.46-5.56
			c-9.45-1.68-17.9-2.91-25.84-3.77c-5.78-0.64-11.53-1.17-17.1-1.68c-7.15-0.66-14.54-1.33-22.09-2.26
			c-22.25-2.73-46.52-8.41-72.11-16.88c-24.56-8.27-48.61-17.99-72.02-29.11c-15.81-7.4-32.63-15.91-51.4-26.02
			c-7.99-4.31-16.19-8.67-24.12-12.88c-33.01-17.55-67.15-35.7-98.67-56.42c-9-5.92-17.52-12.81-25.76-19.48
			c-4.33-3.51-8.82-7.14-13.31-10.58c-2.69-2.06-5.41-4.17-8.05-6.2c-8.79-6.79-17.88-13.82-27.3-20.31
			c-12.59-8.67-23.51-14.69-34.36-18.92c-6.38-2.52-12.98-4.41-19.72-5.66c-7.05-1.28-14.22-1.72-21.37-1.31
			c-12.84,0.85-25.39,4.22-36.93,9.92c-9.45,4.51-19.05,10.54-30.21,18.99c-4.4,3.33-8.64,6.82-12.57,10.1
			c-2.81,2.35-5.64,4.76-8.38,7.08c-2.21,1.88-4.5,3.83-6.77,5.74c-10.21,8.64-20.87,16.74-31.92,24.28
			c-11.56,7.85-23.7,14.79-36.33,20.77c-13.22,6.24-27.03,11.12-41.24,14.56c-28.36,6.78-57.73,5.67-86.14,4.59
			c-4.24-0.16-8.62-0.33-12.89-0.46c-18.54-0.58-36.73,0.2-54.32,0.97c-13.88,0.6-28.24,1.22-42.25,1.12
			c-11.68-0.11-23.46-0.37-35.99-0.8c-18.54-0.62-38.88-1.68-62.17-3.23c-7.81-0.51-15.84-1.06-23.61-1.59
			c-16.01-1.09-32.55-2.22-49.24-3.16c-36.8-1.99-85.02-3.94-131.71-1.25c-2.99,0.17-6,0.37-8.94,0.58
			c-17.7,1.3-34.5,3.33-49.94,6.03l0.1,0.56c15.42-2.69,32.2-4.72,49.88-6.02c2.94-0.21,5.94-0.41,8.93-0.58
			c46.67-2.69,94.87-0.74,131.65,1.25c16.68,0.94,33.23,2.07,49.23,3.16c7.77,0.53,15.8,1.08,23.61,1.59
			c23.3,1.55,43.64,2.61,62.19,3.23c12.54,0.43,24.32,0.69,36.01,0.8c14.03,0.1,28.39-0.52,42.28-1.12
			c17.58-0.76,35.76-1.55,54.27-0.96c4.27,0.13,8.65,0.3,12.88,0.46c10.61,0.4,21.36,0.81,32.14,0.81c18.12,0,36.33-1.15,54.16-5.42
			c14.24-3.45,28.1-8.34,41.35-14.6c12.65-5.99,24.83-12.95,36.41-20.81c11.07-7.55,21.74-15.67,31.96-24.32
			c2.27-1.91,4.56-3.86,6.78-5.74c2.74-2.33,5.57-4.74,8.38-7.08c3.92-3.27,8.16-6.76,12.55-10.08
			c11.13-8.43,20.7-14.45,30.11-18.94c11.47-5.66,23.95-9.01,36.72-9.86c7.11-0.41,14.23,0.03,21.24,1.3
			c6.7,1.24,13.27,3.12,19.61,5.62c10.81,4.22,21.69,10.21,34.24,18.86c9.41,6.48,18.49,13.5,27.28,20.29
			c2.63,2.04,5.36,4.14,8.05,6.2c4.49,3.44,8.97,7.06,13.3,10.57c8.25,6.68,16.78,13.59,25.81,19.52
			c31.54,20.73,65.69,38.89,98.71,56.45c7.93,4.21,16.12,8.57,24.12,12.88c18.78,10.12,35.6,18.64,51.42,26.04
			c23.43,11.13,47.5,20.86,72.08,29.14c25.64,8.48,49.94,14.17,72.22,16.9c7.56,0.93,14.95,1.6,22.11,2.26
			c5.56,0.51,11.31,1.04,17.09,1.68c7.93,0.86,16.37,2.09,25.8,3.76c6.78,1.2,14.43,3.02,23.4,5.55
			c10.03,2.83,20.52,6.38,31.62,10.13c7.95,2.69,16.18,5.47,24.49,8.06c2.96,0.93,5.93,1.82,8.8,2.64
			c19.45,5.6,34.63,8.51,47.77,9.17C124.9,322.07,127.1,322.13,129.29,322.13z"/>
	</g>
	<g id="Group_143_1_" transform="translate(107.127 117.522)">
		<path id="Path_3452_1_" class="st1" d="M143.68,338.78c15.13,0,29.64-2.83,42.01-8.2c8.89-3.74,16.93-9.26,23.6-16.23
			c5.82-6.29,10.66-13.43,14.34-21.17c2.89-5.94,5.39-12.05,7.49-18.31c8.21-23.58,13.13-51.08,15.04-84.07
			c0.36-6.23,0.58-12.56,0.81-19.25c0.73-21.31,1.48-43.35,6.98-66.53c1.26-5.39,2.62-10.3,4.16-15.01
			c4.29-13.32,10.4-25.99,18.16-37.65c8.11-12.23,18.31-22.94,30.13-31.63c1.95-1.42,3.97-2.79,6.02-4.08
			c7.06-4.44,14.62-8.03,22.52-10.69c8.05-2.73,16.41-4.41,24.88-5.01c8.06-0.54,16.16-0.09,24.11,1.35
			c7.92,1.42,15.63,3.79,22.97,7.06c31.42,14.03,50.24,42.99,45.79,70.43l0.6,0.1c1.16-7.24,0.81-14.64-1.04-21.73
			c-1.88-7.13-4.98-13.89-9.17-19.96c-8.4-12.35-21.16-22.79-35.93-29.39c-7.39-3.29-15.15-5.68-23.11-7.11
			c-8-1.45-16.15-1.91-24.26-1.36c-8.53,0.6-16.94,2.3-25.03,5.04c-7.95,2.67-15.55,6.28-22.65,10.75c-2.06,1.29-4.09,2.67-6.05,4.1
			c-11.88,8.74-22.13,19.49-30.28,31.78c-7.79,11.7-13.92,24.42-18.23,37.8c-1.54,4.73-2.91,9.65-4.17,15.06
			c-5.51,23.23-6.26,45.31-6.99,66.65c-0.23,6.69-0.44,13.01-0.81,19.24c-1.91,32.93-6.82,60.38-15.01,83.91
			c-2.09,6.24-4.58,12.33-7.46,18.24c-3.66,7.69-8.46,14.77-14.24,21.02c-6.62,6.91-14.59,12.39-23.41,16.09
			c-12.51,5.43-27.22,8.24-42.55,8.14c-13.43-0.09-29.15-2.68-48.08-7.92c-2.91-0.8-5.88-1.68-8.84-2.59
			c-11.11-3.42-21.91-7.25-32.35-10.95c-8.3-2.94-16.14-5.72-23.74-8.17c-9.31-2.99-16.73-5.12-23.37-6.71
			c-10.37-2.48-18.35-4.23-25.88-5.65c-5.85-1.12-11.68-2.15-17.32-3.14c-7.17-1.26-14.58-2.57-22.12-4.08
			c-24.5-5.11-48.53-12.25-71.84-21.35c-24.33-9.44-48.14-20.15-71.35-32.09c-15.66-7.95-32.31-16.99-50.91-27.66
			c-8.23-4.72-16.67-9.49-24.84-14.11c-32.39-18.32-65.88-37.27-96.85-58.51c-9.34-6.4-18.2-13.76-26.76-20.88
			c-4.49-3.73-9.13-7.59-13.79-11.26c-2.83-2.23-5.69-4.51-8.45-6.71c-9.09-7.24-18.49-14.73-28.24-21.67
			c-13.06-9.28-24.42-15.72-35.75-20.27c-6.65-2.7-13.56-4.73-20.61-6.06c-7.38-1.37-14.9-1.84-22.39-1.39
			c-13.01,0.8-25.64,4.3-38.62,10.69c-9.85,4.85-19.82,11.33-31.39,20.4c-4.61,3.61-8.98,7.34-13.03,10.83
			c-2.83,2.44-5.67,4.95-8.43,7.37c-2.38,2.09-4.83,4.25-7.27,6.37c-10.57,9.24-21.63,17.9-33.13,25.95
			c-12,8.36-24.66,15.74-37.84,22.07c-13.8,6.61-28.27,11.74-43.15,15.31c-31.12,7.37-63.36,5.57-94.54,3.84
			c-3.03-0.17-6.17-0.34-9.23-0.5c-17.66-0.93-35.05-0.82-51.87-0.71c-15.64,0.1-30.42,0.2-45.48-0.47
			c-11.54-0.53-23.4-1.23-36.25-2.12c-22.58-1.56-45.27-3.63-62.52-5.26c-2.91-0.27-5.83-0.54-8.76-0.82
			c-20.89-1.95-42.49-3.98-64.45-5.56c-52.9-3.69-94.98-4.19-132.42-1.59c-3,0.21-6.03,0.44-8.98,0.7
			c-16.83,1.42-33.57,3.82-50.12,7.16l0.12,0.59c16.53-3.34,33.25-5.73,50.05-7.15c2.95-0.26,5.97-0.49,8.97-0.7
			c37.41-2.6,79.46-2.09,132.33,1.59c21.95,1.58,43.55,3.6,64.44,5.56c2.93,0.27,5.85,0.55,8.76,0.82
			c17.25,1.63,39.95,3.7,62.53,5.26c12.85,0.9,24.71,1.59,36.26,2.13c15.08,0.67,29.86,0.57,45.51,0.47
			c16.81-0.11,34.19-0.22,51.84,0.71c3.06,0.16,6.2,0.34,9.23,0.5c13.73,0.77,27.68,1.54,41.65,1.54c17.78,0,35.59-1.26,53.06-5.4
			c14.92-3.58,29.43-8.73,43.27-15.35c13.22-6.34,25.9-13.74,37.93-22.11c11.52-8.06,22.6-16.73,33.18-25.99
			c2.44-2.12,4.9-4.28,7.27-6.37c2.75-2.42,5.6-4.93,8.42-7.36c4.04-3.49,8.41-7.21,13-10.81c11.53-9.04,21.47-15.5,31.28-20.33
			c12.91-6.35,25.46-9.83,38.39-10.63c7.44-0.45,14.91,0.01,22.24,1.38c7.02,1.33,13.88,3.34,20.5,6.03
			c11.29,4.53,22.61,10.95,35.63,20.2c9.74,6.92,19.13,14.41,28.21,21.65c2.77,2.2,5.63,4.48,8.45,6.71
			c4.65,3.67,9.29,7.52,13.78,11.25c8.58,7.13,17.45,14.5,26.81,20.91c30.99,21.25,64.49,40.21,96.89,58.54
			c8.16,4.62,16.6,9.39,24.84,14.11c18.61,10.67,35.27,19.72,50.93,27.67c23.22,11.95,47.06,22.67,71.41,32.12
			c23.35,9.11,47.41,16.26,71.94,21.38c7.55,1.52,14.96,2.82,22.13,4.09c5.64,0.99,11.47,2.02,17.31,3.14
			c7.52,1.42,15.49,3.16,25.85,5.65c6.62,1.59,14.03,3.71,23.32,6.7c7.59,2.44,15.43,5.22,23.73,8.16
			c10.45,3.71,21.26,7.54,32.37,10.96c2.96,0.92,5.94,1.79,8.86,2.59c18.98,5.26,34.76,7.86,48.24,7.94L143.68,338.78z"/>
	</g>
	<g id="Group_144_1_" transform="translate(96.417 108.49)">
		<path id="Path_3453_1_" class="st1" d="M159.17,355.66c1.33,0,2.64-0.02,3.93-0.07c15.69-0.57,30.55-4.34,42.96-10.93
			c8.85-4.57,16.6-11.02,22.71-18.89c5.01-6.48,8.99-13.96,12.53-23.54c2.33-6.49,4.24-13.12,5.73-19.85
			c3.05-13.42,5.12-27.05,6.21-40.77c1.19-13.89,1.73-29.23,1.66-46.89c-0.02-4.84-0.1-9.69-0.19-14.83
			c-0.2-11.48-0.4-23.35,0.13-35.59c0.45-12.62,1.98-25.17,4.56-37.53c1.17-5.46,2.46-10.47,3.97-15.31
			c4.17-13.56,10.28-26.44,18.13-38.26c8.22-12.43,18.59-23.31,30.62-32.11c1.98-1.44,4.03-2.82,6.11-4.13
			c7.16-4.5,14.82-8.13,22.82-10.84c23.9-8.09,49.96-6.95,73.07,3.19c31.9,13.98,51.15,42.85,46.8,70.23l0.63,0.1
			c1.14-7.26,0.74-14.68-1.19-21.77c-1.96-7.14-5.16-13.88-9.44-19.92c-8.58-12.28-21.56-22.66-36.55-29.22
			c-7.52-3.29-15.4-5.66-23.48-7.07c-16.74-2.99-33.97-1.65-50.05,3.87c-8.05,2.72-15.76,6.38-22.96,10.9
			c-2.09,1.31-4.15,2.71-6.14,4.15c-12.09,8.85-22.51,19.78-30.77,32.28c-7.88,11.87-14.01,24.81-18.21,38.42
			c-1.51,4.86-2.82,9.89-3.99,15.37c-2.59,12.39-4.12,24.98-4.57,37.63c-0.53,12.25-0.33,24.14-0.13,35.63
			c0.09,5.13,0.17,9.98,0.19,14.82c0.07,17.64-0.47,32.95-1.65,46.83c-1.08,13.69-3.15,27.29-6.19,40.68
			c-1.48,6.7-3.38,13.31-5.7,19.77c-3.52,9.52-7.47,16.94-12.44,23.37c-6.05,7.8-13.73,14.18-22.5,18.71
			c-12.33,6.54-27.09,10.29-42.69,10.85c-13.86,0.5-29.73-1.69-48.53-6.7c-2.93-0.78-5.92-1.63-8.89-2.54
			c-13.85-4.21-27.05-9.19-39.81-14c-5.66-2.13-11-4.15-16.25-6.04c-7.02-2.53-15.27-5.44-23.28-7.86
			c-9.27-2.8-17.61-5.3-25.92-7.54c-5.93-1.61-11.85-3.15-17.58-4.63c-7.17-1.86-14.59-3.79-22.11-5.88
			c-24.43-6.94-48.34-15.57-71.57-25.82c-22.69-9.92-46.47-21.71-70.68-35.07c-15.5-8.5-31.99-18.08-50.42-29.29
			c-8.42-5.12-17.06-10.31-25.41-15.33c-31.8-19.1-64.69-38.86-95.17-60.62c-9.66-6.9-18.86-14.71-27.76-22.28
			c-4.65-3.95-9.46-8.04-14.27-11.94c-2.96-2.4-5.95-4.85-8.85-7.22c-9.39-7.69-19.1-15.65-29.19-23.03
			c-13.53-9.89-25.34-16.76-37.15-21.62c-6.93-2.88-14.13-5.04-21.5-6.46c-7.71-1.46-15.57-1.96-23.41-1.47
			c-13.61,0.87-26.79,4.61-40.3,11.46c-10.25,5.19-20.6,12.12-32.57,21.8c-4.82,3.9-9.33,7.86-13.48,11.57
			c-2.85,2.54-5.71,5.14-8.49,7.65c-2.53,2.3-5.15,4.67-7.75,7c-10.93,9.83-22.39,19.05-34.35,27.61
			c-12.46,8.85-25.63,16.66-39.37,23.35c-14.38,6.99-29.49,12.38-45.04,16.08c-17.31,4.06-34.95,5.4-52.58,5.4
			c-17.19,0-34.38-1.27-51.3-2.52l-4.63-0.34c-16.45-1.2-32.71-1.68-48.43-2.14c-17.11-0.5-33.28-0.97-49.71-2.3
			c-11.38-0.94-23.32-2.07-36.5-3.45c-19.93-2.07-39.44-4.43-62.87-7.29c-25.8-3.12-49.15-5.87-73.57-8
			c-24.13-2.05-45.83-3.26-66.32-3.69c-22.28-0.54-44.57,0.04-66.79,1.75c-3.02,0.25-6.06,0.52-9.03,0.82
			c-16.93,1.66-33.73,4.43-50.3,8.29l0.15,0.62c16.54-3.85,33.32-6.61,50.22-8.28c2.96-0.3,6-0.57,9.01-0.82
			c22.2-1.71,44.47-2.29,66.73-1.75c20.48,0.43,42.16,1.64,66.28,3.69c24.41,2.13,47.75,4.88,73.55,8
			c23.44,2.86,42.95,5.22,62.88,7.29c13.19,1.38,25.13,2.51,36.51,3.45c16.45,1.33,32.63,1.8,49.75,2.3
			c15.71,0.46,31.96,0.93,48.4,2.14c1.54,0.11,3.09,0.23,4.63,0.34c16.92,1.25,34.14,2.52,51.34,2.52c17.67,0,35.35-1.34,52.72-5.42
			c15.6-3.71,30.75-9.12,45.17-16.13c13.77-6.71,26.97-14.53,39.46-23.4c11.97-8.57,23.45-17.81,34.4-27.66
			c2.6-2.33,5.22-4.7,7.75-7c2.77-2.52,5.64-5.11,8.48-7.65c4.15-3.7,8.66-7.66,13.46-11.55c11.93-9.65,22.24-16.56,32.45-21.73
			c13.43-6.8,26.54-10.53,40.06-11.39c7.78-0.48,15.59,0.01,23.25,1.46c7.33,1.41,14.49,3.57,21.38,6.43
			c11.77,4.83,23.53,11.68,37.02,21.54c10.07,7.37,19.78,15.32,29.16,23.01c2.9,2.37,5.89,4.82,8.85,7.22
			c4.81,3.9,9.61,7.98,14.26,11.93c8.91,7.57,18.12,15.4,27.8,22.31c30.51,21.78,63.4,41.54,95.22,60.65
			c8.35,5.02,16.99,10.2,25.41,15.33c18.43,11.21,34.93,20.8,50.44,29.3c24.23,13.36,48.03,25.17,70.73,35.09
			c23.26,10.26,47.2,18.9,71.66,25.84c7.53,2.1,14.95,4.02,22.12,5.88c5.72,1.48,11.64,3.02,17.57,4.63
			c8.29,2.24,16.64,4.73,25.9,7.53c7.99,2.41,16.23,5.32,23.24,7.85c5.25,1.89,10.59,3.91,16.24,6.04
			c12.77,4.82,25.97,9.8,39.85,14.01c2.98,0.91,5.98,1.76,8.91,2.54C131.49,353.43,146.2,355.66,159.17,355.66z"/>
	</g>
	<g id="Group_145_1_" transform="translate(85.706 99.459)">
		<path id="Path_3454_1_" class="st1" d="M175.17,372.71c2.8,0,5.51-0.1,8.14-0.31c15.99-1.24,30.91-5.97,43.14-13.66
			c8.81-5.43,16.27-12.8,21.8-21.54c4.59-7.25,8-15.49,10.72-25.91c1.77-7.03,3.1-14.17,3.97-21.38c3.84-29.07,2.6-61.03,0.69-91.24
			c-0.21-3.33-0.45-6.77-0.68-10.1c-0.86-12.55-1.76-25.53-1.76-38.92c-0.12-13.78,1.1-27.53,3.65-41.07
			c1.07-5.54,2.31-10.65,3.79-15.61c8.75-29.48,26.22-54.85,49.2-71.45c2.01-1.45,4.09-2.86,6.2-4.18
			c7.26-4.55,15.02-8.23,23.13-10.99c16.21-5.6,33.57-6.98,50.47-4.02c8.15,1.4,16.1,3.74,23.7,6.99
			c15.09,6.52,28.19,16.77,36.87,28.85c9.33,12.98,13.11,27.22,10.95,41.17l0.67,0.1c2.19-14.14-1.63-28.55-11.07-41.67
			c-8.76-12.18-21.95-22.51-37.15-29.08c-7.65-3.26-15.65-5.62-23.85-7.03c-17-2.98-34.48-1.59-50.8,4.05
			c-8.16,2.77-15.97,6.48-23.27,11.06c-2.12,1.33-4.22,2.74-6.24,4.2c-12.3,8.95-22.9,20.05-31.27,32.76
			c-7.98,12.04-14.1,25.2-18.18,39.05c-1.48,4.99-2.72,10.11-3.8,15.68c-2.56,13.58-3.78,27.38-3.66,41.2
			c0,13.41,0.89,26.4,1.76,38.97c0.23,3.33,0.47,6.77,0.68,10.1c1.91,30.18,3.15,62.1-0.68,91.11c-0.86,7.18-2.18,14.29-3.95,21.3
			c-3.91,14.92-11.1,33.75-32.23,47.05c-8.46,5.33-22.76,12.01-42.83,13.56c-14.04,1.09-30.52-0.75-48.97-5.48
			c-2.96-0.76-5.96-1.59-8.94-2.49c-16.55-4.96-31.94-11.21-46.83-17.25c-3.18-1.29-6.19-2.51-9.19-3.71
			c-7.29-2.92-15.55-6.22-23.19-9.01c-2.57-0.94-5.1-1.87-7.55-2.77c-6.39-2.35-12.42-4.56-18.4-6.65
			c-6.02-2.11-12.05-4.17-17.88-6.16c-7.16-2.45-14.57-4.97-22.06-7.64c-24.32-8.75-48.12-18.86-71.3-30.3
			c-22.6-11.1-46.16-23.89-70.02-38.04c-15.34-9.05-31.67-19.17-49.93-30.92c-8.58-5.52-17.37-11.12-25.88-16.53
			c-31.25-19.89-63.56-40.45-93.61-62.74c-9.97-7.4-19.52-15.67-28.75-23.68c-4.81-4.17-9.78-8.48-14.76-12.62
			c-3.09-2.57-6.21-5.19-9.23-7.73c-9.69-8.15-19.72-16.57-30.14-24.39c-14-10.5-26.25-17.8-38.55-22.96
			c-7.21-3.06-14.72-5.36-22.4-6.87c-8.04-1.55-16.25-2.07-24.43-1.55c-7.5,0.51-14.91,1.87-22.1,4.05
			c-6.87,2.11-13.52,4.84-19.89,8.18c-10.66,5.53-21.38,12.91-33.74,23.2c-5.04,4.2-9.88,8.57-13.94,12.3
			c-2.87,2.64-5.77,5.33-8.57,7.94c-2.68,2.5-5.46,5.09-8.21,7.62c-11.28,10.43-23.15,20.21-35.56,29.27
			c-12.9,9.36-26.58,17.6-40.88,24.65c-14.97,7.35-30.72,13-46.95,16.83c-16.71,3.89-35.27,5.66-56.73,5.41
			c-19.4-0.22-39.12-2.05-56.52-3.67c-14.71-1.36-29.29-2.29-43.4-3.19c-19.13-1.22-37.2-2.37-55.53-4.51
			c-11.18-1.33-23.2-2.89-36.75-4.78c-15.95-2.21-31.69-4.58-48.36-7.09c-4.86-0.73-9.88-1.49-14.86-2.23
			c-23.34-3.46-48.44-7.02-73.93-9.62c-51.23-5.14-95.01-5.88-133.82-2.28c-3.03,0.28-6.09,0.6-9.07,0.94
			c-17.04,1.9-33.91,5.05-50.49,9.42l0.18,0.65c16.54-4.36,33.39-7.5,50.39-9.4c2.98-0.34,6.03-0.66,9.06-0.94
			c16.02-1.49,32.89-2.23,50.78-2.23c25.41,0,52.87,1.5,82.91,4.51c25.47,2.61,50.57,6.16,73.9,9.62c4.98,0.74,10,1.5,14.86,2.23
			c16.67,2.51,32.42,4.88,48.37,7.09c13.56,1.89,25.58,3.46,36.77,4.78c18.34,2.15,36.42,3.3,55.56,4.51
			c14.1,0.9,28.68,1.82,43.38,3.19c17.41,1.62,37.15,3.45,56.57,3.67c1.31,0.01,2.61,0.02,3.9,0.02c19.87,0,37.24-1.79,52.99-5.45
			c16.28-3.84,32.08-9.51,47.09-16.88c14.34-7.06,28.04-15.33,40.98-24.71c12.42-9.08,24.32-18.86,35.62-29.31
			c2.76-2.53,5.53-5.12,8.22-7.62c2.8-2.61,5.69-5.31,8.56-7.94c4.06-3.72,8.89-8.09,13.92-12.28
			c18.41-15.33,43.61-33.19,75.35-35.28c8.12-0.52,16.27,0,24.26,1.54c7.64,1.5,15.1,3.79,22.26,6.83
			c12.25,5.14,24.46,12.41,38.41,22.88c10.41,7.81,20.43,16.23,30.11,24.37c3.02,2.54,6.15,5.16,9.23,7.73
			c4.97,4.13,9.94,8.44,14.75,12.61c9.24,8.01,18.8,16.3,28.79,23.71c30.08,22.3,62.4,42.87,93.65,62.77
			c8.5,5.41,17.3,11.01,25.87,16.53c18.26,11.76,34.6,21.88,49.95,30.94c23.87,14.16,47.45,26.96,70.06,38.07
			c23.2,11.45,47.03,21.57,71.37,30.32c7.5,2.67,14.9,5.2,22.07,7.64c5.83,1.99,11.85,4.05,17.88,6.16
			c5.98,2.09,12.01,4.3,18.39,6.65c2.45,0.9,4.98,1.83,7.56,2.77c7.62,2.78,15.88,6.09,23.17,9c3.01,1.2,6.01,2.42,9.19,3.71
			c14.9,6.05,30.31,12.3,46.89,17.27c2.99,0.9,6,1.74,8.97,2.49C149.19,370.77,162.96,372.71,175.17,372.71z"/>
	</g>
	<g id="Group_146_1_" transform="translate(74.996 90.426)">
		<path id="Path_3455_1_" class="st1" d="M191.22,389.92c4.11,0.01,8.22-0.23,12.3-0.7c20.59-2.44,34.91-10.26,43.31-16.4
			c8.77-6.31,15.93-14.6,20.89-24.2c4.12-7.93,7.04-17.18,8.92-28.28c1.21-7.58,1.95-15.23,2.21-22.91
			c0.54-15.07,0.13-30.16-1.21-45.18c-1.22-15.28-3.04-30.86-5.28-49.65c-0.2-1.66-0.4-3.33-0.6-5.01
			c-1.65-13.68-3.36-27.83-3.99-42.44c-0.81-14.98,0.04-30.01,2.52-44.81c0.93-5.36,2.13-10.67,3.6-15.91
			c8.43-29.8,26.06-55.56,49.65-72.54c2.04-1.47,4.16-2.89,6.29-4.23c7.36-4.6,15.22-8.33,23.43-11.14
			c16.44-5.7,34.05-7.15,51.2-4.21c8.26,1.39,16.33,3.72,24.06,6.95c15.3,6.48,28.61,16.67,37.47,28.68
			c9.55,12.94,13.48,27.17,11.36,41.15l0.7,0.11c2.15-14.17-1.83-28.57-11.49-41.67c-8.94-12.11-22.35-22.37-37.77-28.91
			c-7.77-3.26-15.9-5.61-24.21-7c-17.27-2.96-35-1.5-51.55,4.24c-8.26,2.82-16.17,6.58-23.58,11.2c-2.15,1.34-4.28,2.77-6.33,4.25
			c-12.52,9.06-23.28,20.33-31.76,33.24c-8.07,12.21-14.19,25.6-18.15,39.68c-1.48,5.26-2.68,10.6-3.62,15.98
			c-2.49,14.85-3.34,29.93-2.53,44.96c0.63,14.63,2.34,28.8,4,42.49c0.2,1.68,0.4,3.35,0.6,5.01c2.24,18.78,4.06,34.36,5.28,49.62
			c1.34,14.99,1.74,30.05,1.2,45.09c-0.26,7.65-0.99,15.27-2.2,22.82c-1.87,11.02-4.77,20.2-8.85,28.07
			c-4.91,9.5-11.99,17.71-20.68,23.96c-8.32,6.09-22.54,13.85-42.97,16.27c-14.38,1.7-31,0.27-49.41-4.25
			c-2.98-0.73-6-1.55-8.99-2.44c-19.19-5.67-37.36-13.68-53.4-20.75l-2.59-1.14c-2.65-1.17-5.28-2.33-7.82-3.46
			c-5.32-2.36-10.34-4.58-15.27-6.7c-4.64-1.98-9.11-3.95-13.44-5.84s-8.42-3.69-12.55-5.46c-6.15-2.64-12.31-5.24-18.27-7.76
			c-7.13-3.01-14.5-6.12-21.93-9.34c-23.26-10.06-47.16-21.76-71.03-34.77c-22.52-12.29-45.85-26.09-69.35-41.02
			c-15.19-9.6-31.36-20.26-49.44-32.56c-8.7-5.92-17.62-11.93-26.25-17.73c-30.71-20.67-62.47-42.05-92.14-64.86
			c-10.28-7.91-20.17-16.64-29.74-25.08c-4.97-4.39-10.11-8.93-15.25-13.29c-3.22-2.73-6.47-5.53-9.61-8.24
			c-10-8.6-20.34-17.49-31.1-25.76c-14.47-11.11-27.16-18.84-39.95-24.31c-7.48-3.24-15.29-5.67-23.29-7.27
			c-8.38-1.64-16.93-2.19-25.45-1.63c-7.81,0.54-15.54,1.99-23.02,4.31c-7.14,2.24-14.06,5.15-20.66,8.69
			c-11.06,5.88-22.16,13.7-34.92,24.61c-5.25,4.49-10.23,9.11-14.4,13.04c-2.9,2.73-5.83,5.53-8.66,8.24s-5.75,5.51-8.66,8.24
			c-11.63,11.03-23.91,21.36-36.77,30.94c-13.35,9.87-27.53,18.55-42.39,25.95c-15.55,7.72-31.95,13.62-48.86,17.58
			c-38.11,8.79-77.55,5.47-117.99,0.95c-12.04-1.34-24.04-2.5-35.64-3.61c-22.11-2.12-42.99-4.13-64.06-7.35
			c-11.1-1.71-22.85-3.65-37.01-6.11c-11.93-2.06-24.19-4.28-36.05-6.42c-8.98-1.62-18.27-3.3-27.53-4.93
			c-21.62-3.79-47.36-8.09-74.28-11.25c-23.58-2.72-46.13-4.38-67.01-4.94c-22.53-0.69-45.08,0.08-67.52,2.31
			c-3.05,0.32-6.12,0.68-9.12,1.06c-17.15,2.14-34.09,5.67-50.67,10.55l0.2,0.68c16.54-4.87,33.46-8.39,50.57-10.53
			c2.99-0.38,6.05-0.74,9.1-1.06c22.4-2.23,44.92-3,67.42-2.31c20.86,0.56,43.38,2.22,66.95,4.94c26.91,3.15,52.63,7.45,74.24,11.24
			c9.26,1.63,18.54,3.31,27.52,4.93c11.86,2.14,24.12,4.35,36.05,6.42c14.15,2.46,25.92,4.4,37.02,6.11
			c21.1,3.22,41.99,5.23,64.1,7.35c11.6,1.11,23.6,2.27,35.63,3.61c40.5,4.53,80.01,7.85,118.22-0.96
			c16.96-3.97,33.41-9.89,49.01-17.64c14.9-7.42,29.12-16.12,42.5-26.01c12.88-9.59,25.19-19.94,36.84-30.99
			c2.91-2.74,5.84-5.54,8.67-8.25s5.75-5.5,8.65-8.23c4.17-3.92,9.13-8.53,14.37-13.01c19.02-16.26,45.1-35.21,78.19-37.44
			c8.46-0.56,16.95-0.01,25.26,1.62c7.95,1.59,15.71,4.01,23.14,7.23c12.73,5.45,25.38,13.14,39.8,24.22
			c10.75,8.26,21.08,17.14,31.07,25.73c3.15,2.7,6.4,5.5,9.62,8.24c5.13,4.36,10.27,8.9,15.24,13.29
			c9.58,8.45,19.48,17.19,29.78,25.11c29.68,22.83,61.45,44.21,92.18,64.89c8.63,5.81,17.54,11.81,26.25,17.73
			c18.09,12.31,34.27,22.96,49.46,32.57c23.51,14.94,46.86,28.75,69.39,41.04c23.89,13.02,47.81,24.73,71.09,34.8
			c7.43,3.21,14.81,6.33,21.94,9.34c5.96,2.52,12.12,5.12,18.26,7.76c4.13,1.77,8.22,3.56,12.55,5.46s8.81,3.86,13.45,5.85
			c4.93,2.11,9.95,4.34,15.27,6.69c2.54,1.13,5.17,2.29,7.82,3.46l2.59,1.14c16.06,7.07,34.26,15.09,53.48,20.78
			c3,0.89,6.03,1.71,9.02,2.44C166.07,388.1,178.61,389.76,191.22,389.92z"/>
	</g>
	<g id="Group_147_1_" transform="translate(64.283 81.392)">
		<path id="Path_3456_1_" class="st1" d="M207.61,407.25c5.4,0.02,10.79-0.39,16.12-1.21c8.43-1.31,16.64-3.75,24.41-7.26
			c6.86-3.08,13.27-7.08,19.06-11.89c8.73-7.21,15.59-16.42,19.98-26.86c3.72-8.73,6.05-18.75,7.12-30.65
			c0.66-8.13,0.81-16.29,0.44-24.44c-0.92-26.18-5.78-53.72-10.94-82.87c-0.89-5.06-1.82-10.29-2.73-15.55
			c-4.97-28.74-10.61-61.32-5.36-94.42c0.85-5.46,1.99-10.87,3.42-16.22c8.19-30.18,25.98-56.32,50.1-73.63
			c2.07-1.49,4.22-2.93,6.39-4.28c7.46-4.65,15.42-8.44,23.73-11.28c16.67-5.81,34.53-7.32,51.94-4.4
			c8.37,1.37,16.57,3.7,24.41,6.92c15.52,6.45,29.04,16.57,38.08,28.5c9.78,12.9,13.85,27.12,11.78,41.11l0.74,0.11
			c2.1-14.2-2.02-28.61-11.92-41.67C465.27,25.25,451.63,15.04,436,8.55c-7.9-3.25-16.15-5.59-24.58-6.97
			c-17.53-2.94-35.52-1.42-52.3,4.43c-8.37,2.87-16.38,6.68-23.89,11.36c-2.18,1.36-4.34,2.81-6.43,4.3
			c-12.72,9.17-23.65,20.61-32.24,33.73c-8.15,12.39-14.28,25.99-18.15,40.31c-1.43,5.37-2.58,10.81-3.43,16.29
			c-5.28,33.22,0.38,65.86,5.36,94.66c0.91,5.26,1.83,10.49,2.73,15.55c5.15,29.13,10.01,56.65,10.93,82.77
			c0.36,8.12,0.22,16.25-0.44,24.35c-1.07,11.82-3.38,21.77-7.06,30.43c-4.34,10.33-11.13,19.45-19.77,26.58
			c-5.74,4.76-12.09,8.72-18.89,11.78c-7.71,3.48-15.86,5.9-24.22,7.2c-8.09,1.21-16.28,1.52-24.43,0.91
			c-8.56-0.62-17.06-1.94-25.42-3.94c-3-0.71-6.05-1.51-9.04-2.39c-19.91-5.81-38.56-14.45-55.95-22.81
			c-5.51-2.65-10.82-5.28-15.96-7.82c-2.43-1.2-4.73-2.34-7.05-3.48c-5.95-2.93-11.65-5.84-17.17-8.67
			c-3.05-1.56-5.93-3.04-8.87-4.52c-6.31-3.2-12.64-6.38-18.77-9.45c-7.05-3.54-14.35-7.2-21.68-10.93
			c-23.56-11.99-47.37-25.19-70.76-39.24c-22.44-13.49-45.54-28.3-68.69-44c-15.03-10.16-31.04-21.34-48.95-34.19
			c-8.81-6.32-17.83-12.73-26.55-18.93c-30.2-21.46-61.43-43.65-90.74-66.99c-10.58-8.42-20.82-17.61-30.72-26.48
			c-5.14-4.61-10.45-9.37-15.75-13.97c-3.26-2.83-6.56-5.73-9.75-8.53c-10.39-9.11-21.13-18.54-32.3-27.34
			c-15-11.73-28.15-19.88-41.36-25.64c-7.76-3.42-15.86-6-24.17-7.69c-8.71-1.74-17.6-2.32-26.46-1.72
			c-8.13,0.57-16.16,2.11-23.93,4.57c-7.42,2.38-14.6,5.46-21.44,9.2c-11.46,6.22-22.93,14.49-36.1,26.01
			c-5.47,4.79-10.58,9.65-14.86,13.77c-2.94,2.83-5.9,5.74-8.77,8.54c-2.97,2.91-6.04,5.91-9.09,8.85
			c-11.99,11.63-24.67,22.52-37.99,32.6c-13.79,10.38-28.48,19.5-43.91,27.25c-16.14,8.09-33.18,14.25-50.76,18.34
			c-17.81,4.08-36.04,5.58-54.03,5.58c-23.83,0-47.23-2.64-68.7-5.43c-7.58-0.99-15.2-1.94-22.56-2.86
			c-26.95-3.38-52.4-6.57-77.93-11.36c-10.83-2.05-22.67-4.41-37.26-7.44c-8.94-1.85-18.1-3.79-26.95-5.66
			c-12.05-2.55-24.51-5.19-36.98-7.72c-20.03-4.05-46.61-9.17-74.64-12.87c-23.55-3.07-46.21-4.94-67.35-5.57
			c-22.66-0.76-45.34,0.11-67.88,2.6c-3.07,0.36-6.15,0.75-9.16,1.18c-17.26,2.39-34.28,6.3-50.85,11.68l0.23,0.71
			c16.53-5.37,33.51-9.27,50.72-11.65c3-0.43,6.08-0.82,9.14-1.18c22.5-2.49,45.15-3.35,67.77-2.59c21.11,0.62,43.75,2.5,67.28,5.56
			c28.01,3.7,54.57,8.81,74.59,12.86c12.46,2.53,24.92,5.17,36.97,7.72c8.85,1.87,18.01,3.81,26.95,5.66
			c14.6,3.03,26.44,5.39,37.27,7.44c25.55,4.8,51.02,7.99,77.98,11.37c7.36,0.92,14.97,1.88,22.55,2.86
			c18.24,2.37,39.8,4.86,61.33,5.35c23.02,0.52,43.18-1.29,61.66-5.52c17.64-4.11,34.74-10.28,50.93-18.4
			c15.46-7.77,30.2-16.91,44.02-27.32c13.34-10.1,26.05-21.01,38.06-32.66c3.06-2.94,6.13-5.95,9.1-8.86
			c2.86-2.8,5.83-5.7,8.76-8.54c4.27-4.12,9.37-8.97,14.83-13.75c19.64-17.19,46.59-37.22,81.03-39.6
			c8.79-0.59,17.62-0.02,26.26,1.71c8.26,1.68,16.31,4.24,24.02,7.64c13.16,5.74,26.25,13.85,41.2,25.54
			c11.16,8.79,21.89,18.21,32.27,27.31c3.19,2.8,6.49,5.69,9.75,8.53c5.29,4.6,10.6,9.36,15.74,13.96
			c9.91,8.89,20.16,18.07,30.76,26.51c29.33,23.36,60.57,45.55,90.78,67.02c8.72,6.2,17.74,12.61,26.55,18.92
			c17.92,12.86,33.93,24.04,48.97,34.2c23.15,15.71,46.28,30.52,68.72,44.02c23.41,14.06,47.23,27.27,70.8,39.27
			c7.33,3.73,14.63,7.39,21.68,10.93c6.13,3.07,12.46,6.26,18.77,9.45c2.93,1.48,5.82,2.96,8.87,4.52
			c5.51,2.82,11.22,5.74,17.18,8.67c2.31,1.14,4.61,2.28,7.04,3.48c5.14,2.55,10.46,5.18,15.97,7.83
			c17.42,8.37,36.11,17.03,56.07,22.85c3.01,0.88,6.06,1.69,9.08,2.39c8.39,2.01,16.93,3.33,25.54,3.96
			C202.01,407.15,204.84,407.25,207.61,407.25z"/>
	</g>
	<g id="Group_148_1_" transform="translate(53.571 72.358)">
		<path id="Path_3457_1_" class="st1" d="M224.25,424.68c6.61,0.03,13.2-0.58,19.69-1.82c8.58-1.67,16.87-4.54,24.65-8.53
			c6.93-3.54,13.32-8.04,19-13.36c4.46-4.2,8.38-8.93,11.67-14.1c3.05-4.84,5.53-10.01,7.39-15.41c3.31-9.54,5.05-20.34,5.32-33.02
			c0.1-8.68-0.34-17.35-1.31-25.97c-2.61-24.47-8.5-49.37-14.73-75.73c-2.02-8.53-4.1-17.34-6.1-26.28
			c-3.16-14.08-6.69-30.49-8.64-47.09c-2.14-18.16-2.14-34.35,0-49.49c0.77-5.56,1.85-11.07,3.23-16.52
			c7.87-30.5,25.83-57.03,50.55-74.71c2.1-1.5,4.28-2.96,6.48-4.33c7.56-4.7,15.62-8.54,24.03-11.43
			c16.9-5.92,35.01-7.49,52.68-4.59c8.49,1.36,16.8,3.67,24.77,6.89c15.73,6.41,29.47,16.47,38.68,28.33
			c10,12.86,14.21,27.07,12.19,41.08l0.77,0.11c2.06-14.23-2.21-28.64-12.34-41.68c-9.3-11.96-23.15-22.11-39-28.57
			c-8.03-3.24-16.39-5.57-24.94-6.94c-17.79-2.92-36.04-1.34-53.06,4.62c-8.47,2.91-16.59,6.77-24.19,11.51
			c-2.21,1.38-4.41,2.84-6.52,4.35c-12.94,9.28-24.04,20.88-32.74,34.22c-8.24,12.56-14.36,26.39-18.12,40.94
			c-1.39,5.47-2.47,11.01-3.25,16.6c-2.14,15.2-2.14,31.46,0,49.69c1.96,16.63,5.49,33.07,8.65,47.17c2,8.94,4.09,17.76,6.11,26.29
			c6.23,26.34,12.11,51.21,14.72,75.63c0.97,8.59,1.41,17.23,1.31,25.87c-0.57,27.28-8.24,46.98-24.13,61.98
			c-5.62,5.27-11.96,9.72-18.82,13.23c-7.71,3.95-15.94,6.8-24.44,8.45c-8.13,1.54-16.4,2.11-24.66,1.7
			c-8.63-0.41-17.2-1.58-25.62-3.51c-3.03-0.68-6.08-1.47-9.09-2.33c-20.36-5.86-38.91-14.87-55.92-23.73
			c-8.19-4.27-16.01-8.61-22.92-12.45c-6.84-3.8-13.38-7.63-19.7-11.34c-2.09-1.23-4.26-2.5-6.38-3.73
			c-6.55-3.82-13.13-7.65-19.5-11.34c-6.91-4.01-14.05-8.15-21.2-12.33c-23.89-13.96-47.6-28.67-70.48-43.71
			c-22.35-14.71-45.24-30.51-68.02-46.97c-14.87-10.71-30.72-22.43-48.46-35.83c-8.89-6.72-17.99-13.53-26.79-20.12
			c-29.7-22.24-60.4-45.24-89.4-69.12c-10.87-8.95-21.46-18.58-31.7-27.89c-5.3-4.82-10.79-9.81-16.25-14.64
			c-3.4-3.01-6.84-6.09-10.16-9.06c-10.68-9.56-21.73-19.44-33.23-28.68c-15.46-12.34-29.05-20.91-42.76-26.99
			c-8.03-3.6-16.44-6.31-25.06-8.09c-9.04-1.83-18.28-2.43-27.48-1.8c-8.44,0.61-16.79,2.23-24.84,4.84
			c-7.7,2.51-15.13,5.77-22.2,9.71c-15.52,8.59-28.71,19.75-37.29,27.4c-4.57,4.1-9.43,8.71-15.32,14.51
			c-2.98,2.94-5.98,5.94-8.89,8.85c-3.11,3.11-6.32,6.32-9.51,9.46c-12.34,12.23-25.43,23.68-39.2,34.27
			c-31.61,24-64.61,40.03-98.09,47.64c-19.27,4.38-40.16,6.2-63.85,5.56c-18.36-0.5-37.98-2.41-63.61-6.2
			c-31.58-4.66-67.38-9.95-101.27-17.49c-13.66-3.05-27.22-6.29-37.51-8.77c-6.63-1.59-13.4-3.24-19.96-4.83
			c-14.43-3.51-29.36-7.14-44.33-10.58c-29.44-6.74-52.57-11.21-75-14.49c-22.43-3.32-45.03-5.38-67.69-6.19
			c-22.79-0.84-45.6,0.13-68.24,2.88c-3.08,0.39-6.18,0.83-9.2,1.3c-17.38,2.63-34.47,6.92-51.04,12.81l0.27,0.73
			c16.52-5.87,33.56-10.15,50.89-12.78c3.02-0.47,6.11-0.91,9.18-1.3c39.96-5.07,85.62-3.96,135.72,3.31
			c22.4,3.29,45.52,7.75,74.94,14.48c14.96,3.44,29.88,7.06,44.31,10.57c6.55,1.59,13.33,3.24,19.96,4.83
			c10.29,2.48,23.86,5.71,37.52,8.77c33.93,7.54,69.74,12.83,101.33,17.5c25.66,3.79,45.31,5.7,63.7,6.2
			c3.1,0.08,6.16,0.13,9.17,0.13c18.45,0.17,36.86-1.75,54.88-5.7c18.32-4.23,36.07-10.67,52.85-19.15
			c16.03-8.12,31.27-17.71,45.54-28.63c13.8-10.61,26.92-22.08,39.28-34.33c3.2-3.14,6.41-6.36,9.52-9.47
			c2.9-2.91,5.9-5.91,8.88-8.84c5.87-5.78,10.73-10.39,15.29-14.48c20.33-18.12,48.23-39.25,83.87-41.76
			c9.13-0.63,18.3-0.03,27.27,1.79c8.57,1.77,16.92,4.46,24.9,8.04c13.65,6.05,27.18,14.59,42.59,26.88
			c11.48,9.22,22.52,19.1,33.2,28.65c3.33,2.98,6.77,6.05,10.17,9.06c5.45,4.83,10.94,9.81,16.24,14.64
			c10.25,9.32,20.85,18.96,31.73,27.92c29.01,23.89,59.73,46.89,89.43,69.14c8.8,6.59,17.9,13.41,26.79,20.12
			c17.74,13.4,33.6,25.13,48.47,35.84c22.79,16.46,45.69,32.28,68.05,46.99c22.89,15.05,46.62,29.77,70.52,43.74
			c7.15,4.18,14.29,8.32,21.2,12.33c6.37,3.7,12.96,7.52,19.5,11.34c2.12,1.23,4.28,2.5,6.38,3.73c6.32,3.71,12.86,7.54,19.71,11.35
			c6.91,3.84,14.74,8.19,22.93,12.46c17.04,8.88,35.63,17.91,56.06,23.78c3.02,0.87,6.1,1.66,9.14,2.34
			c8.47,1.94,17.09,3.12,25.76,3.53C220.84,424.64,222.55,424.68,224.25,424.68z"/>
	</g>
	<g id="Group_149_1_" transform="translate(42.858 63.322)">
		<path id="Path_3458_1_" class="st1" d="M241.15,442.2c7.74,0.04,15.46-0.8,23.01-2.53c8.73-2.03,17.11-5.34,24.88-9.8
			c6.99-4,13.37-9,18.93-14.82c4.42-4.65,8.23-9.84,11.34-15.45c2.9-5.29,5.18-10.9,6.8-16.72c2.91-10.35,4.06-21.93,3.52-35.39
			c-0.44-9.22-1.47-18.41-3.07-27.5c-4-23.64-10.96-47.12-18.32-71.99c-3.23-10.9-6.57-22.17-9.69-33.61
			c-8.04-29.45-16.25-63.79-11.92-98.73c0.69-5.66,1.71-11.27,3.05-16.82c3.62-14.69,9.7-28.66,17.98-41.32
			c8.76-13.46,19.96-25.15,33.02-34.48c2.13-1.52,4.34-2.99,6.57-4.38c7.66-4.75,15.82-8.64,24.34-11.58
			c17.13-6.02,35.49-7.66,53.42-4.78c8.61,1.35,17.03,3.65,25.13,6.86c15.94,6.38,29.9,16.37,39.28,28.15
			c10.22,12.83,14.58,27.02,12.6,41.06l0.81,0.11c2.01-14.26-2.4-28.67-12.77-41.68c-9.47-11.89-23.55-21.97-39.62-28.4
			c-8.15-3.24-16.64-5.55-25.31-6.91c-18.06-2.91-36.56-1.25-53.81,4.81c-8.58,2.96-16.79,6.87-24.5,11.66
			c-2.24,1.39-4.47,2.88-6.61,4.4c-13.15,9.39-24.42,21.16-33.23,34.7c-8.33,12.74-14.45,26.79-18.09,41.57
			c-1.35,5.57-2.37,11.22-3.06,16.91c-1.93,15.62-1.54,32.2,1.2,50.71c2.55,17.24,6.87,34.11,10.75,48.34
			c3.12,11.45,6.46,22.72,9.69,33.62c7.36,24.84,14.31,48.3,18.3,71.89c1.6,9.06,2.62,18.21,3.06,27.4
			c1.16,29.04-5.66,50.31-21.44,66.96c-5.51,5.77-11.82,10.72-18.75,14.68c-7.7,4.42-16.01,7.69-24.66,9.71
			c-15.02,3.53-32.56,3.32-50.73-0.59c-3.05-0.66-6.12-1.42-9.14-2.28c-10.07-2.91-19.9-6.59-29.4-11
			c-8.05-3.68-16.47-8.02-26.48-13.65c-8.44-4.75-16.28-9.54-22.83-13.6c-7.48-4.64-14.62-9.35-21.53-13.92
			c-1.53-1.01-3.06-2.02-4.59-3.03c-6.96-4.6-13.98-9.21-20.78-13.68c-6.58-4.33-13.39-8.81-20.18-13.29
			c-24.25-16-47.87-32.21-70.21-48.19c-22.27-15.94-44.94-32.75-67.36-49.95c-14.71-11.26-30.41-23.52-47.97-37.46
			c-8.96-7.11-18.12-14.34-26.98-21.32c-29.21-23.03-59.41-46.83-88.12-71.24c-11.15-9.48-22.09-19.56-32.68-29.3
			c-5.47-5.04-11.13-10.25-16.75-15.31c-3.54-3.19-7.11-6.44-10.57-9.6c-10.98-10-22.33-20.35-34.17-30.02
			c-6.66-5.47-13.6-10.59-20.78-15.35c-7.43-4.95-15.25-9.29-23.38-12.98c-8.31-3.78-17.02-6.63-25.95-8.49
			c-9.37-1.92-18.96-2.55-28.5-1.88c-8.76,0.64-17.41,2.36-25.76,5.1c-7.98,2.65-15.67,6.07-22.98,10.22
			c-12.23,6.89-24.45,16.04-38.47,28.8c-4.7,4.31-9.72,9.15-15.77,15.24c-3.02,3.04-6.07,6.15-9.01,9.15
			c-3.24,3.31-6.6,6.73-9.93,10.08c-12.69,12.83-26.19,24.83-40.42,35.93c-32.58,25.12-66.74,41.84-101.51,49.69
			c-46.15,10.43-94.89,4.71-132.2-1.43c-40.38-6.65-72.81-13.25-102.06-20.75c-13.09-3.37-25.89-6.84-37.76-10.09
			c-4.8-1.31-9.7-2.66-14.44-3.96c-16.34-4.49-33.23-9.14-50.2-13.48c-28.86-7.36-52.8-12.49-75.36-16.12
			c-50.18-8.02-96.15-9.25-136.64-3.66c-3.1,0.43-6.21,0.91-9.25,1.42c-17.51,2.88-34.67,7.55-51.22,13.95l0.3,0.76
			c16.5-6.37,33.61-11.03,51.06-13.9c3.03-0.51,6.14-0.99,9.23-1.42c40.4-5.58,86.29-4.35,136.4,3.66
			c22.53,3.63,46.45,8.75,75.29,16.1c16.96,4.34,33.85,8.98,50.18,13.48c4.74,1.3,9.64,2.65,14.44,3.96
			c11.88,3.25,24.68,6.73,37.78,10.1c29.27,7.51,61.72,14.1,102.13,20.76c25.55,4.21,46.55,6.46,66.07,7.07
			c3.59,0.11,7.13,0.17,10.6,0.17c18.77,0.16,37.5-1.78,55.84-5.79c19-4.37,37.4-11.05,54.77-19.91
			c16.59-8.48,32.35-18.5,47.06-29.93c14.26-11.12,27.79-23.14,40.5-36c3.34-3.35,6.69-6.77,9.94-10.08c2.94-3,5.99-6.11,9.01-9.15
			c6.05-6.08,11.05-10.91,15.74-15.21c20.92-19.05,49.68-41.26,86.71-43.92c41.73-2.99,75.94,20.55,98.04,38.52
			c11.82,9.65,23.16,19.99,34.13,29.98c3.46,3.15,7.04,6.41,10.57,9.6c5.61,5.06,11.27,10.27,16.74,15.31
			c10.59,9.75,21.54,19.83,32.7,29.32c28.72,24.42,58.93,48.23,88.14,71.27c8.86,6.98,18.02,14.21,26.98,21.32
			c17.57,13.95,33.27,26.21,47.98,37.47c22.43,17.21,45.1,34.02,67.38,49.97c22.35,15.98,45.98,32.2,70.24,48.21
			c6.79,4.48,13.6,8.96,20.18,13.29c6.79,4.47,13.81,9.08,20.77,13.68c1.53,1.01,3.06,2.02,4.59,3.03
			c6.91,4.57,14.06,9.29,21.55,13.93c6.56,4.06,14.4,8.86,22.85,13.61c10.03,5.64,18.47,9.98,26.54,13.68
			c9.54,4.43,19.41,8.12,29.51,11.04c3.04,0.86,6.13,1.64,9.19,2.3C222.3,441.11,231.71,442.15,241.15,442.2z"/>
	</g>
	<g id="Group_150_1_" transform="translate(32.144 49.267)">
		<path id="Path_3459_1_" class="st1" d="M258.28,464.82c8.81,0.05,17.59-1.06,26.1-3.32c8.88-2.4,17.34-6.13,25.11-11.07
			c7.06-4.47,13.42-9.96,18.87-16.3c4.37-5.1,8.07-10.75,11-16.8c2.75-5.75,4.83-11.79,6.2-18.02c2.48-11.16,3.05-23.51,1.74-37.76
			c-1-9.77-2.62-19.47-4.84-29.04c-5.3-23.45-13.39-46.32-21.96-70.53c-4.44-12.55-9.03-25.52-13.23-38.66
			c-4.26-13.31-9.56-30.96-12.82-49.39c-3.31-18.71-4.09-35.56-2.38-51.5c0.61-5.76,1.56-11.47,2.86-17.12
			c1.71-7.33,4.06-14.5,7.01-21.42c3.04-7.14,6.7-14,10.94-20.51c8.87-13.66,20.24-25.52,33.51-34.96c2.16-1.54,4.4-3.03,6.66-4.43
			c7.76-4.81,16.02-8.74,24.64-11.73c17.36-6.13,35.97-7.83,54.16-4.97c8.72,1.33,17.27,3.62,25.49,6.83
			c16.16,6.34,30.32,16.28,39.89,27.98c10.45,12.79,14.95,26.97,13.01,41.03l0.84,0.11c1.97-14.29-2.6-28.7-13.2-41.68
			c-9.65-11.81-23.94-21.84-40.24-28.23c-8.28-3.23-16.89-5.53-25.67-6.88c-18.32-2.89-37.07-1.17-54.56,5.01
			c-8.68,3.01-17,6.97-24.81,11.81c-2.28,1.41-4.53,2.91-6.71,4.45c-13.36,9.5-24.8,21.44-33.73,35.19
			c-4.26,6.55-7.95,13.45-11.01,20.64c-2.97,6.97-5.33,14.19-7.06,21.56c-1.3,5.68-2.26,11.43-2.88,17.22
			c-1.72,16.02-0.94,32.94,2.39,51.74c3.27,18.48,8.58,36.16,12.85,49.5c4.2,13.15,8.8,26.13,13.24,38.68
			c8.56,24.19,16.64,47.03,21.93,70.44c2.21,9.53,3.82,19.19,4.82,28.93c1.31,14.16,0.74,26.43-1.72,37.5
			c-1.35,6.16-3.41,12.14-6.14,17.83c-2.9,5.98-6.55,11.56-10.88,16.61c-5.4,6.27-11.69,11.71-18.68,16.13
			c-7.69,4.89-16.08,8.58-24.87,10.96c-15.27,4.16-32.97,4.37-51.17,0.63c-3.07-0.63-6.16-1.38-9.19-2.23
			c-10.12-2.88-19.98-6.63-29.46-11.2c-9.03-4.34-17.84-9.13-26.38-14.36c-6.92-4.18-14.15-8.86-22.74-14.74
			c-7.94-5.43-15.54-11.03-22.89-16.43l-3.27-2.4c-7.92-5.82-15.92-11.7-23.66-17.38c-5.82-4.27-11.67-8.57-17.54-12.88
			c-24.99-18.36-47.87-35.58-69.94-52.67c-22.19-17.19-44.63-34.99-66.69-52.93c-14.56-11.81-30.09-24.6-47.48-39.1
			c-9.02-7.51-18.22-15.14-27.12-22.52c-28.72-23.81-58.43-48.42-86.88-73.37c-11.42-10.01-22.72-20.54-33.65-30.71
			c-5.64-5.25-11.48-10.69-17.26-15.98c-3.67-3.36-7.38-6.8-10.97-10.13c-11.28-10.45-22.94-21.25-35.1-31.35
			c-6.86-5.73-14.01-11.09-21.42-16.08c-7.67-5.17-15.74-9.72-24.14-13.6c-8.59-3.96-17.59-6.94-26.85-8.89
			c-9.7-2.01-19.64-2.67-29.52-1.96c-9.08,0.68-18.04,2.48-26.67,5.36c-8.25,2.78-16.21,6.38-23.75,10.73
			c-12.65,7.24-25.24,16.84-39.64,30.21c-4.9,4.57-9.91,9.5-16.23,15.97c-3.07,3.14-6.16,6.35-9.15,9.46
			c-3.38,3.51-6.86,7.14-10.34,10.68c-13.04,13.43-26.95,25.99-41.63,37.59c-33.56,26.23-68.86,43.64-104.93,51.74
			c-18.75,4.05-37.9,6.03-57.09,5.89c-30.14,0-58.29-4.21-79.85-8.12c-34.67-6.21-69-14.23-102.84-24.01
			c-13.21-3.84-26.55-7.91-38.02-11.42c-3.32-1.02-6.65-2.03-9.97-3.06c-17.9-5.49-36.41-11.17-55.01-16.42
			c-28.74-8.09-52.8-13.73-75.72-17.74c-27.87-5-56.12-7.59-84.44-7.74c-17.7-0.06-35.38,1.2-52.9,3.75
			c-3.11,0.46-6.24,0.98-9.3,1.54c-17.64,3.13-34.87,8.18-51.41,15.08l0.33,0.78c16.47-6.87,33.65-11.91,51.23-15.03
			c3.05-0.56,6.16-1.07,9.27-1.54c40.81-6.09,86.93-4.74,137.07,4c22.89,4.01,46.92,9.65,75.64,17.73
			c18.59,5.24,37.1,10.92,54.99,16.41c3.33,1.02,6.65,2.04,9.97,3.06c11.47,3.51,24.81,7.58,38.03,11.43
			c33.87,9.79,68.22,17.81,102.93,24.03c25.5,4.62,47.89,7.22,68.44,7.94c11.54,0.43,23.1,0.21,34.62-0.66
			c31.73-2.33,62.66-11.08,90.91-25.73c17.16-8.84,33.42-19.3,48.58-31.24c14.71-11.63,28.65-24.21,41.72-37.67
			c3.48-3.55,6.97-7.18,10.34-10.69c2.99-3.1,6.08-6.32,9.14-9.46c6.31-6.46,11.31-11.38,16.2-15.94
			c21.51-19.98,51.14-43.27,89.55-46.07c2.55-0.19,5.07-0.28,7.56-0.28c39.84,0,72.34,22.89,93.76,40.62
			c12.15,10.09,23.8,20.88,35.07,31.32c3.59,3.33,7.3,6.77,10.98,10.13c5.78,5.29,11.61,10.72,17.25,15.98
			c10.93,10.18,22.24,20.71,33.67,30.73c28.46,24.95,58.17,49.57,86.89,73.39c8.9,7.38,18.11,15.01,27.12,22.52
			c17.4,14.5,32.93,27.29,47.49,39.1C-37.24,282.7-14.8,300.51,7.4,317.7c22.08,17.08,44.96,34.32,69.95,52.68
			c5.88,4.32,11.73,8.62,17.54,12.88c7.74,5.68,15.74,11.55,23.66,17.38l3.27,2.4c7.36,5.41,14.97,11.01,22.92,16.45
			c8.6,5.89,15.84,10.58,22.78,14.77c8.57,5.24,17.4,10.05,26.46,14.4c9.52,4.59,19.42,8.36,29.59,11.25
			c3.05,0.85,6.16,1.61,9.25,2.24C241.19,463.89,249.72,464.79,258.28,464.82z"/>
	</g>
	<g id="Group_151_1_" transform="translate(21.43 32.845)">
		<path id="Path_3460_1_" class="st1" d="M275.66,489.88c9.8,0.06,19.55-1.34,28.93-4.17c9.03-2.78,17.58-6.94,25.33-12.34
			c7.13-4.94,13.47-10.93,18.81-17.76c4.33-5.56,7.91-11.66,10.66-18.14c2.61-6.2,4.49-12.69,5.61-19.32
			c2.07-12,2.05-25.13-0.06-40.13c-1.55-10.32-3.75-20.53-6.6-30.56c-6.56-23.68-15.85-46.4-25.69-70.46
			c-5.62-13.75-11.44-27.97-16.66-42.32c-7.11-19.53-11.85-35.59-14.91-50.54c-3.9-19.01-5.06-36.19-3.57-52.51
			c0.53-5.86,1.42-11.67,2.67-17.42c1.65-7.44,3.96-14.71,6.91-21.74c3.04-7.25,6.72-14.21,11-20.8
			c8.98-13.86,20.52-25.89,33.99-35.43c2.19-1.55,4.46-3.06,6.75-4.47c7.86-4.86,16.22-8.84,24.94-11.87
			c17.59-6.23,36.45-8.01,54.89-5.16c8.84,1.32,17.5,3.6,25.85,6.8c29.89,11.5,58.15,37.23,53.92,68.8l0.88,0.12
			c1.92-14.33-2.79-28.74-13.62-41.68c-9.83-11.74-24.34-21.71-40.85-28.06c-8.4-3.22-17.13-5.52-26.03-6.85
			c-18.59-2.87-37.59-1.08-55.32,5.2c-8.78,3.06-17.21,7.07-25.12,11.96c-2.31,1.43-4.59,2.94-6.8,4.51
			c-13.57,9.61-25.19,21.72-34.22,35.67c-4.31,6.64-8.02,13.64-11.07,20.94c-2.97,7.08-5.3,14.4-6.96,21.89
			c-1.26,5.78-2.16,11.63-2.69,17.53c-1.5,16.41-0.33,33.67,3.59,52.77c3.07,14.99,7.82,31.09,14.95,50.66
			c5.23,14.36,11.05,28.59,16.68,42.35c9.83,24.04,19.11,46.74,25.66,70.36c2.84,10,5.03,20.17,6.57,30.45
			c4.52,32.06-0.73,57.22-16.04,76.93c-11.2,14.14-26.44,24.54-43.7,29.8c-15.51,4.79-33.36,5.43-51.61,1.85
			c-3.09-0.6-6.2-1.34-9.24-2.18c-10.18-2.86-20.06-6.68-29.51-11.42c-9.04-4.52-17.82-9.55-26.29-15.06
			c-7.09-4.59-14.29-9.64-22.65-15.89c-8.53-6.41-16.73-13.06-24.67-19.48l-1.53-1.24c-5.49-4.44-11.05-8.94-16.42-13.29
			c-8.19-6.62-16.65-13.46-25.03-20.26c-23.07-18.61-46.51-37.84-69.66-57.14c-22.12-18.44-44.33-37.25-66.02-55.91
			c-14.4-12.37-29.77-25.69-46.99-40.73c-9.06-7.91-18.3-15.95-27.23-23.73c-28.25-24.58-57.46-50-85.67-75.49
			c-11.68-10.55-23.34-21.52-34.62-32.12c-5.82-5.47-11.83-11.12-17.77-16.65c-3.8-3.54-7.65-7.16-11.37-10.66
			c-11.58-10.89-23.55-22.16-36.05-32.7c-7.05-5.98-14.41-11.6-22.05-16.81c-7.9-5.4-16.23-10.16-24.91-14.22
			c-8.86-4.14-18.17-7.26-27.74-9.3c-10.03-2.1-20.31-2.78-30.54-2.04c-40.08,2.97-70.71,27.47-92.93,48.47
			c-5.04,4.78-10.19,9.93-16.69,16.71c-3.11,3.25-6.25,6.56-9.28,9.77c-3.51,3.71-7.13,7.54-10.74,11.29
			c-13.39,14.03-27.7,27.14-42.85,39.26c-34.54,27.35-70.99,45.45-108.35,53.79c-11.62,2.56-23.41,4.3-35.28,5.19
			c-11.89,0.88-23.82,1.08-35.74,0.6c-21.74-0.84-44.85-3.72-70.66-8.81c-35.05-7.03-69.65-16.13-103.62-27.27
			c-12.64-4.09-25.32-8.37-38.27-12.75l-6.3-2.13c-19.21-6.5-39.07-13.23-59.04-19.37c-28.68-8.81-52.85-14.97-76.08-19.37
			c-22.68-4.35-45.65-7.05-68.73-8.07c-23.17-1.06-46.4,0.19-69.33,3.72c-3.13,0.5-6.27,1.06-9.34,1.66
			c-17.77,3.38-35.08,8.82-51.59,16.21l0.37,0.81c16.44-7.36,33.69-12.78,51.39-16.15c3.06-0.6,6.19-1.16,9.31-1.66
			c17.58-2.76,35.35-4.11,53.15-4.06c28.4,0.17,56.72,2.98,84.6,8.4c23.19,4.4,47.33,10.54,75.98,19.35
			c19.95,6.14,39.81,12.86,59.02,19.36l6.3,2.13c12.96,4.39,25.63,8.66,38.28,12.76c34,11.14,68.64,20.26,103.72,27.29
			c25.85,5.1,49.01,7.99,70.8,8.83c11.95,0.48,23.91,0.28,35.84-0.61c11.91-0.89,23.74-2.63,35.41-5.21
			c20.36-4.63,40.06-11.82,58.61-21.42c17.72-9.19,34.5-20.09,50.1-32.54c15.17-12.14,29.52-25.28,42.93-39.34
			c3.61-3.75,7.24-7.58,10.75-11.29c3.03-3.21,6.17-6.52,9.28-9.77c6.49-6.77,11.63-11.91,16.66-16.68
			c22.11-20.91,52.59-45.28,92.39-48.23c2.66-0.2,5.28-0.3,7.88-0.29c41.24,0,74.68,23.93,96.71,42.45
			c12.48,10.52,24.44,21.78,36.01,32.66c3.72,3.5,7.57,7.12,11.38,10.66c5.94,5.53,11.96,11.18,17.77,16.65
			c11.28,10.61,22.95,21.57,34.63,32.13c28.21,25.49,57.43,50.91,85.68,75.5c8.93,7.78,18.17,15.81,27.23,23.72
			c17.22,15.04,32.6,28.37,47,40.74c21.7,18.66,43.92,37.47,66.03,55.92c23.16,19.3,46.6,38.53,69.67,57.15
			c8.38,6.8,16.85,13.64,25.03,20.26c5.38,4.35,10.94,8.84,16.42,13.29l1.53,1.24c7.94,6.43,16.16,13.07,24.7,19.5
			c8.37,6.26,15.58,11.31,22.7,15.92c8.5,5.53,17.31,10.58,26.38,15.11c9.5,4.76,19.43,8.6,29.66,11.48
			c3.06,0.85,6.19,1.58,9.31,2.19C260.17,489.09,267.91,489.86,275.66,489.88z"/>
	</g>
	<g id="Group_152_1_" transform="translate(10.715 16.422)">
		<path id="Path_3461_1_" class="st1" d="M293.16,514.97c1.94,0,3.88-0.05,5.8-0.16c8.8-0.44,17.5-2.09,25.85-4.9
			c17.8-6.12,33.27-17.59,44.31-32.84c15.35-21.65,19.76-48.68,13.5-82.61c-2.09-10.87-4.88-21.59-8.35-32.1
			c-7.83-24.17-18.88-48.12-29.56-71.28c-6.77-14.68-13.77-29.85-19.97-45.09c-7.98-19.63-13.39-36.05-17-51.68
			c-4.47-19.31-6.03-36.82-4.76-53.53c0.45-5.95,1.28-11.87,2.49-17.72c1.59-7.55,3.87-14.93,6.81-22.06
			c9.48-22.93,25.27-42.69,45.54-57c2.22-1.57,4.53-3.09,6.85-4.52c7.95-4.91,16.41-8.93,25.24-12.01
			c17.82-6.34,36.93-8.18,55.63-5.35c8.95,1.31,17.73,3.58,26.2,6.77c30.31,11.44,59.05,37.09,54.93,68.6l0.91,0.12
			c1.88-14.36-2.98-28.78-14.05-41.68c-10-11.67-24.73-21.57-41.47-27.89c-8.53-3.21-17.38-5.5-26.4-6.82
			c-18.85-2.85-38.11-1-56.07,5.39c-8.89,3.1-17.41,7.16-25.43,12.11c-2.34,1.44-4.66,2.97-6.9,4.55
			c-20.41,14.41-36.32,34.31-45.86,57.4c-2.97,7.18-5.26,14.62-6.86,22.22c-1.22,5.89-2.06,11.84-2.51,17.84
			c-1.28,16.8,0.29,34.4,4.78,53.81c3.63,15.68,9.05,32.14,17.05,51.82c6.21,15.26,13.21,30.44,19.99,45.13
			c10.67,23.14,21.71,47.06,29.52,71.18c3.46,10.47,6.25,21.15,8.33,31.98c6.21,33.68,1.85,60.47-13.34,81.91
			c-10.92,15.09-26.24,26.44-43.85,32.5c-8.27,2.79-16.88,4.42-25.6,4.85c-8.85,0.46-17.73-0.14-26.45-1.79
			c-3.11-0.58-6.23-1.3-9.29-2.13c-17.89-4.87-35.61-13.58-55.76-27.4c-7.12-4.9-14.5-10.47-22.56-17.03
			c-8.67-7.08-17.06-14.49-25.18-21.66l-1.07-0.94c-5.43-4.79-10.85-9.58-16.27-14.36c-8.33-7.35-16.94-14.96-25.44-22.47
			c-23.33-20.57-46.68-41.3-69.39-61.61c-22.04-19.72-44.03-39.53-65.36-58.88c-14.23-12.91-29.44-26.77-46.5-42.37
			c-9.09-8.31-18.35-16.76-27.3-24.94c-27.78-25.36-56.51-51.58-84.5-77.6c-11.94-11.1-23.96-22.51-35.59-33.54
			c-5.99-5.68-12.18-11.55-18.29-17.32c-3.94-3.72-7.92-7.52-11.77-11.19c-11.88-11.34-24.16-23.07-36.99-34.04
			c-7.25-6.24-14.82-12.1-22.68-17.54c-8.14-5.64-16.72-10.6-25.67-14.84c-9.14-4.32-18.75-7.57-28.63-9.7
			c-10.37-2.19-20.99-2.9-31.56-2.12c-9.71,0.75-19.29,2.72-28.5,5.88c-8.81,3.05-17.29,6.98-25.3,11.75
			c-13.48,7.94-26.82,18.43-41.99,33.02c-5.18,4.98-10.46,10.36-17.15,17.44c-3.16,3.35-6.35,6.78-9.43,10.09
			c-3.63,3.9-7.39,7.94-11.13,11.88c-13.74,14.62-28.46,28.3-44.06,40.92c-35.51,28.47-73.12,47.26-111.77,55.84
			c-12.01,2.64-24.2,4.42-36.47,5.33c-12.29,0.91-24.63,1.09-36.95,0.56c-24.56-1.19-48.98-4.44-73-9.7
			c-31.71-6.75-64.89-16.45-104.4-30.53c-12.99-4.63-25.97-9.43-38.52-14.08l-3.23-1.19c-20.32-7.52-41.34-15.3-62.46-22.34
			c-28.65-9.54-52.94-16.21-76.44-21c-22.76-4.7-45.85-7.61-69.07-8.7c-23.31-1.13-46.67,0.21-69.69,4.01
			c-3.14,0.54-6.3,1.14-9.39,1.78c-17.91,3.63-35.29,9.46-51.77,17.34l0.4,0.83c16.41-7.85,33.73-13.65,51.56-17.27
			c3.07-0.64,6.22-1.24,9.35-1.78c17.68-2.96,35.58-4.43,53.51-4.37c26.83,0,55.22,3.02,84.91,9.05
			c23.46,4.78,47.71,11.44,76.33,20.97c21.11,7.03,42.12,14.81,62.43,22.33l3.23,1.19c12.56,4.65,25.54,9.45,38.53,14.08
			c39.56,14.09,72.77,23.8,104.52,30.56c24.07,5.27,48.54,8.53,73.15,9.72c12.35,0.53,24.73,0.35,37.06-0.56
			c12.31-0.91,24.54-2.7,36.6-5.35c21.05-4.76,41.39-12.21,60.53-22.17c18.29-9.55,35.58-20.89,51.62-33.85
			c15.63-12.65,30.38-26.35,44.15-41c3.74-3.95,7.5-7.98,11.14-11.89c3.08-3.31,6.27-6.74,9.43-10.09
			c6.67-7.07,11.95-12.44,17.11-17.41c22.7-21.84,54.04-47.29,95.22-50.39c46.43-3.49,83.8,23.43,107.87,43.98
			c12.82,10.96,25.09,22.67,36.96,34c3.85,3.67,7.83,7.48,11.77,11.19c6.1,5.76,12.3,11.63,18.28,17.31
			c11.63,11.03,23.65,22.44,35.59,33.54c27.99,26.03,56.72,52.25,84.51,77.61c8.95,8.17,18.21,16.62,27.3,24.94
			c17.06,15.6,32.27,29.46,46.51,42.37c21.33,19.35,43.32,39.17,65.36,58.89c22.71,20.31,46.06,41.05,69.39,61.62
			c8.5,7.51,17.11,15.12,25.44,22.47c5.42,4.78,10.84,9.57,16.27,14.36l1.07,0.94c8.12,7.17,16.52,14.59,25.2,21.68
			c8.08,6.57,15.48,12.16,22.62,17.08c20.24,13.88,38.05,22.63,56.04,27.53c3.08,0.84,6.23,1.56,9.36,2.15
			C279.18,514.31,286.16,514.96,293.16,514.97z"/>
	</g>
	<g id="Group_153_1_" transform="translate(0)">
		<path id="Path_3462_1_" class="st1" d="M310.97,540.13c1.05,0,2.1-0.02,3.15-0.05c10.57-0.25,21.01-2.27,30.92-5.97
			c18.19-6.89,33.75-19.34,44.47-35.58c5.82-8.95,9.99-18.86,12.33-29.27c2.22-10.16,3.02-20.58,2.38-30.96
			c-0.96-17.9-5.55-37.86-14.04-61.02c-9.11-24.86-21.54-49.18-33.56-72.7c-7.87-15.41-16.01-31.34-23.14-47.27
			c-10.31-23.02-17.24-43.21-21.2-61.73c-2.28-10.45-3.63-21.09-4.03-31.78c-0.38-10.68,0.45-21.37,2.49-31.87
			c6.86-34.69,28.64-65.56,59.75-84.72c8.06-4.96,16.62-9.04,25.55-12.17c18.05-6.45,37.41-8.35,56.37-5.53
			c9.07,1.3,17.97,3.55,26.56,6.73c30.73,11.38,59.95,36.94,55.95,68.39l0.95,0.12c1.83-14.39-3.18-28.81-14.48-41.69
			c-10.18-11.6-25.12-21.44-42.08-27.72c-8.65-3.2-17.63-5.48-26.76-6.78c-19.11-2.83-38.63-0.92-56.82,5.58
			c-8.99,3.15-17.62,7.26-25.73,12.26c-8.07,4.97-15.59,10.77-22.44,17.32c-6.57,6.28-12.47,13.22-17.62,20.71
			c-4.97,7.23-9.21,14.95-12.64,23.03c-3.32,7.82-5.83,15.95-7.49,24.28c-2.05,10.56-2.89,21.33-2.51,32.08
			c0.4,10.75,1.76,21.44,4.05,31.95c3.97,18.59,10.93,38.84,21.26,61.93c7.14,15.95,15.29,31.89,23.16,47.31
			c12.01,23.5,24.42,47.79,33.52,72.6c8.46,23.07,13.04,42.94,13.99,60.74c0.63,10.29-0.16,20.62-2.36,30.7
			c-2.31,10.3-6.44,20.11-12.2,28.96c-10.6,16.07-26,28.39-44,35.21c-18.73,7.1-40.68,7.89-61.82,2.21
			c-10.29-2.81-20.23-6.78-29.63-11.81c-9.09-4.86-17.81-10.37-26.09-16.5c-17.52-12.78-32.98-27.57-47.94-41.87l-0.82-0.79
			L67.31,358.25l-110.7-105.87l-55.35-52.93l-55.35-52.93l-55.35-52.93c-4.07-3.89-8.18-7.87-12.16-11.72
			c-12.18-11.79-24.77-23.97-37.94-35.38c-7.44-6.5-15.23-12.6-23.32-18.27c-8.37-5.87-17.21-11.04-26.43-15.46
			c-9.42-4.5-19.32-7.89-29.52-10.1c-10.7-2.28-21.67-3.02-32.58-2.2c-10.03,0.78-19.91,2.85-29.41,6.14
			c-9.09,3.18-17.83,7.29-26.08,12.26c-13.9,8.29-27.61,19.23-43.17,34.43c-9.49,9.27-18.49,19.09-27.19,28.58
			c-3.76,4.1-7.65,8.34-11.52,12.48c-14.09,15.22-29.22,29.45-45.28,42.58c-36.49,29.59-75.25,49.06-115.19,57.89
			c-44.13,9.76-94.98,8.2-151.15-4.61c-24.51-5.74-48.66-12.92-72.33-21.51c-23.53-8.37-46.96-17.78-69.62-26.88l-2.63-1.06
			c-45.44-18.24-92.44-37.11-142.22-47.94c-22.84-5.04-46.06-8.16-69.42-9.33c-23.44-1.2-46.94,0.24-70.05,4.29
			c-22.54,4.1-43.19,10.96-61.39,20.38l0.44,0.85c18.11-9.38,38.67-16.21,61.12-20.29c23.04-4.04,46.47-5.48,69.84-4.28
			c23.3,1.16,46.47,4.27,69.25,9.3c49.7,10.81,96.66,29.66,142.07,47.89l2.63,1.06c22.67,9.1,46.11,18.51,69.66,26.89
			c23.7,8.6,47.89,15.79,72.43,21.54c24.8,5.79,50.07,9.34,75.5,10.62c27.02,1.2,52.61-0.83,76.07-6.01
			c21.73-4.89,42.72-12.59,62.45-22.93c18.85-9.9,36.66-21.68,53.15-35.16c16.09-13.16,31.25-27.42,45.37-42.67
			c3.88-4.14,7.77-8.39,11.53-12.49c8.69-9.48,17.68-19.29,27.15-28.54c23.29-22.76,55.49-49.31,98.07-52.55
			c48-3.66,86.42,24.39,111.15,45.8c13.15,11.39,25.73,23.57,37.9,35.34c3.98,3.85,8.09,7.83,12.16,11.72l166.06,158.8L66.64,358.95
			l111.9,107c14.97,14.32,30.46,29.13,48.03,41.95c8.32,6.15,17.08,11.69,26.21,16.57c9.46,5.07,19.47,9.06,29.83,11.89
			C291.86,538.85,301.39,540.12,310.97,540.13z"/>
	</g>
</g>
</svg>
